<svg width="98" height="98" viewBox="0 0 98 98" fill="none" xmlns="http://www.w3.org/2000/svg">
<mask id="mask0_21_608" style="mask-type:alpha" maskUnits="userSpaceOnUse" x="7" y="7" width="85" height="85">
<path d="M8.04081 41.9746C11.9938 19.1179 33.7272 3.7934 56.5839 7.74634C79.4405 11.6993 94.765 33.4328 90.8121 56.2894C86.8592 79.1461 65.1257 94.4706 42.269 90.5176C19.4124 86.5647 4.08787 64.8312 8.04081 41.9746Z" fill="#EBD9C8"/>
</mask>
<g mask="url(#mask0_21_608)">
<path d="M65.5297 40.4845C66.9958 40.312 68.4619 40.7001 69.7986 41.3038C71.6527 42.1662 73.4637 43.6322 73.7656 45.702C74.1105 47.9442 72.5151 50.014 71.7821 52.1699C71.6096 52.6442 71.4802 53.1617 71.6096 53.6791C71.8252 54.6278 72.7738 55.1883 73.55 55.7489C75.5335 57.1287 77.0858 59.1122 77.9482 61.3544C78.3363 62.3462 78.595 63.4242 78.1638 64.4159C77.7757 65.3214 76.8702 65.9251 75.9216 66.1838C74.9729 66.4425 73.9812 66.3994 72.9894 66.3994C74.0674 66.9169 75.2748 67.0462 76.3096 67.6499C77.3445 68.2104 78.1638 69.504 77.6895 70.582C77.4307 71.0995 76.9564 71.4875 76.439 71.7463C72.6014 73.9022 67.427 73.2123 64.2793 70.1508C63.8481 69.7196 63.4169 69.2022 63.4169 68.5985C63.3738 67.9948 63.9774 67.348 64.538 67.5205C65.0554 67.693 65.2279 68.4692 64.9261 68.9435C64.6242 69.4178 64.0637 69.6765 63.5031 69.8059C61.0884 70.4958 58.2425 69.849 56.6902 67.9517C55.0948 66.0113 55.181 62.7774 57.1214 61.2251C57.6819 60.7939 58.3288 60.492 58.8893 60.0608C59.4499 59.6296 59.9242 58.9828 59.9242 58.2929C59.881 57.1718 58.6737 56.4819 58.07 55.5333C57.0783 54.0241 57.7251 51.9975 58.6737 50.4451C59.6223 48.936 60.8728 47.4699 61.1746 45.702C61.3902 44.4946 61.1747 43.3735 61.9939 42.3818C62.8994 41.3469 64.2361 40.657 65.5297 40.4845Z" fill="#FF5540"/>
<path opacity="0.44" d="M59.7947 57.5168C60.7002 57.6461 61.692 57.4737 62.5544 57.3012C66.0902 56.5681 69.3242 54.8002 71.6095 51.9975C71.8682 51.6956 72.0838 51.3938 72.2994 51.0919C73.0756 49.324 74.1105 47.5993 73.8517 45.702C73.5499 43.6754 71.7389 42.1662 69.8847 41.3038C68.548 40.7001 67.0819 40.312 65.6159 40.4845C64.2792 40.6139 62.9856 41.3038 62.1232 42.3818C61.3039 43.3735 61.5195 44.4946 61.3039 45.702C61.0021 47.4699 59.7516 48.8928 58.803 50.4451C57.8543 51.9543 57.2075 54.0241 58.1993 55.5333C58.6305 56.2232 59.4066 56.7837 59.7947 57.5168Z" fill="#B22E2E"/>
<path d="M47.7212 65.7957C48.4542 64.8902 56.3882 63.6829 63.9773 64.5022C71.5664 65.3214 72.7306 72.1343 72.3856 77.6536C72.0407 83.173 72.4287 96.152 69.8847 98.1355C67.2975 100.119 46.4276 100.636 44.0129 98.2217C41.5551 95.7208 42.4175 72.5224 47.7212 65.7957Z" fill="#66BCAC"/>
<path d="M67.8582 65.7095C67.2545 66.0975 66.7371 66.615 66.3059 67.2618C65.271 68.771 64.8829 70.5389 64.6242 72.3068C64.0205 76.36 63.6324 80.4564 63.3306 84.5096C63.1581 86.6225 63.0719 88.6922 63.0719 90.8051C63.0719 92.0556 63.0719 93.306 63.2013 94.5565C63.3306 95.7639 63.5893 96.9281 64.1499 97.9198C64.4948 98.4804 64.926 98.9116 65.4435 99.2565C67.5995 98.9547 69.1949 98.5666 69.7986 98.1354C72.3857 96.1519 71.9545 83.1729 72.2995 77.6536C72.6013 73.2554 71.9545 68.0811 67.8582 65.7095Z" fill="#90D3C7"/>
<path d="M19.6072 72.1774C18.9173 70.4526 16.5889 66.1837 17.0632 65.925C17.5375 65.6663 19.4348 68.3397 19.4348 68.3397C19.4348 68.3397 17.4513 63.4672 18.1412 63.1222C18.8311 62.7773 21.2889 67.0461 21.2889 67.0461C21.2889 67.0461 19.6935 61.6131 20.6852 61.3975C21.7201 61.1819 23.2293 66.5287 23.2293 66.5287C23.2293 66.5287 22.6256 62.1736 23.5312 62.1736C24.4367 62.1305 25.9027 67.9516 25.9027 67.9516C25.9027 67.9516 26.722 64.847 27.5413 65.0195C28.3174 65.192 27.1101 71.5306 27.1101 72.8242C27.1101 74.1178 27.7569 77.0068 27.7569 77.0068L21.4614 78.0848C21.5045 78.0416 20.2972 73.9022 19.6072 72.1774Z" fill="#FFBB9A"/>
<path d="M28.7487 74.8076C29.0074 73.9452 29.3523 73.0829 29.6973 72.2636C30.7753 69.7195 32.1982 67.3048 34.9148 66.2268C35.9065 65.8388 37.1139 65.7525 37.9331 66.3993C38.4937 66.8736 38.7524 67.6067 38.9249 68.3397C39.6579 71.6599 38.7955 75.1526 37.5882 78.3866C36.8551 80.327 35.9928 82.2673 34.9579 84.0784C34.0524 85.6738 32.9313 87.3555 31.1634 88.1316C30.4303 88.4766 29.5679 88.6059 28.8349 88.261C27.9294 87.7867 27.5844 86.6224 27.4551 85.6307C26.9376 82.0086 27.6707 78.2572 28.7487 74.8076Z" fill="#FFBE00"/>
<path d="M19.866 74.9801L28.0156 72.5654C28.0156 72.5654 35.3028 87.7867 29.6541 89.1665C24.0055 90.5463 21.2458 80.7582 19.866 74.9801Z" fill="#FFBE00"/>
<path d="M30.1284 77.4811C30.0422 77.2655 30.0422 77.2224 29.9991 77.0931C29.6972 76.2738 29.3523 75.4545 29.0073 74.6784C28.9642 74.5921 28.8348 74.6352 28.8779 74.7215C29.1367 75.4114 29.4385 76.1013 29.6972 76.8343V76.8775C29.9559 77.5674 30.2147 78.2573 30.4303 78.9472C30.9046 80.3701 31.2495 81.8362 31.6807 83.3023C31.7238 83.3885 31.8101 83.3454 31.767 83.2592C31.5514 81.75 31.077 80.2839 30.6027 78.861C30.4302 78.3866 30.3009 77.9554 30.1284 77.4811Z" fill="#FF8C01"/>
<path d="M61.2177 98.1354C58.9324 98.4372 43.3231 100.291 29.3092 97.3161C29.3092 96.0225 29.3523 94.6858 29.3954 93.306C29.4386 91.883 29.5248 90.4601 29.6542 88.994C29.7835 87.3986 29.9129 85.8032 30.0854 84.2508C30.2579 82.4829 30.4735 80.7582 30.7322 79.1196C30.9909 77.4379 31.2496 75.8425 31.5083 74.3765C31.8102 72.8241 32.112 71.4012 32.4138 70.237C32.845 68.5984 33.3194 67.3911 33.7505 66.7443C33.923 66.4856 34.5698 66.1406 35.4753 65.7525C38.4506 64.5452 44.5304 63.1653 49.1442 63.2947C54.448 63.4241 58.1994 64.4158 59.3636 65.6663C59.5361 65.8388 59.6223 66.0112 59.7085 66.1837C59.8379 66.4856 59.9673 68.2535 60.1397 70.7975C60.226 71.9618 60.3122 73.2985 60.3985 74.7214C60.4847 76.36 60.571 78.0848 60.7003 79.8958C60.7866 81.4912 60.8728 83.1297 60.9159 84.7252C61.0022 86.4931 61.0453 88.261 61.1315 89.9426C61.1746 91.3225 61.2177 92.6592 61.2177 93.8665C61.2609 95.5482 61.2609 96.9711 61.2177 98.1354Z" fill="#FFD9C4"/>
<path d="M61.1314 89.9427C59.4497 90.2014 57.8112 90.3739 56.1295 90.5032C48.756 91.15 41.3826 90.9344 34.0522 89.7702C32.5862 89.5546 31.1201 89.2528 29.6541 88.9509C29.7834 87.3555 29.9128 85.7601 30.0852 84.2078C35.5614 85.1995 41.0807 85.7601 46.5569 85.7601C50.179 85.8032 53.801 85.5876 57.4231 85.1564C58.5873 85.027 59.7515 84.8545 60.8727 84.6821C61.002 86.4931 61.0451 88.261 61.1314 89.9427Z" fill="#FFBE00"/>
<path d="M60.7002 79.8957C59.191 80.1113 57.6387 80.2838 56.1295 80.4131C48.756 81.0599 41.3826 80.8443 34.0522 79.6801C32.9311 79.5076 31.8532 79.292 30.7321 79.0764C30.9908 77.3947 31.2495 75.7993 31.5082 74.3333C36.5101 75.1956 41.5551 75.6268 46.5569 75.67C50.179 75.7131 53.801 75.4975 57.4231 75.0663C58.4148 74.9369 59.4066 74.8076 60.3984 74.6782C60.5277 76.3168 60.614 78.0847 60.7002 79.8957Z" fill="#FFBE00"/>
<path d="M60.1396 70.7975C58.8029 70.97 57.4662 71.1425 56.0864 71.2718C48.7129 71.9186 41.3395 71.6599 34.0091 70.5388C33.4486 70.4525 32.9312 70.3663 32.3706 70.2801C32.8018 68.6415 33.2761 67.4342 33.7073 66.7874C33.8798 66.5287 34.5266 66.1837 35.4321 65.7956C39.1404 66.2699 42.8056 66.5287 46.5138 66.5287C50.1359 66.5718 53.7579 66.3562 57.38 65.925C58.0268 65.8387 58.6736 65.7525 59.3204 65.6663C59.4929 65.8387 59.5791 66.0112 59.6653 66.1837C59.7947 66.4855 59.9672 68.2534 60.1396 70.7975Z" fill="#FFBE00"/>
<path d="M38.2781 61.0956L39.6148 65.8819C39.6148 65.8819 40.6497 67.5636 45.7378 66.2269C50.5672 64.9333 50.0928 62.6048 50.0928 62.6048L48.9717 58.8103L38.2781 61.0956Z" fill="#FFBB9A"/>
<path d="M39.0543 64.804C40.2185 64.9333 41.4258 64.7177 42.5901 64.459C44.013 64.1141 45.3928 63.6829 46.6002 62.9067C47.8075 62.1306 48.7562 61.0957 49.058 59.9315C49.1443 59.5434 49.1874 59.0691 48.9286 58.7672C48.6699 58.4654 48.2387 58.3792 47.7644 58.2929C46.9452 58.2067 46.0827 58.2498 45.2635 58.3792C42.7194 58.7241 40.3047 59.5003 37.89 60.3627C37.3295 60.5782 36.6827 60.837 36.3808 61.2682C35.9928 61.8287 35.9065 63.0792 36.2946 63.6397C36.7689 64.3297 38.1056 64.7177 39.0543 64.804Z" fill="#B22E2E"/>
<path d="M65.2279 71.1426C64.2792 69.9783 63.2875 68.8141 62.2526 67.693C60.6572 65.9682 56.9489 63.0361 54.4911 64.6746C53.7149 65.192 53.6287 66.3563 53.7149 67.2187C53.8443 69.2453 54.7498 71.2288 55.6984 72.9967C57.1645 75.7564 58.9755 78.3435 61.0884 80.672C63.115 82.9573 65.4866 85.4152 68.1169 86.9675C68.2893 87.0537 68.505 87.1399 68.6774 87.2262C69.8417 87.7867 71.7821 88.1317 72.7738 87.0968C73.938 85.8895 73.3775 83.9922 72.7738 82.6555C70.9197 78.4729 68.0738 74.6352 65.2279 71.1426Z" fill="#FFBE00"/>
<path d="M52.0763 63.0791C51.9901 63.0791 51.9039 63.1222 51.8607 63.2085C49.446 67.9516 49.446 74.1609 50.9983 79.6802C52.5506 85.3288 56.3021 90.4601 61.0452 93.4785C61.6058 93.8234 62.3388 93.694 62.5975 93.0904C62.8993 92.3573 62.3819 91.4518 61.8645 90.805C60.4846 88.994 56.8195 84.1646 55.2241 78.171C53.6286 72.1773 55.1809 67.3479 56.2589 64.5452C56.302 64.3727 56.302 64.2002 56.1296 64.114C55.1378 63.5534 53.1543 63.1653 52.0763 63.0791Z" fill="black"/>
<path d="M55.0947 68.426C54.7066 69.9783 54.8791 69.8921 54.4479 69.5903C54.0167 69.3315 50.3084 66.6581 49.1873 68.6847C49.0579 68.9003 48.9717 69.1591 48.8423 69.504C48.7992 69.849 48.7561 70.1939 48.7992 70.5389C48.8854 71.0563 48.9717 71.5306 48.8423 72.0481C48.713 72.4793 48.4974 72.7811 48.713 73.2554C48.8854 73.6004 49.0579 73.9453 49.0579 74.3765C49.0579 74.894 48.8423 75.2821 48.9717 75.8426C48.9717 75.9289 49.0148 76.0151 49.0579 76.1013L49.101 76.1444C49.2304 76.2307 49.3166 76.3169 49.446 76.36C50.524 77.0931 51.8607 77.3518 53.0249 77.8261C54.8359 78.5591 56.5176 79.594 58.1562 80.672L61.5195 74.3334C57.7681 72.7811 57.7681 68.3829 55.0947 68.426Z" fill="#FFBB9A"/>
<path d="M58.8461 72.1775C58.2424 72.8674 57.5957 73.5573 57.0351 74.2903C56.3452 75.1096 55.6984 75.972 55.0085 76.7913C54.6204 77.2656 54.2323 77.7399 53.8442 78.1711C55.3965 78.861 56.8195 79.7665 58.1993 80.7152L61.5627 74.3766C60.3122 73.8592 59.4929 73.0399 58.8461 72.1775Z" fill="#B22E2E"/>
<path d="M65.7453 76.4895C64.2361 75.3683 60.7434 72.1775 59.0186 71.4445C58.803 72.0913 54.6635 78.6454 54.3617 79.1629C55.6122 80.3271 59.7085 83.5179 61.0883 84.4666C61.8214 84.984 62.5975 85.4583 63.4168 85.8895C65.8315 87.2262 71.3508 89.6841 73.3774 87.0538C74.3261 85.8033 73.3343 82.0519 65.7453 76.4895Z" fill="#FFBE00"/>
<path d="M54.4048 79.2059L56.0433 80.4564C56.6039 80.8876 57.1213 81.3188 57.6819 81.7069C58.2424 82.1381 58.7599 82.5693 59.2773 83.0005C59.7947 83.4317 60.3553 83.8629 60.8727 84.3372C60.2691 83.9922 59.7085 83.6041 59.1479 83.2161C58.5874 82.828 58.0269 82.3968 57.4663 81.9656C56.9057 81.5344 56.3883 81.1032 55.8709 80.6289C55.3534 80.1546 54.8791 79.7234 54.4048 79.2059Z" fill="#FF8C01"/>
<path d="M67.5132 77.6967C67.2976 77.4811 67.0388 77.3086 66.8232 77.1362C66.9957 77.1793 67.1682 77.2655 67.3407 77.3086C67.7719 77.4811 68.2031 77.6967 68.6343 77.9123C68.7205 77.9554 68.7636 77.8692 68.6774 77.8261C68.2893 77.5674 67.8581 77.3518 67.3838 77.1362C67.1682 77.0499 66.9526 76.9637 66.737 76.8774C66.6076 76.8343 66.4783 76.7912 66.392 76.7481C65.8315 76.3169 65.3141 75.9288 64.7966 75.4976C63.8911 74.7646 62.9856 74.0315 62.0801 73.2985C61.1314 72.6086 60.1828 71.8756 59.1048 71.4012H59.0617V71.4444L58.803 72.048L59.1048 71.4875C60.0966 72.048 61.0021 72.7811 61.9076 73.5141C62.8131 74.2471 63.7186 75.0233 64.6241 75.7563C65.0984 76.1444 65.5728 76.4894 66.0471 76.8343L67.47 77.8692C68.4186 78.5591 69.3242 79.3353 70.1866 80.1114C69.2811 79.249 68.4187 78.4729 67.5132 77.6967Z" fill="#FF8C01"/>
<path d="M29.8697 57.9048C31.9395 60.2333 35.2597 61.9149 40.5203 62.648C40.9946 62.7342 41.512 62.7773 42.0294 62.8204C48.9717 63.5104 55.2672 60.1901 58.8892 54.5415C60.5709 51.9112 61.692 48.7634 61.9939 45.2708C63.0287 33.8441 55.1378 23.3229 44.4442 22.2018C33.7505 21.0806 27.8431 28.5835 26.8945 41.5193C26.7651 43.5028 26.6357 45.4432 26.6789 47.2543C26.6789 51.48 27.455 55.1883 29.8697 57.9048Z" fill="#FFBB9A"/>
<path d="M69.5398 28.7991C69.2811 28.1954 69.0224 27.5917 68.7205 27.0312C67.6425 25.0477 66.0902 23.2798 64.4086 21.8137C63.6755 21.1669 62.8994 20.6063 62.0801 20.0458C56.4745 16.3806 49.446 15.2164 42.8487 16.51C40.1322 17.0274 37.5019 18.0192 35.0872 19.399C34.2248 19.9164 33.3624 20.477 32.5431 21.0807C31.6807 21.7274 30.8184 22.4605 30.0422 23.2798C28.6624 24.7027 27.4119 26.3412 26.8945 28.2816C26.5495 29.6615 26.5495 31.645 27.3257 32.9817C31.1202 32.6367 34.9579 32.8092 38.7093 33.2835C39.2267 33.3697 39.7872 33.456 40.3047 33.5422C40.3047 33.1973 40.2616 32.8523 40.2616 32.5505C40.1753 31.2569 40.3478 29.9202 40.6928 28.6697C40.5634 29.5321 40.5634 30.3945 40.6497 31.2138C40.7359 31.9899 40.9515 32.7661 41.2533 33.5422C41.2964 33.6285 41.3827 33.5853 41.3827 33.4991C40.8652 31.8174 40.7359 30.0064 41.0377 28.2816C41.124 27.8073 41.2533 27.3761 41.3827 26.9018C41.4689 26.7293 41.5552 26.5137 41.6845 26.3412C41.2102 27.8504 40.8652 31.7743 41.9001 33.8009C42.8487 34.0165 43.7543 34.2321 44.6598 34.534C45.0047 33.8872 44.9185 33.4129 44.7029 32.723C44.0992 30.9982 43.8405 29.3165 44.1423 27.5055C44.2717 26.6 44.5735 25.7807 44.9185 24.9614C44.9616 24.8752 45.0047 24.7889 45.0478 24.7458C44.9616 25.3064 44.8323 25.8669 44.746 26.4275C44.6598 27.1605 44.6166 27.8935 44.6166 28.6697C44.6166 30.0927 44.8322 31.5587 45.4359 32.8092C46.2121 34.4909 47.1607 35.3101 48.3681 35.9569C48.6699 36.0863 48.9717 36.2156 49.2736 36.345C49.7048 36.5175 50.1791 36.69 50.6965 36.8624C52.7663 37.5523 54.8791 39.3634 55.6121 41.5194C56.0002 42.6836 55.6122 44.0203 55.569 45.1845C55.5259 46.3056 55.3534 47.3836 56.6039 47.4699C57.8544 47.5561 58.5874 45.0552 60.7865 45.0983C62.9856 45.1845 63.115 47.513 64.4948 46.9955C65.3141 46.6937 65.9609 45.6588 66.4783 45.0552C70.4022 40.7432 71.7389 34.3184 69.5398 28.7991Z" fill="#FF5540"/>
<path d="M32.1982 23.7972C32.3276 24.7027 33.578 24.8321 34.4404 24.6165C37.2863 23.9266 39.8304 22.1587 42.7194 21.555C43.9268 21.2963 45.3066 21.2963 46.2983 22.0724C47.2901 22.8486 47.9369 24.444 49.1874 24.3147C49.6186 24.2715 50.0066 24.0128 50.4378 23.9266C51.3433 23.7972 52.1626 24.6165 52.4644 25.4789C52.8094 26.3413 52.7663 27.333 53.025 28.2386C53.4562 29.9202 54.6635 31.3432 56.2158 31.99C57.2507 32.4212 58.5874 32.4643 59.4067 31.645C60.6141 30.4377 60.1397 28.1523 61.3471 26.945C62.3388 25.9101 64.0205 26.1688 65.271 26.8156C66.1765 27.2899 67.2114 27.9798 68.16 27.5055C68.4187 27.3762 68.5912 27.2037 68.7637 26.9881C67.6857 25.0046 66.1334 23.2367 64.4517 21.7706C63.7187 21.1238 62.9425 20.5633 62.1232 20.0027C62.0801 20.0458 61.9939 20.0889 61.9508 20.1321C60.959 20.822 60.3985 22.2018 59.2342 22.3743C58.5012 22.5036 57.7682 22.0293 57.2076 21.4688C56.647 20.9082 56.1727 20.2614 55.5259 19.8733C54.2755 19.0972 52.6369 19.4421 51.2571 20.0458C50.4378 20.3908 49.4461 20.7357 48.7993 20.1321C48.5837 19.9165 48.4543 19.5715 48.2818 19.3128C47.8075 18.4504 46.7727 17.9761 45.824 18.1486C45.2635 18.2348 44.7029 18.5798 44.1424 18.6229C42.5038 18.7954 43.1937 17.3724 42.935 16.51C40.2185 17.0274 37.5882 18.0192 35.1735 19.399C34.1817 20.3477 33.3193 21.4257 32.6294 22.5899C32.3276 23.0211 32.1551 23.4092 32.1982 23.7972Z" fill="#FF5560"/>
<path d="M66.9527 44.5377C67.6426 44.9258 68.2031 45.5295 68.505 46.4781C68.8499 47.513 68.8068 48.591 68.5481 49.5396C67.9875 51.6525 66.5215 53.291 64.6242 54.1534C63.0288 54.8864 60.3985 55.3607 58.9755 53.5928C58.3287 52.8167 58.2425 51.7387 58.3287 50.7901C58.5443 48.7203 59.148 46.2625 60.8297 45.1414C62.2957 44.1496 65.0985 43.4597 66.9527 44.5377Z" fill="#FFBB9A"/>
<path d="M61.1746 50.1433C61.4333 49.4534 61.7352 48.8497 62.2095 48.3323C62.7269 47.8148 63.2875 47.3837 63.9774 47.0818C64.6673 46.78 65.4866 46.6506 66.2196 46.8662C66.5646 46.9525 66.8664 47.1249 67.1251 47.3837C67.3407 47.5992 67.6857 47.9873 67.5994 48.3323C67.5563 48.5479 67.3407 48.6341 67.1682 48.5479C66.9526 48.4616 66.7801 48.1598 66.6077 48.0304C66.3921 47.858 66.1765 47.7286 65.9178 47.6424C65.7453 47.5992 65.6159 47.5561 65.4434 47.5561C65.659 47.9873 65.7884 48.4616 65.7453 48.9791C65.7021 49.2809 65.6159 49.5828 65.4866 49.8415C65.4003 49.9708 65.3141 50.1433 65.1847 50.2295C65.1416 50.2727 65.0985 50.3589 65.0122 50.402C64.926 50.4883 64.8398 50.4883 64.7104 50.5314C64.5379 50.5745 64.3654 50.3589 64.4086 50.1864C64.4517 50.1002 64.4517 50.0139 64.4948 49.9708C64.5379 49.9277 64.581 49.8846 64.6242 49.7983C64.7104 49.7121 64.7535 49.6259 64.7967 49.5396C64.926 49.324 65.0122 49.1084 65.0122 48.8497C65.0554 48.4185 64.9691 47.9873 64.7967 47.5992C64.4948 47.6424 64.193 47.7717 63.9343 47.9011C62.9425 48.3754 61.9507 49.2809 61.4764 50.3158C61.4333 50.5745 61.0452 50.402 61.1746 50.1433Z" fill="#C4311D"/>
<g opacity="0.2">
<path d="M40.3046 62.0444C40.3909 62.26 40.434 62.4756 40.5202 62.6912C40.9945 62.7774 41.512 62.8205 42.0294 62.8636C48.9717 63.5535 55.2672 60.2333 58.8892 54.5847C58.6736 54.1535 58.4149 53.7223 58.0699 53.3342C56.647 51.6094 54.3616 50.6608 52.1625 50.5314C49.9634 50.4021 47.7643 51.0488 45.824 52.0837C43.9698 53.0324 42.2881 54.3691 41.167 56.0938C40.089 57.7755 39.6578 60.0177 40.3046 62.0444Z" fill="#EC372F"/>
<path d="M29.8698 57.9049C29.7835 56.0507 29.5679 54.1966 29.0936 52.3424C28.6193 50.5314 27.8 48.7204 26.5927 47.2112C26.6789 51.48 27.4551 55.1883 29.8698 57.9049Z" fill="#EC372F"/>
</g>
<path d="M40.1753 48.6341C39.0542 48.0304 38.0194 48.8066 35.8634 48.7203C33.7505 48.6341 32.4569 47.9442 32.112 48.3323C31.3358 49.324 32.9744 52.0405 35.9065 52.4286C38.8818 52.7736 41.2533 49.2378 40.1753 48.6341Z" fill="#B22E2E"/>
<path d="M37.3726 49.8414C36.2946 50.3157 35.2166 51.0056 34.3973 51.9974C34.8285 52.213 35.346 52.3423 35.9065 52.4286C38.235 52.7304 40.1754 50.6175 40.4341 49.4102C39.5717 49.0221 38.1919 49.4964 37.3726 49.8414Z" fill="#FF582C"/>
<path d="M35.7339 41.3037C35.6046 41.1312 35.3459 41.1312 35.2596 41.3037C35.044 41.6486 35.0871 42.2523 35.0871 42.6404C35.0871 43.1147 35.0871 43.5459 35.0871 44.0202C35.0871 44.2789 35.0871 44.5376 35.0871 44.7532C35.0871 44.8826 35.1303 45.1844 35.044 45.2707C34.9147 45.4432 34.5266 45.3138 34.3541 45.2276C34.0092 45.0982 33.6211 44.8826 33.233 44.9257C32.8881 44.9688 32.5862 45.1844 32.5 45.5294C32.3706 45.9175 32.5862 46.3056 32.7156 46.6936C32.888 47.0817 33.1468 47.4698 33.4486 47.7716C33.578 47.901 33.7073 47.7285 33.6642 47.5991C33.5348 47.1679 33.3624 46.7799 33.233 46.3487C33.1899 46.2193 33.1036 45.9606 33.1899 45.8312C33.2761 45.745 33.4055 45.745 33.5349 45.7881C33.8798 45.8312 34.2248 46.09 34.5697 46.1762C34.8715 46.2624 35.2165 46.2193 35.4752 46.09C36.1651 45.7019 35.9927 44.667 35.9927 43.934C35.9927 43.5028 35.9927 43.0716 35.9927 42.5973C35.9064 42.2092 35.9495 41.6486 35.7339 41.3037Z" fill="#C4311D"/>
<path d="M40.9514 43.7185C40.9082 44.7534 41.4257 45.5726 42.0725 45.6158C42.7193 45.6589 43.2798 44.8396 43.3229 43.8047C43.3661 42.7699 42.8486 41.9506 42.2018 41.9075C41.5551 41.9075 40.9945 42.6836 40.9514 43.7185Z" fill="black"/>
<path d="M29.8697 43.1148C29.8266 43.9772 30.2577 44.6671 30.7752 44.6671C31.2926 44.6671 31.7669 44.0203 31.7669 43.1579C31.81 42.2955 31.3789 41.6056 30.8614 41.6056C30.344 41.6056 29.9128 42.2955 29.8697 43.1148Z" fill="black"/>
<path d="M43.4954 39.4495C43.4954 39.3633 43.4954 39.3202 43.4523 39.2339C43.3661 38.544 42.9349 37.9835 42.4605 37.5523C42.1156 37.2504 41.6413 36.9486 41.1238 36.7761C40.822 36.6899 40.4771 36.6036 40.1321 36.5174C39.7871 36.4743 39.2266 36.388 38.8816 36.6036C38.666 36.733 38.6229 37.1211 39.011 37.2504C39.399 37.4229 39.7871 37.3798 40.089 37.4229C40.3908 37.466 40.6927 37.5092 40.9945 37.5954C42.0725 37.8972 42.8486 38.6303 43.2367 39.4064C43.2798 39.4927 43.323 39.5358 43.3661 39.5789C43.4954 39.7514 43.4954 39.622 43.4954 39.4495Z" fill="#FF5540"/>
<path d="M30.0853 38.5872C30.0853 38.5009 30.0853 38.4578 30.1284 38.3716C30.2578 37.7248 30.6028 37.2074 30.9908 36.8624C31.2927 36.6037 31.6376 36.3881 32.0257 36.2587C32.2413 36.2156 32.5 36.1725 32.7587 36.1725C33.0174 36.1725 33.4487 36.1725 33.6643 36.4312C33.7936 36.6037 33.7936 36.9486 33.5349 37.078C33.2331 37.1642 32.9743 37.1211 32.7156 37.1211C32.4569 37.1211 32.2413 37.1211 32.0257 37.1642C31.2064 37.2936 30.6027 37.8973 30.2578 38.6303C30.2147 38.7165 30.1715 38.7597 30.1715 38.8028C30.0853 38.8459 30.0853 38.7165 30.0853 38.5872Z" fill="#FF5540"/>
<path d="M29.3091 97.3162C29.3091 95.3327 29.266 93.3492 29.3954 91.3657C29.4385 90.3739 29.4816 89.3822 29.5679 88.3904L29.8266 85.4152C29.9128 84.4234 30.0422 83.4317 30.1715 82.483C30.3009 81.4913 30.4303 80.4995 30.5596 79.5509C30.8615 77.6105 31.2495 75.627 31.6376 73.7297C31.4651 74.7215 31.3789 75.6701 31.2064 76.6619C31.0771 77.6536 30.9046 78.6023 30.7752 79.594C30.689 80.5858 30.5596 81.5775 30.4303 82.5261C30.3009 83.5179 30.1715 84.5097 30.1284 85.4583L29.8266 88.3904C29.7403 89.3822 29.6972 90.3739 29.611 91.3657C29.4816 93.3492 29.4385 95.3327 29.3091 97.3162Z" fill="#FF8C01"/>
</g>
</svg>
