<svg width="116" height="116" viewBox="0 0 116 116" fill="none" xmlns="http://www.w3.org/2000/svg">
<path d="M23.0408 59.9744C26.9938 37.1178 48.7272 21.7933 71.5839 25.7462C94.4405 29.6992 109.765 51.4326 105.812 74.2893C101.859 97.1459 80.1257 112.47 57.269 108.517C34.4124 104.565 19.0879 82.8311 23.0408 59.9744Z" fill="#EBD9C8"/>
<path d="M20.1195 53.7351L16.4436 52.7422C16.1621 52.6662 15.9024 52.6574 15.6648 52.716C15.4239 52.7689 15.2159 52.8921 15.0409 53.0856C14.8659 53.2791 14.7339 53.5408 14.6448 53.8708C14.5616 54.1788 14.5413 54.4636 14.5839 54.7253C14.6277 54.9826 14.7176 55.2004 14.8535 55.3788C14.9906 55.5527 15.1582 55.6664 15.3562 55.7199L15.0264 56.9408C14.7712 56.8719 14.5361 56.7375 14.3209 56.5378C14.1058 56.3381 13.9303 56.0877 13.7945 55.7867C13.6554 55.48 13.5735 55.1369 13.5485 54.7572C13.5204 54.372 13.5646 53.9638 13.681 53.5326C13.8213 53.0135 14.0328 52.5797 14.3158 52.2312C14.5999 51.8784 14.9504 51.6379 15.3674 51.5098C15.7812 51.3761 16.2542 51.3811 16.7866 51.5249L20.1127 52.4233C20.3503 52.4874 20.6086 52.536 20.8877 52.5689C21.168 52.5973 21.4162 52.5959 21.6323 52.5646L21.7379 52.5932L21.3939 53.8668C21.2365 53.8904 21.0364 53.8883 20.7937 53.8605C20.5467 53.8316 20.3219 53.7897 20.1195 53.7351ZM17.0682 52.6843L17.9297 52.9029L17.5964 54.137C17.5025 54.4845 17.4474 54.8024 17.4309 55.0907C17.41 55.3777 17.4296 55.6285 17.4897 55.843C17.5498 56.0574 17.6503 56.2357 17.7914 56.3776C17.928 56.5184 18.1063 56.6185 18.3263 56.6779C18.5507 56.7385 18.7689 56.7431 18.981 56.6919C19.1932 56.6406 19.3815 56.5286 19.5462 56.3559C19.7076 56.1777 19.8288 55.9389 19.9096 55.6398C20.0106 55.2658 20.0205 54.9144 19.9394 54.5857C19.8582 54.2569 19.7258 53.9781 19.5422 53.7491C19.3598 53.5157 19.1625 53.3633 18.9505 53.2919L19.6787 52.9292C19.8552 53.0099 20.0372 53.1487 20.2247 53.3457C20.4123 53.5427 20.5785 53.7835 20.7235 54.0681C20.8653 54.3472 20.9622 54.6613 21.0142 55.0105C21.063 55.3542 21.0351 55.7195 20.9306 56.1067C20.7998 56.5907 20.5906 56.9897 20.3028 57.3038C20.0161 57.6134 19.6871 57.8267 19.3157 57.9435C18.941 58.0547 18.5557 58.0569 18.1597 57.9499C17.777 57.8466 17.4606 57.6809 17.2106 57.4528C16.9563 57.2236 16.7703 56.9421 16.6528 56.6082C16.5308 56.2732 16.4728 55.894 16.4785 55.4707C16.4843 55.0474 16.5531 54.5916 16.685 54.1032L17.0682 52.6843Z" fill="white"/>
<path d="M22.8964 47.873L17.7899 43.1693L18.3707 41.9467L24.8098 48.29C24.9452 48.4299 25.0831 48.5964 25.2235 48.7892C25.3701 48.9799 25.4926 49.1945 25.5912 49.4331C25.6898 49.6717 25.7398 49.9275 25.7413 50.2006C25.7488 50.4716 25.6802 50.7594 25.5355 51.064C25.4924 51.1546 25.4253 51.264 25.3342 51.3922C25.243 51.5204 25.1755 51.6094 25.1316 51.6592L24.2025 51.2254C24.2222 51.1945 24.2508 51.145 24.2882 51.0769C24.3316 51.0068 24.3601 50.9573 24.3738 50.9284C24.497 50.6691 24.5667 50.4323 24.5827 50.2179C24.6029 50.0055 24.562 49.7994 24.4602 49.5996C24.3644 49.3977 24.2001 49.186 23.9673 48.9644L22.8964 47.873ZM16.2588 46.3924L22.2697 47.1212L23.6146 47.3968L23.6443 48.4175L15.6663 47.6397L16.2588 46.3924Z" fill="white"/>
<path d="M20.9173 37.8372L21.6671 36.8188L23.8317 38.5483C24.3807 38.9865 24.8215 39.4101 25.1541 39.8191C25.4868 40.2282 25.7373 40.622 25.9056 41.0006C26.0703 41.3765 26.1742 41.7388 26.2174 42.0875C26.2633 42.4326 26.2726 42.762 26.2453 43.0758L25.8724 43.5822L25.0615 42.9427L25.21 42.7295C25.156 42.503 25.0957 42.2775 25.029 42.0529C24.9586 41.8257 24.854 41.5873 24.715 41.3379C24.5724 41.0858 24.3718 40.8164 24.1131 40.5297C23.8535 40.2367 23.5084 39.9175 23.0778 39.5722L20.9173 37.8372ZM21.1037 37.584L23.7422 34.0003L29.6985 38.3857L28.9487 39.4041L23.9338 35.7118L22.0451 38.277L21.1037 37.584ZM24.8655 43.1974L29.4251 37.0044L32.0179 38.9134L31.2681 39.9318L29.512 38.6389L26.452 42.795L28.2081 44.0879L27.4542 45.1118L24.8655 43.1974Z" fill="white"/>
<path d="M31.7273 33.2988L30.715 26.9979L31.6682 26.1564L36.5633 31.7013L35.6101 32.5428L32.0406 28.4994L33.0529 34.8003L32.11 35.6328L27.2149 30.0879L28.1578 29.2554L31.7273 33.2988Z" fill="white"/>
<path d="M37.3898 26.5882L37.3117 26.4517C37.0469 25.9889 36.8686 25.5212 36.7768 25.0487C36.6828 24.5722 36.6786 24.1152 36.7643 23.6776C36.8478 23.2361 37.0231 22.8313 37.2903 22.4632C37.5552 22.0911 37.9112 21.7772 38.3582 21.5215C38.8091 21.2636 39.2621 21.1147 39.7171 21.0749C40.1739 21.0289 40.6137 21.0818 41.0365 21.2337C41.4611 21.3793 41.8549 21.6134 42.218 21.936C42.5788 22.2546 42.8916 22.6454 43.1563 23.1082L43.2344 23.2447C43.4992 23.7075 43.6774 24.1752 43.7692 24.6477C43.861 25.1202 43.8632 25.5783 43.7758 26.0221C43.6901 26.4597 43.5148 26.8645 43.2499 27.2366C42.9866 27.6024 42.6295 27.9143 42.1786 28.1723C41.7276 28.4303 41.2758 28.5811 40.823 28.6249C40.368 28.6646 39.9282 28.6117 39.5036 28.4661C39.0807 28.3142 38.6889 28.079 38.3281 27.7603C37.9673 27.4417 37.6545 27.051 37.3898 26.5882ZM38.4094 25.8237L38.4875 25.9602C38.6708 26.2806 38.8815 26.5617 39.1196 26.8035C39.3554 27.0414 39.6107 27.2261 39.8855 27.3577C40.1642 27.487 40.4545 27.5493 40.7564 27.5447C41.0559 27.5361 41.358 27.4446 41.6626 27.2704C41.9633 27.0984 42.1912 26.8866 42.3466 26.635C42.5036 26.3771 42.595 26.0964 42.6209 25.7929C42.6467 25.4893 42.6169 25.1756 42.5314 24.8518C42.4476 24.5217 42.314 24.1965 42.1307 23.876L42.0527 23.7396C41.8716 23.4231 41.6612 23.1471 41.4214 22.9115C41.1834 22.6696 40.9249 22.4841 40.6462 22.3548C40.3692 22.2192 40.0797 22.1538 39.7779 22.1585C39.48 22.1609 39.1787 22.2492 38.8741 22.4234C38.5735 22.5954 38.3447 22.8103 38.1876 23.0682C38.0346 23.3237 37.9443 23.6064 37.9167 23.9162C37.8909 24.2198 37.9218 24.5354 38.0096 24.8632C38.0951 25.1871 38.2284 25.5073 38.4094 25.8237Z" fill="white"/>
<path d="M49.3377 21.289L47.0327 22.0479L46.7033 21.0912L48.5863 20.4713C48.9585 20.3487 49.2559 20.21 49.4784 20.0552C49.7053 19.8989 49.8572 19.7265 49.9343 19.538C50.0114 19.3495 50.0143 19.1471 49.943 18.9306C49.8874 18.7618 49.8022 18.6267 49.6873 18.5254C49.5753 18.4184 49.4343 18.3472 49.2644 18.312C49.093 18.2725 48.8949 18.2682 48.6699 18.299C48.4479 18.3242 48.1962 18.383 47.9148 18.4757L46.376 18.9823L48.3684 25.0339L47.1672 25.4294L44.8541 18.4039L47.5942 17.5017C48.04 17.3549 48.4533 17.262 48.8339 17.2231C49.2188 17.1827 49.5632 17.2013 49.867 17.2788C50.1737 17.3505 50.434 17.4855 50.648 17.6837C50.862 17.882 51.0232 18.1456 51.1315 18.4746C51.2013 18.6867 51.2243 18.9022 51.2005 19.1212C51.1766 19.3401 51.1045 19.551 50.9841 19.7538C50.8637 19.9565 50.6959 20.1461 50.4805 20.3226C50.2637 20.4947 49.9994 20.6465 49.6876 20.778L49.3377 21.289ZM50.3553 24.3797L47.6152 25.2819L47.8919 24.1112L50.0346 23.4057C50.3679 23.296 50.6314 23.1637 50.8251 23.0087C51.0174 22.8495 51.142 22.6741 51.1989 22.4826C51.2587 22.2854 51.2523 22.0764 51.1796 21.8557C51.1069 21.6349 50.9886 21.4651 50.8248 21.3464C50.6638 21.2218 50.4594 21.1548 50.2116 21.1452C49.9623 21.1313 49.671 21.1793 49.3377 21.289L47.5132 21.8897L47.2097 20.9245L49.4888 20.1741L50.0436 20.3945C50.4388 20.2979 50.797 20.2856 51.1181 20.3574C51.4392 20.4292 51.7096 20.5656 51.9294 20.7668C52.1477 20.9636 52.3039 21.2048 52.398 21.4905C52.5063 21.8195 52.539 22.1302 52.4961 22.4226C52.4576 22.7135 52.3492 22.9819 52.1711 23.2277C51.9915 23.4692 51.7493 23.688 51.4445 23.8843C51.1382 24.0763 50.7752 24.2415 50.3553 24.3797Z" fill="white"/>
<path d="M57.0394 17.6944L59.2542 17.5208C59.8494 17.4742 60.3597 17.5393 60.7849 17.7163C61.2099 17.8887 61.5411 18.1484 61.7785 18.4955C62.0202 18.8377 62.159 19.2383 62.195 19.6971C62.2217 20.0379 62.1877 20.3628 62.0931 20.6719C61.9981 20.9765 61.8412 21.2494 61.6224 21.4905C61.4081 21.7313 61.1333 21.9288 60.798 22.0831C60.4669 22.2325 60.0787 22.3246 59.6334 22.3595L56.4985 22.6051L55.9207 15.2313L57.1814 15.1325L57.6781 21.4705L59.5522 21.3236C59.9157 21.2951 60.2013 21.2064 60.4091 21.0576C60.6168 20.9088 60.7602 20.7261 60.8393 20.5096C60.9183 20.2932 60.9489 20.0713 60.9311 19.8442C60.9137 19.6215 60.8489 19.4072 60.7367 19.2011C60.6246 18.9951 60.454 18.8302 60.2248 18.7064C59.9954 18.5781 59.6989 18.5282 59.3354 18.5567L57.1205 18.7302L57.0394 17.6944ZM64.4327 14.5642L65.0105 21.9381L63.7497 22.0369L63.1719 14.663L64.4327 14.5642Z" fill="white"/>
<path d="M71.3064 19.0867L69.961 18.886L70.076 18.1152L71.32 18.3008C71.6671 18.3526 71.9484 18.3508 72.164 18.2954C72.3803 18.2355 72.543 18.1331 72.6522 17.9881C72.7614 17.8431 72.8318 17.6647 72.8634 17.4529C72.8916 17.2636 72.8686 17.0781 72.7943 16.8966C72.7252 16.7112 72.5925 16.5508 72.3961 16.4155C72.2004 16.2758 71.9245 16.1793 71.5684 16.1262C71.2799 16.0831 71.0108 16.096 70.7609 16.1647C70.5117 16.2289 70.3042 16.3385 70.1382 16.4934C69.9774 16.6445 69.8809 16.8282 69.8486 17.0446L68.5978 16.858C68.6644 16.4118 68.8478 16.0475 69.1479 15.7651C69.4532 15.4789 69.8309 15.2795 70.2808 15.1669C70.7352 15.055 71.2149 15.0367 71.7197 15.112C72.1434 15.1752 72.5149 15.279 72.8344 15.4235C73.159 15.564 73.425 15.742 73.6325 15.9572C73.8407 16.168 73.9858 16.4154 74.0678 16.6995C74.155 16.9797 74.1727 17.2934 74.1209 17.6405C74.084 17.8884 73.9904 18.114 73.8403 18.3174C73.6901 18.5208 73.4918 18.6916 73.2454 18.83C72.9997 18.9638 72.712 19.0545 72.3823 19.1021C72.0572 19.1504 71.6986 19.1452 71.3064 19.0867ZM70.0316 18.4127L71.377 18.6135C71.8143 18.6787 72.1932 18.779 72.514 18.9144C72.8355 19.0453 73.0968 19.2087 73.2979 19.4046C73.4991 19.6005 73.6382 19.8262 73.7152 20.082C73.7975 20.3338 73.8157 20.613 73.77 20.9195C73.7189 21.2621 73.603 21.5604 73.4222 21.8145C73.2466 22.0648 73.0185 22.2658 72.7379 22.4174C72.4572 22.5691 72.1337 22.6682 71.7673 22.715C71.4055 22.7623 71.0127 22.7544 70.589 22.6912C70.1157 22.6206 69.6681 22.4709 69.246 22.2421C68.824 22.0132 68.494 21.7083 68.2559 21.3272C68.0186 20.9416 67.9392 20.4851 68.0179 19.9577L69.2687 20.1443C69.2357 20.3652 69.2743 20.5852 69.3845 20.8044C69.4946 21.0235 69.6646 21.2125 69.8943 21.3712C70.1286 21.5305 70.4102 21.6347 70.7393 21.6838C71.0909 21.7363 71.3919 21.7259 71.6424 21.6527C71.893 21.5795 72.0903 21.4615 72.2344 21.2986C72.383 21.1365 72.4731 20.9495 72.5047 20.7377C72.5457 20.4627 72.5245 20.2338 72.4412 20.0509C72.3579 19.8679 72.2093 19.7214 71.9954 19.6111C71.7866 19.497 71.5087 19.4141 71.1616 19.3623L69.9176 19.1767L70.0316 18.4127Z" fill="white"/>
<path d="M77.5571 20.1992L77.6097 20.051C77.7878 19.5485 78.026 19.1083 78.3243 18.7305C78.6241 18.3484 78.9677 18.0472 79.3553 17.8267C79.7444 17.602 80.1656 17.4708 80.6189 17.4332C81.0737 17.3914 81.5438 17.4564 82.0292 17.6285C82.5189 17.802 82.9272 18.0483 83.2542 18.3672C83.587 18.6834 83.8337 19.0513 83.9945 19.4709C84.161 19.8877 84.2404 20.3389 84.2327 20.8245C84.2265 21.3058 84.1344 21.7978 83.9563 22.3003L83.9037 22.4485C83.7256 22.9511 83.4874 23.3913 83.1891 23.7691C82.8909 24.1469 82.545 24.4474 82.1516 24.6706C81.7641 24.891 81.3429 25.0222 80.888 25.064C80.439 25.1031 79.9697 25.0359 79.48 24.8624C78.9903 24.6888 78.5812 24.4447 78.2528 24.1301C77.9258 23.8111 77.6791 23.4432 77.5125 23.0264C77.3518 22.6068 77.2745 22.1564 77.2807 21.6751C77.2869 21.1938 77.379 20.7018 77.5571 20.1992ZM78.8017 20.4735L78.7491 20.6217C78.6258 20.9696 78.5502 21.3127 78.5222 21.6509C78.4957 21.9848 78.5222 22.2988 78.6017 22.5929C78.6855 22.8885 78.8276 23.1492 79.028 23.375C79.23 23.5964 79.4963 23.7658 79.8271 23.883C80.1536 23.9987 80.4628 24.0333 80.7548 23.987C81.0527 23.9378 81.3251 23.824 81.5721 23.6456C81.819 23.4672 82.0373 23.24 82.227 22.9639C82.4226 22.6851 82.582 22.3717 82.7053 22.0238L82.7578 21.8756C82.8796 21.5319 82.9516 21.1924 82.9738 20.857C83.0018 20.5188 82.9739 20.2019 82.8901 19.9062C82.8121 19.6079 82.6729 19.3458 82.4725 19.12C82.2763 18.8958 82.0129 18.7251 81.6821 18.6078C81.3557 18.4921 81.0435 18.4589 80.7457 18.508C80.4521 18.5587 80.1789 18.6746 79.9262 18.8558C79.6792 19.0342 79.4601 19.2636 79.2689 19.544C79.0792 19.82 78.9234 20.1299 78.8017 20.4735Z" fill="white"/>
<path d="M89.3519 25.8011L87.2723 24.5504L87.782 23.6763L89.4809 24.6981C89.8167 24.9 90.1159 25.0348 90.3785 25.1023C90.6449 25.1721 90.8747 25.1747 91.0678 25.11C91.2609 25.0454 91.4162 24.9154 91.5336 24.7201C91.6252 24.5678 91.6719 24.4151 91.6736 24.2619C91.6816 24.1071 91.6435 23.9539 91.5592 23.8022C91.4773 23.6466 91.3513 23.4937 91.181 23.3434C91.0171 23.1916 90.8082 23.0394 90.5543 22.8867L89.1659 22.0517L85.8823 27.5114L84.7986 26.8597L88.6107 20.5212L91.0828 22.008C91.485 22.2499 91.8251 22.5023 92.1031 22.7652C92.385 23.0305 92.5957 23.3035 92.7353 23.5842C92.8812 23.8634 92.9489 24.1487 92.9384 24.4402C92.928 24.7318 92.8335 25.0259 92.655 25.3227C92.5399 25.5141 92.3916 25.6722 92.2101 25.7971C92.0287 25.9219 91.8219 26.0049 91.5897 26.0461C91.3575 26.0873 91.1043 26.0839 90.83 26.036C90.5581 25.9841 90.2706 25.883 89.9675 25.7326L89.3519 25.8011ZM87.6749 28.5895L85.2028 27.1028L86.2702 26.5482L88.2034 27.7108C88.5041 27.8917 88.7763 28.0049 89.0201 28.0505C89.2663 28.0922 89.4805 28.0721 89.6627 27.9902C89.8511 27.9068 90.0052 27.7655 90.125 27.5663C90.2448 27.3671 90.2962 27.1667 90.2792 26.965C90.2685 26.7618 90.1859 26.5632 90.0313 26.3692C89.8791 26.1713 89.6526 25.982 89.3519 25.8011L87.7058 24.8111L88.239 23.9511L90.2951 25.1878L90.4903 25.7519C90.8215 25.9883 91.0647 26.2515 91.2199 26.5416C91.3751 26.8318 91.4483 27.1257 91.4394 27.4235C91.4328 27.7173 91.352 27.9932 91.197 28.2509C91.0185 28.5477 90.8045 28.7753 90.555 28.9337C90.3094 29.0945 90.0354 29.1876 89.7329 29.2131C89.4327 29.2346 89.1088 29.194 88.7611 29.0913C88.4158 28.9846 88.0537 28.8174 87.6749 28.5895Z" fill="white"/>
</svg>
