<svg width="122" height="171" viewBox="0 0 122 171" fill="none" xmlns="http://www.w3.org/2000/svg">
<path d="M7.83792 12.9732L9.8727 22.2627L8.27579 22.6125L6.24101 13.323L7.83792 12.9732ZM10.9545 12.2906L11.2365 13.5784L3.46666 15.2803L3.18457 13.9925L10.9545 12.2906Z" fill="white"/>
<path d="M19.8581 16.6461L16.7464 16.8755L16.6332 15.5796L19.1751 15.3921C19.6777 15.3551 20.0918 15.2746 20.4176 15.1507C20.7492 15.0263 20.9924 14.8586 21.1472 14.6474C21.302 14.4362 21.3686 14.1846 21.3471 13.8924C21.3303 13.6645 21.266 13.4695 21.1541 13.3073C21.0477 13.1389 20.894 13.0063 20.693 12.9095C20.4915 12.8069 20.2457 12.7398 19.9555 12.7083C19.6707 12.6706 19.3383 12.6657 18.9585 12.6937L16.8811 12.8469L17.4836 21.0161L15.862 21.1357L15.1626 11.6517L18.8616 11.3789C19.4634 11.3345 20.0078 11.3473 20.4948 11.4171C20.9875 11.4865 21.4113 11.6168 21.7662 11.8081C22.1265 11.993 22.4093 12.2424 22.6146 12.5563C22.8198 12.8702 22.9389 13.2491 22.9716 13.6933C22.9927 13.9796 22.9543 14.2556 22.8564 14.5214C22.7585 14.7871 22.6029 15.0277 22.3897 15.2432C22.1764 15.4587 21.908 15.643 21.5844 15.7961C21.2604 15.9434 20.8835 16.0505 20.4536 16.1174L19.8581 16.6461ZM20.1658 20.8183L16.4668 21.0911L17.1763 19.7169L20.0688 19.5035C20.5188 19.4704 20.8887 19.3873 21.1785 19.2543C21.4679 19.1154 21.6779 18.9354 21.8084 18.7143C21.9444 18.4869 22.0014 18.2241 21.9795 17.9261C21.9575 17.6281 21.8628 17.3795 21.6953 17.1804C21.5333 16.9749 21.2992 16.8277 20.993 16.7386C20.6863 16.6437 20.308 16.6129 19.8581 16.6461L17.395 16.8277L17.3169 15.5292L20.3935 15.3023L21.017 15.7498C21.5401 15.7524 21.9907 15.8484 22.369 16.0379C22.7472 16.2274 23.0421 16.4818 23.2537 16.801C23.4648 17.1145 23.5846 17.464 23.613 17.8497C23.6458 18.2938 23.5899 18.6916 23.4455 19.043C23.3068 19.394 23.0882 19.6951 22.7894 19.9462C22.4902 20.1916 22.12 20.3893 21.6787 20.5393C21.2369 20.6835 20.7326 20.7765 20.1658 20.8183Z" fill="white"/>
<path d="M27.6922 15.8714L27.7095 15.67C27.7679 14.9869 27.9214 14.362 28.1698 13.7952C28.4187 13.2225 28.7485 12.7361 29.1591 12.3361C29.5702 11.9302 30.0516 11.6303 30.6034 11.4364C31.1556 11.2367 31.7616 11.165 32.4213 11.2215C33.0868 11.2784 33.6747 11.4522 34.185 11.7429C34.7016 12.0282 35.128 12.4057 35.4642 12.8756C35.8067 13.34 36.052 13.8756 36.2 14.4822C36.3486 15.083 36.3936 15.7249 36.3352 16.408L36.318 16.6094C36.2595 17.2924 36.1061 17.9174 35.8576 18.4842C35.6092 19.051 35.2765 19.5371 34.8596 19.9425C34.449 20.3426 33.9675 20.6425 33.4153 20.8422C32.8694 21.0366 32.2637 21.1053 31.5981 21.0484C30.9326 20.9915 30.3444 20.8206 29.8337 20.5358C29.3234 20.2451 28.897 19.8675 28.5545 19.4031C28.2183 18.9332 27.9759 18.3979 27.8274 17.7971C27.6789 17.1964 27.6338 16.5544 27.6922 15.8714ZM29.3295 15.8086L29.3123 16.01C29.2718 16.4829 29.2891 16.9342 29.364 17.3641C29.4395 17.7881 29.5744 18.1701 29.7688 18.5102C29.969 18.8507 30.2304 19.1289 30.553 19.3447C30.8762 19.5547 31.2625 19.6789 31.712 19.7173C32.1557 19.7553 32.5517 19.698 32.8999 19.5455C33.2545 19.3877 33.5565 19.1577 33.8058 18.8556C34.0551 18.5535 34.253 18.1999 34.3994 17.7949C34.5521 17.3845 34.6487 16.9429 34.6891 16.47L34.7064 16.2686C34.7463 15.8016 34.7257 15.3558 34.6444 14.9313C34.5694 14.5015 34.4318 14.1163 34.2316 13.7757C34.0377 13.4298 33.7795 13.149 33.4569 12.9332C33.1401 12.7179 32.7569 12.591 32.3074 12.5525C31.8637 12.5146 31.4646 12.5745 31.11 12.7324C30.7612 12.8907 30.459 13.1236 30.2034 13.4311C29.954 13.7332 29.7559 14.0897 29.6091 14.5005C29.4627 14.9055 29.3695 15.3415 29.3295 15.8086Z" fill="white"/>
<path d="M41.8497 19.7397L47.7666 14.0552L49.3539 14.4461L47.0797 23.6799L45.4924 23.289L47.1507 16.5556L41.2339 22.2402L39.6636 21.8534L41.9378 12.6196L43.5081 13.0063L41.8497 19.7397ZM47.7286 10.4975L49.0087 10.8128C48.8994 11.2566 48.6996 11.6268 48.4093 11.9234C48.1204 12.2143 47.7615 12.4095 47.3327 12.5091C46.9039 12.6086 46.4278 12.594 45.9043 12.465C45.1135 12.2703 44.5395 11.9056 44.1824 11.3711C43.8323 10.8323 43.74 10.2272 43.9053 9.5559L45.1854 9.87118C45.1028 10.2068 45.1266 10.5265 45.257 10.8302C45.3874 11.1338 45.6858 11.3431 46.1524 11.458C46.6075 11.5701 46.9633 11.522 47.2198 11.3136C47.4763 11.1052 47.6459 10.8332 47.7286 10.4975Z" fill="white"/>
<path d="M66.2278 21.4338L65.6168 22.6317L61.5221 20.543L62.1331 19.3451L66.2278 21.4338ZM67.504 22.0848L63.1828 30.5561L61.7344 29.8172L66.0556 21.346L67.504 22.0848ZM61.7808 19.1654L63.237 19.9082L60.9331 23.8833C60.5744 24.4962 60.2295 25.0241 59.8984 25.4669C59.5751 25.9072 59.2552 26.2636 58.9385 26.5362C58.6271 26.8114 58.3111 27.0054 57.9905 27.1182C57.6777 27.2283 57.3512 27.2624 57.0109 27.2203C56.6732 27.1731 56.3165 27.0536 55.9407 26.8619L55.4866 26.6303L56.1376 25.3541L56.4627 25.4903C56.6952 25.5892 56.9123 25.6342 57.1141 25.6253C57.3212 25.6191 57.5235 25.5578 57.7209 25.4415C57.9211 25.32 58.1256 25.1382 58.3346 24.8961C58.5488 24.6568 58.7713 24.3559 59.0022 23.9935C59.2383 23.6338 59.496 23.2061 59.7751 22.7105L61.7808 19.1654Z" fill="white"/>
<path d="M69.7056 31.6432L77.3289 28.6088L78.6517 29.5694L73.0641 37.2644L71.7413 36.3039L75.8158 30.6926L68.1924 33.7269L66.8839 32.7767L72.4715 25.0817L73.7801 26.0319L69.7056 31.6432Z" fill="white"/>
<path d="M88.0224 38.1994L81.3461 44.9716L80.1882 43.8301L86.8644 37.0579L88.0224 38.1994ZM84.5614 40.9214L83.6235 41.8727C83.3034 41.73 82.9874 41.5748 82.6755 41.4072C82.3718 41.2394 82.0659 41.0448 81.7577 40.8233C81.4578 40.6017 81.1535 40.3387 80.8447 40.0343C80.3106 39.5077 79.938 38.9593 79.7267 38.3891C79.5196 37.8146 79.4948 37.2347 79.6522 36.6494C79.8137 36.0599 80.1783 35.4772 80.746 34.9014L82.6958 32.9236L83.8537 34.0651L81.9039 36.0429C81.5337 36.4185 81.2897 36.7786 81.172 37.1233C81.0543 37.4681 81.0484 37.8037 81.1543 38.1303C81.2644 38.4527 81.4758 38.7681 81.7888 39.0766C82.0892 39.3728 82.3894 39.6317 82.6893 39.8533C82.9975 40.0749 83.3055 40.2715 83.6133 40.4434C83.9253 40.6193 84.2413 40.7786 84.5614 40.9214Z" fill="white"/>
<path d="M92.0059 49.6549L90.9515 50.4463L87.9338 46.4254L88.9882 45.634L92.0059 49.6549ZM92.4908 43.4338L84.8849 49.1422L83.9088 47.8418L91.5147 42.1334L92.4908 43.4338ZM96.0941 48.235L88.4882 53.9434L87.5069 52.6359L95.1128 46.9275L96.0941 48.235Z" fill="white"/>
<path d="M97.1256 55.9777L98.3989 58.5347C98.7411 59.2218 98.909 59.8615 98.9028 60.4537C98.9019 61.0432 98.7517 61.5631 98.4522 62.0134C98.1606 62.4662 97.7499 62.8245 97.2202 63.0883C96.8268 63.2842 96.4231 63.4002 96.009 63.4362C95.6002 63.4696 95.1993 63.4139 94.8065 63.2691C94.4163 63.1296 94.0485 62.8971 93.7031 62.5716C93.3656 62.2488 93.0689 61.8303 92.8129 61.3163L91.0108 57.6972L99.5235 53.4582L100.248 54.9137L92.9314 58.5572L94.0088 60.7208C94.2178 61.1404 94.461 61.4382 94.7384 61.6142C95.0159 61.7903 95.3027 61.8733 95.5988 61.8633C95.895 61.8533 96.1741 61.783 96.4364 61.6524C96.6934 61.5244 96.9177 61.344 97.1094 61.1111C97.3011 60.8782 97.4155 60.5953 97.4528 60.2626C97.4952 59.9273 97.412 59.5498 97.2031 59.1302L95.9298 56.5732L97.1256 55.9777ZM104.417 63.2848L95.9041 67.5238L95.1793 66.0683L103.692 61.8293L104.417 63.2848Z" fill="white"/>
<path d="M100.209 72.2094L108.097 74.4678L108.557 76.0366L99.4308 78.7111L98.971 77.1424L105.626 75.1921L97.7376 72.9336L97.2828 71.3817L106.409 68.7072L106.864 70.2591L100.209 72.2094ZM111.154 72.647L111.524 73.9121C111.086 74.0407 110.665 74.054 110.263 73.9521C109.866 73.8485 109.517 73.6364 109.216 73.3157C108.914 72.995 108.687 72.576 108.536 72.0587C108.307 71.2771 108.333 70.5976 108.616 70.0202C108.906 69.4468 109.383 69.0629 110.046 68.8684L110.417 70.1336C110.085 70.2308 109.821 70.4121 109.624 70.6774C109.427 70.9427 109.396 71.3059 109.531 71.767C109.663 72.2169 109.883 72.5003 110.192 72.6173C110.501 72.7343 110.822 72.7442 111.154 72.647Z" fill="white"/>
<path d="M102.279 90.9615L110.968 93.006L111.09 94.742L99.8729 91.7025C99.633 91.6311 99.3734 91.5318 99.0943 91.4045C98.8098 91.2834 98.537 91.1204 98.276 90.9154C98.015 90.7105 97.7975 90.4555 97.6234 90.1505C97.444 89.8517 97.3391 89.4861 97.3089 89.0535C97.2999 88.9249 97.306 88.7601 97.3271 88.5589C97.3483 88.3577 97.3677 88.2154 97.3854 88.1319L98.6999 88.0312C98.6974 88.0783 98.6966 88.1518 98.6977 88.2516C98.6934 88.3576 98.6926 88.4311 98.6955 88.472C98.7212 88.8403 98.7928 89.1495 98.9101 89.3997C99.0216 89.6504 99.1975 89.8554 99.4377 90.0148C99.6725 90.1805 99.9902 90.3139 100.391 90.4152L102.279 90.9615ZM110.648 88.4293L103.456 91.4079L101.776 91.9483L101.098 90.8239L110.525 86.6582L110.648 88.4293Z" fill="white"/>
<path d="M110.588 105.964L101.099 105.331L101.207 103.709L110.696 104.341L110.588 105.964ZM106.266 105.121L104.933 105.032C104.832 104.696 104.743 104.355 104.666 104.01C104.595 103.67 104.543 103.311 104.509 102.933C104.481 102.562 104.481 102.159 104.51 101.727C104.56 100.978 104.732 100.338 105.026 99.8056C105.326 99.2736 105.749 98.876 106.295 98.613C106.846 98.3503 107.526 98.2458 108.333 98.2996L111.104 98.4844L110.996 100.107L108.224 99.922C107.698 99.8869 107.266 99.9374 106.928 100.073C106.59 100.209 106.332 100.424 106.154 100.718C105.982 101.012 105.881 101.378 105.852 101.816C105.824 102.237 105.824 102.634 105.852 103.005C105.885 103.383 105.938 103.745 106.009 104.09C106.079 104.442 106.165 104.785 106.266 105.121Z" fill="white"/>
<path d="M99.5831 112.824C99.7224 112.177 99.9575 111.613 100.289 111.133C100.624 110.66 101.033 110.277 101.515 109.985C101.997 109.699 102.534 109.515 103.127 109.433C103.72 109.351 104.343 109.38 104.996 109.521L105.357 109.598C106.113 109.761 106.762 110.018 107.304 110.368C107.851 110.72 108.29 111.132 108.62 111.604C108.95 112.077 109.168 112.579 109.276 113.112C109.383 113.644 109.38 114.171 109.268 114.692C109.125 115.357 108.887 115.905 108.555 116.337C108.221 116.775 107.814 117.104 107.335 117.324C106.862 117.546 106.332 117.672 105.744 117.701C105.162 117.732 104.544 117.677 103.891 117.536L103.178 117.383L104.672 110.44L105.97 110.719L104.818 116.072L104.938 116.098C105.355 116.164 105.775 116.164 106.196 116.099C106.617 116.04 106.987 115.88 107.307 115.619C107.626 115.358 107.845 114.956 107.962 114.411C108.04 114.05 108.034 113.702 107.945 113.365C107.861 113.029 107.694 112.72 107.443 112.439C107.192 112.157 106.864 111.91 106.46 111.697C106.057 111.484 105.574 111.317 105.013 111.197L104.652 111.119C104.211 111.024 103.783 110.995 103.367 111.031C102.956 111.075 102.579 111.182 102.237 111.354C101.893 111.532 101.602 111.772 101.363 112.074C101.123 112.382 100.956 112.754 100.862 113.189C100.741 113.751 100.754 114.251 100.899 114.69C101.044 115.128 101.277 115.535 101.598 115.91L100.626 116.708C100.366 116.442 100.131 116.125 99.9231 115.756C99.7147 115.388 99.5733 114.959 99.4988 114.469C99.4231 113.985 99.4512 113.437 99.5831 112.824Z" fill="white"/>
<path d="M108.73 130.03L108.266 131.283C107.727 131.083 107.33 130.842 107.072 130.559C106.82 130.278 106.662 129.963 106.597 129.614C106.531 129.271 106.52 128.904 106.565 128.514C106.607 128.13 106.658 127.733 106.716 127.324C106.792 126.815 106.799 126.317 106.735 125.831C106.675 125.353 106.507 124.896 106.23 124.463C105.952 124.034 105.53 123.637 104.966 123.272C104.399 122.912 103.652 122.594 102.723 122.318L101.965 122.037L102.429 120.784L103.188 121.065C104.204 121.442 105.055 121.868 105.742 122.341C106.427 122.82 106.964 123.335 107.354 123.886C107.743 124.436 108.001 125.013 108.127 125.616C108.251 126.225 108.261 126.847 108.157 127.483C108.08 127.942 108.031 128.343 108.011 128.685C107.995 129.029 108.041 129.312 108.146 129.532C108.25 129.758 108.445 129.924 108.73 130.03ZM105.008 126.596C104.792 127.179 104.497 127.66 104.125 128.041C103.753 128.421 103.326 128.704 102.845 128.888C102.365 129.072 101.846 129.155 101.291 129.136C100.739 129.125 100.174 129.013 99.5974 128.799L99.4161 128.731C98.7953 128.501 98.2521 128.197 97.7865 127.818C97.3243 127.446 96.9596 127.014 96.6924 126.521C96.4287 126.036 96.2787 125.505 96.2423 124.93C96.2039 124.359 96.3009 123.761 96.5332 123.134C96.7655 122.508 97.0832 121.989 97.4863 121.576C97.8874 121.168 98.3472 120.864 98.8656 120.662C99.3895 120.463 99.9488 120.37 100.543 120.385C101.142 120.407 101.751 120.533 102.372 120.763L102.553 120.83C102.69 120.881 102.816 120.956 102.929 121.054C103.043 121.152 103.155 121.263 103.266 121.385C103.375 121.513 103.495 121.636 103.626 121.753C104.045 122.14 104.401 122.587 104.694 123.096C104.984 123.61 105.167 124.162 105.242 124.752C105.32 125.35 105.242 125.965 105.008 126.596ZM103.873 125.838C104.081 125.278 104.123 124.768 104 124.31C103.874 123.857 103.629 123.463 103.266 123.129C102.908 122.796 102.482 122.538 101.988 122.355L101.806 122.287C101.389 122.133 100.975 122.035 100.565 121.996C100.154 121.956 99.767 121.981 99.4025 122.071C99.0414 122.168 98.7214 122.34 98.4425 122.586C98.1616 122.838 97.9426 123.176 97.7857 123.599C97.6288 124.022 97.5757 124.418 97.6264 124.787C97.6771 125.155 97.8086 125.492 98.021 125.795C98.2388 126.101 98.5161 126.373 98.853 126.61C99.1899 126.848 99.5671 127.044 99.9846 127.199L100.166 127.266C100.539 127.405 100.912 127.487 101.284 127.512C101.656 127.537 102.008 127.496 102.342 127.389C102.674 127.287 102.972 127.107 103.236 126.849C103.504 126.598 103.716 126.261 103.873 125.838Z" fill="white"/>
<path d="M95.6531 137.953L94.4989 137.315L96.9286 132.914L98.0827 133.551L95.6531 137.953ZM101.526 135.844L93.2004 131.248L93.9862 129.824L102.312 134.42L101.526 135.844ZM98.6247 141.099L90.2992 136.503L91.0893 135.072L99.4148 139.668L98.6247 141.099Z" fill="white"/>
<path d="M88.9968 142.987L91.7793 150.706L90.7758 151.996L83.2684 146.159L84.2718 144.869L89.7463 149.125L86.9639 141.406L87.9565 140.13L95.464 145.967L94.4713 147.244L88.9968 142.987Z" fill="white"/>
<path d="M85.7617 157.354L79.2152 150.456L80.3945 149.337L86.9411 156.235L85.7617 157.354ZM81.2355 161.65L80.7546 154.593L82.4057 153.026L83.5644 153.89L82.2129 155.172L82.6699 160.288L81.2355 161.65ZM75.9576 153.548L81.4595 154.264L81.5116 155.838L74.4594 154.97L75.9576 153.548Z" fill="white"/>
</svg>
