<svg width="172" height="390" viewBox="0 0 172 390" fill="none" xmlns="http://www.w3.org/2000/svg">
<path opacity="0.1" d="M86.4587 390C39.2155 390 0.917389 385.575 0.917389 380.116C0.917389 374.657 39.2155 370.232 86.4587 370.232C133.702 370.232 172 374.657 172 380.116C172 385.575 133.702 390 86.4587 390Z" fill="#B22E2E"/>
<path d="M96.3429 142.528C94.2685 139.477 70.229 135.329 46.9218 137.891C23.6145 140.454 18.8554 163.395 18.8554 181.943C18.8554 200.491 15.3167 244.177 22.7603 250.767C30.204 257.478 93.9024 259.675 101.712 251.499C109.522 243.323 111.23 165.347 96.3429 142.528Z" fill="#CF1E26"/>
<path d="M34.719 141.918C36.4274 143.26 38.0138 145.091 39.2341 147.165C42.0407 152.168 43.0169 158.27 43.505 164.127C44.6033 177.794 45.0914 191.583 45.2134 205.25C45.3354 212.328 45.2134 219.283 44.8473 226.361C44.6033 230.632 44.3592 234.781 43.7491 238.93C43.1389 242.957 42.1627 246.862 40.2103 250.278C39.112 252.231 37.6477 253.695 36.0613 254.671C29.5939 253.695 24.7128 252.353 22.8824 250.767C15.4387 244.055 18.9775 200.491 18.9775 181.943C18.8554 167.3 21.9061 149.85 34.719 141.918Z" fill="#EE4C36"/>
<path d="M125.508 147.775C125.508 147.775 162.238 176.818 164.068 189.387C165.899 201.834 138.198 238.808 138.198 238.808L125.508 147.775Z" fill="#FFD996"/>
<path opacity="0.5" d="M128.192 150.094C128.192 150.216 128.192 150.338 128.192 150.46C129.779 163.029 135.148 174.621 141.371 185.604C144.422 190.973 147.473 196.464 150.889 201.59C152.476 204.03 154.306 206.349 156.136 208.667C156.381 209.033 156.747 209.277 156.991 209.643C149.303 223.798 137.954 238.808 137.954 238.808L125.386 147.775C125.508 147.775 126.484 148.63 128.192 150.094Z" fill="#FFD996"/>
<path d="M137.466 201.834C138.198 200.857 139.053 199.881 139.907 198.905C140.151 198.417 140.517 197.807 140.761 197.319C141.127 196.708 141.493 196.098 141.981 195.366C142.713 194.146 143.446 192.803 144.422 191.583C144.544 191.339 144.91 191.583 144.788 191.827C144.178 193.17 143.202 194.39 142.469 195.732C142.103 196.22 141.737 196.83 141.493 197.319C142.347 196.586 143.08 195.854 143.934 195.122C146.252 193.292 148.937 191.461 151.866 190.485C152.11 190.363 152.354 190.851 152.11 190.973C150.767 191.705 149.547 192.315 148.205 193.048C146.862 193.78 145.642 194.756 144.422 195.61C141.981 197.441 139.907 199.637 137.954 201.956C137.71 202.444 137.344 202.078 137.466 201.834Z" fill="#C78E23"/>
<path d="M56.0738 241.37C72.4255 243.201 88.8992 243.445 105.251 242.591C114.769 242.103 124.531 241.126 133.805 238.686C133.561 260.163 132.463 279.565 131.121 288.717C127.704 312.879 122.213 365.717 122.213 365.717H93.9024C94.0244 343.263 97.9293 258.088 96.0989 257.722C94.2684 257.356 91.9499 257.478 88.045 259.675C82.7979 262.481 64.9818 365.717 64.9818 365.717H36.9155C39.4781 341.189 50.4606 265.898 53.5113 241.248C54.4875 241.248 55.2196 241.37 56.0738 241.37Z" fill="#FFA672"/>
<path d="M127.948 313.977C125.385 314.465 122.823 314.953 120.138 315.319C113.061 316.295 105.861 316.906 98.7834 317.516C97.5631 317.638 96.4649 317.638 95.2446 317.76C96.2208 288.473 97.1971 257.966 96.0988 257.722C94.2684 257.356 91.9499 257.478 88.045 259.675C85.2384 261.139 79.015 290.792 73.6457 318.37C63.5175 318.126 53.3892 317.15 43.3829 315.807C47.2878 287.131 51.8028 255.648 53.6332 241.248C54.3654 241.37 55.2196 241.37 55.9518 241.492C72.3034 243.323 88.7772 243.567 105.129 242.713C114.647 242.225 124.409 241.248 133.683 238.808C133.439 260.285 132.341 279.687 130.999 288.839C130.267 295.429 129.046 304.459 127.948 313.977Z" fill="#B22E2E"/>
<path d="M122.701 364.374C121.725 363.886 95.0006 364.374 93.7803 364.74C92.438 365.106 89.7534 376.577 91.2178 379.14C92.438 381.336 129.778 379.628 138.931 379.262C140.029 379.262 140.761 378.041 140.273 377.065C139.297 375.113 136.978 372.306 132.463 369.377C125.141 364.496 122.701 364.374 122.701 364.374Z" fill="#CF1E26"/>
<path d="M122.457 377.919C123.433 375.235 124.653 372.794 126.362 370.598C127.216 369.499 128.07 368.401 129.046 367.425C129.168 367.303 129.168 367.303 129.29 367.181C130.267 367.791 131.365 368.401 132.585 369.255C137.1 372.184 139.419 374.991 140.395 376.943C140.883 377.919 140.151 379.018 139.053 379.14C135.88 379.262 129.29 379.628 121.969 379.872C122.091 379.14 122.213 378.529 122.457 377.919Z" fill="#FFD9C4"/>
<path d="M65.4699 364.374C64.4937 363.886 37.7697 364.374 36.5494 364.74C35.2071 365.106 32.5225 376.577 33.9868 379.14C35.2071 381.336 72.5475 379.628 81.6996 379.262C82.7978 379.262 83.53 378.041 83.0419 377.065C82.0657 375.113 79.7471 372.306 75.2321 369.377C67.9105 364.496 65.4699 364.374 65.4699 364.374Z" fill="#CF1E26"/>
<path d="M69.1307 372.184C70.229 370.598 71.5713 369.255 72.9136 367.913C73.6458 368.279 74.3779 368.767 75.2321 369.377C79.7471 372.306 82.0657 375.113 83.0419 377.065C83.53 378.041 82.7978 379.14 81.6996 379.262C78.6489 379.384 72.3035 379.75 65.3479 379.872C66.2021 377.065 67.4224 374.502 69.1307 372.184Z" fill="#FFD9C4"/>
<path d="M35.8172 304.459C35.8172 304.459 37.4036 307.265 42.6508 309.462C42.8948 309.584 43.1389 309.706 43.505 309.828C46.9217 311.17 51.6808 312.268 58.3923 312.39C76.3304 312.757 86.4587 309.462 86.4587 309.462C86.4587 309.462 90.1195 290.304 92.56 286.887C92.8041 286.521 93.0481 286.399 93.2922 286.399C93.4142 286.399 93.4142 286.521 93.5362 286.521C95.2446 288.473 90.1195 309.95 90.1195 309.95C90.1195 309.95 100.126 311.78 112.939 310.56C125.874 309.462 140.761 306.655 140.761 306.655C140.761 306.655 141.493 302.506 142.347 286.887C142.713 278.833 142.347 266.02 141.859 255.526C141.859 255.16 141.859 254.793 141.859 254.305C141.493 244.787 141.005 237.466 141.005 237.466H139.541C139.297 237.466 137.1 237.588 133.439 237.588C133.195 237.588 132.829 237.588 132.585 237.588C126.24 237.71 116.233 238.076 105.251 238.32C105.007 238.32 104.763 238.32 104.641 238.32C103.542 238.32 102.566 238.442 101.468 238.442C101.224 238.442 100.98 238.442 100.736 238.442C91.7058 238.686 82.3097 238.93 74.0118 239.174C73.6458 239.174 73.4017 239.174 73.0356 239.174C64.6157 239.418 57.4161 239.662 53.2672 239.784C52.9011 239.784 52.535 239.784 52.1689 239.784C50.2165 239.784 49.1182 239.906 49.1182 239.906C46.3116 247.35 35.8172 304.459 35.8172 304.459Z" fill="#90D3C7"/>
<path d="M42.5288 309.462C42.7728 309.584 43.0169 309.706 43.383 309.828C43.627 308.364 43.7491 307.021 43.9931 305.679C44.4812 302.75 44.9693 299.7 45.4574 296.771C46.9218 287.497 48.2641 278.223 49.4844 268.949C53.0231 267.728 56.3179 266.02 59.2466 263.702C66.9343 257.844 72.1815 249.058 73.7678 239.662C73.4017 239.662 73.1577 239.662 72.7916 239.662C71.6934 246.13 69.0088 252.109 64.8598 257.112C60.7109 262.115 55.4637 265.898 49.4844 268.461C49.6064 267.24 49.8504 265.898 49.9725 264.678C50.7046 259.309 51.3148 253.939 51.9249 248.448C52.291 245.763 52.535 243.079 52.9011 240.394V240.272C52.535 240.272 52.1689 240.272 51.8029 240.272C51.8029 240.638 51.6809 241.004 51.6809 241.248C51.3148 244.299 50.9487 247.228 50.7046 250.278C49.3623 261.139 48.02 271.999 46.5557 282.86C45.8235 288.229 44.9693 293.598 44.2372 298.967C43.8711 301.652 43.383 304.337 43.0169 307.021C42.8949 307.753 42.6508 308.608 42.5288 309.462Z" fill="black"/>
<path d="M100.98 267.606C100.98 267.85 101.224 267.972 101.346 267.972C102.566 268.095 103.665 268.217 104.885 268.461C105.129 268.461 105.251 268.217 105.251 268.095C105.861 262.359 106.227 256.624 105.983 250.767C105.861 246.74 105.617 242.591 105.007 238.564C104.763 238.564 104.519 238.564 104.397 238.564C104.885 242.713 105.251 246.862 105.373 251.011C105.495 256.502 105.251 262.115 104.641 267.606C103.665 267.484 102.688 267.362 101.834 267.24C102.2 264.312 102.444 261.261 102.444 258.332C102.566 252.841 102.322 247.35 101.712 241.981C101.59 240.882 101.468 239.784 101.224 238.686C100.98 238.686 100.736 238.686 100.492 238.686C101.834 248.204 102.078 257.966 100.98 267.606Z" fill="black"/>
<path d="M132.341 237.832C133.927 244.421 137.222 250.645 141.859 255.648C141.859 255.282 141.859 254.916 141.859 254.427C141.371 253.939 141.005 253.451 140.639 252.963C137.344 248.692 134.904 243.689 133.561 238.442C133.561 238.198 133.439 237.954 133.439 237.832C132.829 237.832 132.585 237.832 132.341 237.832Z" fill="black"/>
<path d="M91.3398 286.887C96.587 284.202 102.322 282.372 108.18 281.64C108.424 281.64 108.546 282.006 108.302 282.006C102.566 283.348 96.953 285.056 91.5838 287.375C91.3398 287.497 91.2178 287.009 91.3398 286.887Z" fill="black"/>
<path d="M44.6032 249.058C55.3417 250.645 66.2021 251.621 77.1846 251.987C96.9531 252.719 117.332 252.475 136.49 248.936C140.517 248.204 144.544 247.228 148.449 246.008C142.469 199.637 134.66 157.171 126.728 148.263C125.63 146.921 120.26 145.091 113.305 143.382C113.061 143.26 112.695 143.26 112.451 143.138C103.298 141.064 91.5838 139.233 82.1877 139.477C78.771 139.6 75.5982 139.844 72.6696 140.332C72.3035 140.332 71.9374 140.454 71.5713 140.576C60.2228 142.406 52.6571 146.677 51.3148 149.606C49.4843 153.511 48.3861 227.093 45.4574 244.177C45.3354 245.397 44.9693 246.984 44.6032 249.058Z" fill="#FFD996"/>
<path d="M71.5714 140.698C73.2798 142.528 75.2322 144.237 77.1846 145.823C79.3811 147.531 81.5776 149.24 84.0182 150.582C88.8993 153.389 94.5125 155.219 100.248 155.219C103.054 155.219 105.861 154.731 108.546 153.755C110.864 152.901 112.939 151.436 113.671 148.874C114.159 146.921 113.915 145.213 113.183 143.626C112.939 143.504 112.573 143.504 112.329 143.382C113.427 145.701 113.549 148.63 111.84 150.582C110.254 152.412 107.569 153.267 105.251 153.755C102.81 154.243 100.126 154.365 97.6853 154.121C92.5601 153.633 87.801 151.802 83.408 149.118C81.2115 147.775 79.1371 146.311 77.1846 144.603C75.5983 143.26 74.0119 141.796 72.5476 140.332C72.3035 140.454 71.9375 140.576 71.5714 140.698Z" fill="#C78E23"/>
<path d="M112.817 135.573L109.034 149.118C109.034 149.118 106.105 153.877 91.7059 150.094C78.0388 146.433 79.3811 139.844 79.3811 139.844L82.5538 129.105L112.817 135.573Z" fill="#FFA672"/>
<path d="M110.62 146.067C107.325 146.433 103.909 145.823 100.614 145.091C96.5871 144.115 92.6822 142.894 89.2654 140.698C85.8486 138.501 83.164 135.573 82.3098 132.278C82.0658 131.18 81.9437 129.837 82.6759 128.983C83.4081 128.129 84.6283 127.885 85.9706 127.641C88.2892 127.397 90.7297 127.519 93.0482 127.885C100.248 128.861 107.081 131.058 113.915 133.498C115.501 134.108 117.332 134.84 118.186 136.061C119.284 137.647 119.528 141.186 118.43 142.772C117.088 144.725 113.305 145.823 110.62 146.067Z" fill="#B22E2E"/>
<path d="M20.3197 260.041C18.4893 264.922 12.2659 277.247 13.7302 277.979C15.1945 278.711 20.1977 271.023 20.1977 271.023C20.1977 271.023 14.9505 285.056 17.0249 285.788C19.0994 286.521 25.5669 274.318 25.5669 274.318C25.5669 274.318 21.54 289.815 24.4686 290.426C27.3973 291.036 31.1801 275.66 31.1801 275.66C31.1801 275.66 29.8378 287.985 32.4004 287.985C34.963 287.985 38.5018 271.389 38.5018 271.389C38.5018 271.389 41.1864 280.053 43.3829 279.443C45.5794 278.833 41.5525 261.017 41.4305 257.478C41.3084 253.817 42.8948 245.519 42.8948 245.519L25.0788 243.079C25.0788 243.201 22.1501 255.038 20.3197 260.041Z" fill="#FFA672"/>
<path d="M51.3147 149.728C44.2371 158.392 24.3467 208.423 17.8792 262.115C17.3911 266.386 36.6714 268.583 44.6032 268.339C44.6032 268.339 48.7522 245.275 54.3654 217.575C59.9787 189.997 67.7885 182.309 67.7885 169.618C67.7885 157.049 59.7346 139.477 51.3147 149.728Z" fill="#FFD996"/>
<path d="M48.264 248.814C49.6063 243.079 50.8266 237.344 52.0469 231.608C53.2672 225.873 54.3654 220.138 55.5857 214.402C56.806 208.667 58.3923 203.054 60.2227 197.563C61.9311 191.949 64.2496 186.58 65.836 180.967C64.8598 183.651 63.7615 186.458 62.6633 189.143C61.565 191.827 60.5888 194.634 59.6126 197.319C57.6602 202.81 56.0738 208.545 54.8535 214.28C54.2434 217.209 53.7553 220.016 53.1451 222.944C52.657 225.873 52.0469 228.68 51.5588 231.608C50.2165 237.344 49.2403 243.079 48.264 248.814Z" fill="#C78E23"/>
<path d="M73.2798 139.599C73.5238 139.599 73.7679 139.722 73.8899 139.966C81.6997 152.534 83.164 168.886 80.1133 183.407C76.9406 198.295 67.5445 211.718 54.7316 219.772C53.1452 220.748 51.0708 220.382 50.2166 218.795C49.2404 216.965 50.4606 214.524 51.6809 212.694C55.2197 207.935 64.3718 195.122 67.5445 179.38C70.7172 163.517 65.226 150.826 61.4431 143.504C61.1991 143.138 61.3211 142.528 61.6872 142.406C64.7378 140.942 70.2291 139.966 73.2798 139.599Z" fill="black"/>
<path d="M119.894 144.481C124.531 146.311 128.558 149.24 131.243 153.511C148.449 180.845 145.032 208.179 144.178 209.277C143.079 210.62 142.469 207.203 142.347 206.593C136.856 179.991 129.046 165.469 124.409 158.392C122.335 155.219 120.016 152.168 117.454 149.362C116.111 147.897 114.769 146.555 113.305 145.213C112.817 144.847 111.596 143.87 111.596 143.138C111.596 141.674 117.698 143.626 118.43 143.87C118.918 144.115 119.406 144.359 119.894 144.481Z" fill="black"/>
<path d="M134.904 26.8461C145.52 34.8999 150.279 49.7872 146.496 62.6001C145.886 64.7966 145.032 66.8711 143.446 68.5795C141.981 70.2879 139.785 71.3861 137.588 71.2641C133.561 70.898 131.121 66.7491 129.412 63.0882C126.484 56.8648 123.677 50.5194 122.091 43.6859C120.992 38.6827 119.528 30.1408 122.213 25.5038C125.019 20.9887 131.975 24.5275 134.904 26.8461Z" fill="black"/>
<path d="M149.791 84.199C149.791 88.836 149.669 93.229 149.181 97.5C149.181 97.622 149.181 97.622 149.181 97.7441C149.059 99.0864 148.815 100.307 148.693 101.649C146.984 112.509 143.201 121.783 136.002 128.251L135.88 128.373C134.66 129.471 133.195 130.569 131.731 131.546C125.507 135.573 117.21 138.135 106.349 138.745C105.861 138.745 105.373 138.745 104.885 138.745C104.275 138.745 103.787 138.745 103.176 138.745C101.956 138.745 100.736 138.745 99.3936 138.623C83.8961 137.525 70.107 128.129 61.6871 113.852C61.5651 113.73 61.5651 113.608 61.443 113.486C60.7109 112.265 60.1007 111.167 59.4906 109.825C56.4399 103.479 54.3654 96.4018 53.5112 88.592C50.0945 56.4988 69.8629 26.8461 98.5394 25.0156C127.704 23.1852 149.425 46.3705 149.791 84.199Z" fill="#FFA672"/>
<path d="M143.324 29.1646C142.835 31.7272 141.859 33.9236 139.785 35.632C128.924 44.54 115.379 35.388 115.379 35.388C115.379 35.388 111.474 42.5876 100.37 45.5163C89.2654 48.567 79.1371 43.3198 79.1371 43.3198C79.1371 43.3198 82.7979 52.9599 77.1846 63.9424C71.5714 74.8029 65.592 78.3417 65.592 78.3417C65.592 78.3417 68.7647 84.5651 63.6396 87.9819C57.7823 91.8867 40.4544 88.714 36.7935 75.535C35.2072 69.9218 33.7428 61.1358 34.353 52.2278C34.9631 44.7841 37.1596 36.9743 42.1627 30.873C45.0914 27.2121 48.8742 24.1615 53.9994 21.8429C59.6127 19.2804 66.0801 17.694 72.7917 16.5957C77.6728 15.8636 82.6759 15.3755 87.557 15.2534C104.397 14.5213 118.918 16.4737 118.918 16.4737C118.918 16.4737 111.108 5.97935 115.257 3.5388C115.379 3.41677 115.379 3.41677 115.501 3.41677C120.016 1.22028 127.704 10.6164 128.314 11.3486C128.192 10.8605 126.85 7.68773 126.606 4.8811C126.362 2.44055 126.85 0.244055 129.412 0C129.534 0 129.779 0 130.023 0C134.66 0.610138 145.154 18.0601 143.324 29.1646Z" fill="black"/>
<path opacity="0.7" d="M87.801 18.0601C86.9468 21.2328 83.286 22.8191 79.8692 23.6733C79.2591 23.7954 78.649 24.0394 78.2829 24.2835C77.4287 24.8936 77.4287 26.2359 77.6727 27.2121C77.9168 28.1884 78.4049 29.2866 78.2829 30.2628C78.0388 32.4593 75.4762 33.6796 73.0357 33.8016C70.7172 33.8016 68.3986 33.0694 66.0801 32.8254C63.7616 32.7034 61.077 33.4355 60.2228 35.388C59.2466 37.5845 60.955 40.3911 59.6127 42.4656C58.5144 44.0519 56.0739 44.296 54.1214 43.5638C52.291 42.8317 50.7047 41.6114 48.9963 40.6352C48.2641 40.1471 47.2879 39.781 46.4337 39.903C44.8473 40.147 44.1152 41.8554 43.7491 43.3198C43.1389 45.5163 42.5288 47.5907 41.7966 49.7872C41.1865 51.7397 40.2103 54.0582 38.1358 54.3022C36.7935 54.4243 35.4512 53.6921 34.8411 52.5939C34.719 52.3498 34.597 52.2278 34.597 51.9837C35.2072 44.5401 37.4036 36.7303 42.4068 30.6289C43.261 30.7509 43.9931 30.873 44.8473 31.117C48.3861 32.0932 50.7046 32.0932 53.1452 28.9205C54.2434 27.5782 55.0976 25.8698 56.562 24.8936C60.4669 21.965 67.0563 23.6733 70.5951 20.3786C71.8154 19.2803 72.4255 17.816 73.1577 16.3517C78.0388 15.6195 83.0419 15.1314 87.923 15.0094C87.923 15.9856 88.0451 17.0839 87.801 18.0601Z" fill="#611B20"/>
<path d="M41.1865 77.3655C38.868 77.8536 36.6715 79.0738 34.9631 81.3924C33.1327 83.9549 32.4005 87.2497 32.5225 90.3004C32.5225 97.0119 35.6952 103.479 40.8204 107.994C43.9931 110.801 48.142 113.364 52.413 113.73C57.2941 114.218 61.199 111.167 62.2972 106.408C62.9074 104.089 62.6633 101.527 62.2972 99.2084C60.9549 89.0801 53.8773 75.0469 41.1865 77.3655Z" fill="#FFA672"/>
<path d="M42.7728 86.8836C45.0914 86.8836 47.0438 88.3479 48.5081 89.9343C51.8029 93.7171 53.2672 98.7203 52.7791 103.723C52.6571 104.456 51.5588 104.456 51.5588 103.723C51.8029 99.6965 50.4606 95.5476 48.02 92.3748C47.5319 91.6427 46.9218 90.9105 46.1896 90.3004C45.4574 91.1546 44.9693 92.1308 44.7253 93.107C44.6033 93.7172 44.6032 94.2053 44.6032 94.9374C44.6032 95.0595 44.6032 95.3035 44.6032 95.4255C44.6032 95.3035 44.6032 95.5476 44.6032 95.5476C44.6032 95.6696 44.6032 95.6696 44.6032 95.7916C44.7253 96.1577 44.8473 96.5238 44.7253 96.8899C44.7253 97.5 43.9931 97.8661 43.505 97.378C42.8949 96.7678 42.7728 95.7916 42.6508 94.9374C42.5288 94.2053 42.6508 93.3511 42.8949 92.6189C43.261 91.3986 43.8711 90.3004 44.7253 89.3242C44.3592 89.0801 43.9931 88.9581 43.505 88.8361C42.7728 88.592 41.9186 88.714 41.1865 88.9581C40.4543 89.3242 40.0882 90.0563 39.3561 90.4224C38.99 90.6665 38.3798 90.4224 38.2578 89.9343C38.2578 87.9819 41.1865 86.8836 42.7728 86.8836Z" fill="#C4311D"/>
<path d="M106.959 100.307C110.498 99.0864 113.305 101.405 119.65 101.893C125.996 102.381 130.145 100.917 130.877 102.137C132.707 105.066 126.484 111.899 117.576 111.899C108.546 112.021 103.298 101.649 106.959 100.307Z" fill="white"/>
<g opacity="0.2">
<path d="M107.203 134.596C106.593 136.061 105.861 137.403 104.885 138.623C104.275 138.623 103.787 138.623 103.176 138.623C101.956 138.623 100.736 138.623 99.3936 138.501C83.8961 137.403 70.107 128.007 61.6871 113.73C61.5651 113.608 61.5651 113.486 61.4431 113.364C60.7109 112.143 60.1007 111.045 59.4906 109.703C60.3448 108.116 61.321 106.774 62.5413 105.554C66.6902 101.527 72.7916 99.9405 78.5269 100.307C84.2622 100.673 89.7534 103.113 94.5125 106.286C99.1496 109.337 103.298 113.364 105.861 118.367C108.546 123.492 109.278 129.471 107.203 134.596Z" fill="#EC372F"/>
<path d="M149.303 97.378C149.303 97.5 149.303 97.5 149.303 97.622C149.181 98.9643 148.937 100.185 148.815 101.527C147.106 112.387 143.324 121.661 136.124 128.129L136.002 128.251C136.49 123.004 137.344 117.635 139.053 112.631C140.883 106.652 144.3 101.039 149.303 97.378Z" fill="#EC372F"/>
</g>
<path d="M106.471 85.6633C106.593 88.592 105.129 90.9105 103.299 91.0325C101.468 91.1546 99.8817 88.836 99.7597 85.9074C99.6377 82.9787 101.102 80.6602 102.932 80.5382C104.763 80.5382 106.349 82.7347 106.471 85.6633Z" fill="black"/>
<path d="M137.71 84.077C137.832 86.5175 136.612 88.47 135.148 88.47C133.683 88.47 132.341 86.6396 132.341 84.199C132.219 81.7585 133.439 79.806 134.904 79.806C136.368 79.684 137.71 81.6364 137.71 84.077Z" fill="black"/>
<path d="M97.8072 65.7728C100.248 62.112 103.543 58.4512 107.569 57.1089C109.034 56.6208 110.62 56.6208 111.718 57.719C112.695 58.5732 113.061 60.0376 112.817 61.2578C112.206 64.3085 109.278 65.4068 106.715 66.383C105.007 66.9931 103.42 67.7253 101.956 68.4575C101.102 68.9456 95.6107 72.6064 95.8548 69.5557C95.8548 69.0676 96.0988 68.7015 96.3429 68.3354C96.709 67.4812 97.3191 66.627 97.8072 65.7728Z" fill="black"/>
<path d="M140.761 63.5764C140.883 63.8204 141.127 64.1865 141.005 64.5526C140.883 67.1151 136.246 64.5526 135.514 64.3085C134.171 63.8204 132.707 63.4543 131.243 63.0882C128.924 62.6001 126.362 61.99 126.24 59.4274C126.118 58.3292 126.606 57.1089 127.582 56.2547C128.802 55.1565 130.267 55.0344 131.487 55.2785C135.026 55.8886 137.71 58.6952 139.541 61.5019C140.029 62.234 140.395 62.8442 140.761 63.5764Z" fill="black"/>
<path d="M123.433 88.836C123.433 87.6158 123.677 86.5175 123.921 85.2972C124.165 84.199 124.653 83.1007 125.141 82.0025C125.385 81.5144 125.752 81.0263 125.996 80.5382C126.362 80.0501 126.728 79.4399 127.338 79.1959C127.948 78.9518 128.436 79.3179 128.314 79.928C128.192 80.5382 127.704 81.1483 127.46 81.6364C127.216 82.1245 126.85 82.6126 126.606 83.2228C126.118 84.321 125.752 85.4193 125.507 86.6395C125.263 87.8598 125.141 89.2021 125.141 90.4224C125.141 90.9105 125.141 91.5206 125.874 91.5206C126.484 91.5206 127.094 91.1546 127.582 90.9105C129.534 90.0563 131.975 90.4224 133.073 92.3748C134.171 94.2052 133.439 96.5238 131.731 97.622C131.365 97.8661 130.877 97.2559 131.243 96.8899C132.829 95.3035 132.219 92.3748 129.9 92.1308C128.802 92.0088 127.826 92.863 126.85 93.107C125.752 93.3511 124.531 93.229 123.921 92.1308C123.311 91.1546 123.433 89.8123 123.433 88.836Z" fill="#C4311D"/>
</svg>
