<svg width="182" height="170" viewBox="0 0 182 170" fill="none" xmlns="http://www.w3.org/2000/svg">
<path d="M40.2505 77.3739C50.49 51.7283 79.5807 39.2392 105.226 49.4787C130.872 59.7182 143.361 88.8089 133.122 114.454C122.882 140.1 93.7914 152.589 68.1458 142.35C42.5001 132.11 30.011 103.02 40.2505 77.3739Z" fill="#EDC9A7"/>
<path d="M37.0392 69.3783C37.2406 68.9987 37.3491 68.6067 37.3647 68.2023C37.3803 67.7978 37.3078 67.4204 37.1474 67.0699C36.9812 66.7164 36.7303 66.4322 36.3948 66.2173L37.2003 64.6991C37.7372 65.0208 38.1527 65.4808 38.447 66.0791C38.7385 66.6686 38.8845 67.3173 38.8848 68.025C38.8795 68.7296 38.7013 69.4127 38.3504 70.074C37.9781 70.7757 37.5295 71.3225 37.0045 71.7147C36.4826 72.1011 35.9144 72.3523 35.3 72.4685C34.6887 72.579 34.0583 72.5725 33.4089 72.449C32.7568 72.3168 32.1173 72.0844 31.4905 71.7517L31.1282 71.5595C30.5013 71.2269 29.9532 70.8292 29.4838 70.3665C29.0118 69.8949 28.6501 69.375 28.3988 68.8068C28.1505 68.2329 28.0401 67.6216 28.0674 66.9728C28.0978 66.3182 28.2991 65.6401 28.6714 64.9385C29.0589 64.2081 29.5472 63.6491 30.1361 63.2614C30.7193 62.8707 31.3492 62.6558 32.0258 62.6169C32.6997 62.5691 33.3664 62.7017 34.0258 63.0147L33.2202 64.533C32.8196 64.3573 32.4137 64.2819 32.0024 64.3069C31.5942 64.3262 31.2127 64.448 30.8578 64.6724C30.5002 64.888 30.2085 65.2086 29.9827 65.6342C29.7233 66.1231 29.6029 66.5861 29.6214 67.0234C29.6373 67.4519 29.7572 67.8509 29.9813 68.2204C30.2027 68.5811 30.4889 68.9098 30.8399 69.2066C31.1883 69.4946 31.5666 69.7469 31.9749 69.9636L32.3372 70.1558C32.7456 70.3725 33.1695 70.5458 33.609 70.6759C34.0486 70.8059 34.4797 70.8615 34.9025 70.8426C35.3283 70.8179 35.7259 70.6935 36.0954 70.4695C36.4622 70.2366 36.7767 69.8729 37.0392 69.3783Z" fill="white"/>
<path d="M38.8621 50.9717L39.989 51.9527L36.6355 55.8049L35.5086 54.8239L38.8621 50.9717ZM39.9073 49.7711L47.8769 56.7089L46.6907 58.0716L38.721 51.1337L39.9073 49.7711ZM35.22 55.1554L36.4127 53.7853L40.078 57.3387C40.6422 57.8903 41.1185 58.4042 41.5068 58.8803C41.8944 59.3472 42.1926 59.788 42.4012 60.2027C42.6142 60.6125 42.7383 61.0054 42.7735 61.3814C42.8082 61.7481 42.757 62.1093 42.6201 62.4649C42.4783 62.8162 42.2535 63.1686 41.9457 63.5222L41.5738 63.9494L40.3732 62.9042L40.6076 62.5903C40.7767 62.3664 40.8836 62.1444 40.9284 61.9244C40.9774 61.6995 40.9658 61.465 40.8935 61.2208C40.8163 60.9723 40.6754 60.7029 40.4707 60.4125C40.2703 60.1172 40.0058 59.7963 39.6773 59.4499C39.353 59.0986 38.9613 58.7057 38.5021 58.2715L35.22 55.1554Z" fill="white"/>
<path d="M47.9159 49.6203L47.7866 49.4366C47.3482 48.8137 47.0322 48.1724 46.8385 47.5125C46.6411 46.8474 46.5741 46.198 46.6376 45.5642C46.6973 44.9251 46.8926 44.3259 47.2235 43.7666C47.5506 43.202 48.015 42.708 48.6166 42.2846C49.2235 41.8575 49.8479 41.5852 50.4898 41.4679C51.1332 41.3414 51.7658 41.358 52.3876 41.5175C53.0109 41.6679 53.6023 41.9483 54.1618 42.3586C54.7175 42.7636 55.2146 43.2776 55.653 43.9005L55.7822 44.0842C56.2206 44.7071 56.5367 45.3485 56.7303 46.0083C56.924 46.6681 56.9883 47.3194 56.9233 47.9623C56.8598 48.596 56.6645 49.1952 56.3374 49.7598C56.0119 50.3153 55.5456 50.8067 54.9387 51.2338C54.3317 51.661 53.7092 51.9359 53.0711 52.0586C52.4292 52.1759 51.7966 52.1594 51.1733 52.009C50.5515 51.8495 49.9628 51.5672 49.4071 51.1622C48.8513 50.7572 48.3543 50.2432 47.9159 49.6203ZM49.2641 48.3969L49.3933 48.5805C49.6968 49.0118 50.0341 49.3835 50.405 49.6956C50.7722 50.0024 51.16 50.2311 51.5684 50.3815C51.9821 50.5282 52.4033 50.5781 52.832 50.5311C53.257 50.4788 53.6744 50.3084 54.0844 50.0199C54.489 49.7352 54.785 49.4035 54.9723 49.0248C55.1612 48.6371 55.2537 48.2257 55.25 47.7905C55.2462 47.3553 55.1619 46.9131 54.997 46.4639C54.8337 46.0056 54.6003 45.5608 54.2968 45.1296L54.1675 44.9459C53.8678 44.52 53.5316 44.1555 53.1591 43.8524C52.7882 43.5403 52.3959 43.3108 51.9821 43.1642C51.57 43.0084 51.1496 42.954 50.7209 43.0009C50.2975 43.0441 49.8808 43.21 49.4709 43.4985C49.0663 43.7833 48.7695 44.1195 48.5806 44.5072C48.397 44.8912 48.3063 45.3053 48.3085 45.7496C48.3123 46.1848 48.3985 46.6296 48.5671 47.0842C48.732 47.5334 48.9643 47.9709 49.2641 48.3969Z" fill="white"/>
<path d="M64.0506 40.678L58.317 36.3468L60.3752 35.6353L64.3889 38.8768L66.3825 38.1877L66.6534 39.7783L64.0506 40.678ZM64.9222 40.1804L63.5875 45.7048L61.4277 46.4514L63.4148 39.3169L64.9222 40.1804ZM65.83 33.7496L69.2822 43.7362L67.5747 44.3264L64.1225 34.3399L65.83 33.7496ZM71.6539 31.7364L69.8192 38.6839L67.2164 39.5836L66.4287 38.1717L68.4315 37.4793L69.5865 32.4511L71.6539 31.7364ZM73.2787 42.3547L68.8079 38.8371L69.4787 37.2207L75.4384 41.608L73.2787 42.3547Z" fill="white"/>
<path d="M86.0738 34.8606L86.1526 36.3233L80.5747 36.6238L80.4959 35.161L86.0738 34.8606ZM80.6299 30.5671L81.1982 41.1182L79.3942 41.2154L78.8258 30.6643L80.6299 30.5671ZM87.2901 30.2083L87.8585 40.7595L86.0447 40.8572L85.4764 30.306L87.2901 30.2083Z" fill="white"/>
<path d="M95.7444 34.4211L98.8349 35.1437C99.6654 35.3379 100.332 35.6475 100.834 36.0725C101.338 36.4912 101.676 36.9882 101.849 37.5635C102.03 38.134 102.046 38.7394 101.896 39.3797C101.785 39.8551 101.598 40.2828 101.335 40.6627C101.074 41.0362 100.743 41.3397 100.34 41.5733C99.9443 41.8083 99.4847 41.9583 98.9614 42.0231C98.4459 42.0831 97.8775 42.0405 97.2563 41.8952L92.8821 40.8725L95.2878 30.5836L97.047 30.9949L94.9792 39.8384L97.5942 40.4498C98.1014 40.5684 98.5286 40.5714 98.8759 40.4587C99.2232 40.346 99.4975 40.1594 99.6988 39.8989C99.9001 39.6384 100.038 39.3497 100.112 39.0327C100.185 38.7221 100.189 38.4022 100.126 38.0731C100.062 37.7441 99.9013 37.4457 99.643 37.178C99.3861 36.904 99.0041 36.7077 98.4969 36.5891L95.4065 35.8665L95.7444 34.4211ZM107.165 33.3606L104.759 43.6495L103 43.2382L105.406 32.9493L107.165 33.3606Z" fill="white"/>
<path d="M113.312 48.0049C112.667 47.6526 112.14 47.2244 111.733 46.7204C111.334 46.2138 111.055 45.6576 110.896 45.0518C110.743 44.4491 110.716 43.8188 110.815 43.161C110.915 42.5032 111.142 41.8485 111.497 41.197L111.694 40.8369C112.105 40.0824 112.583 39.4717 113.127 39.0046C113.674 38.5317 114.251 38.194 114.859 37.9914C115.466 37.7887 116.07 37.7142 116.672 37.7677C117.273 37.8212 117.833 37.9898 118.353 38.2735C119.016 38.6352 119.526 39.0612 119.881 39.5517C120.242 40.0453 120.465 40.5821 120.549 41.1619C120.636 41.7361 120.603 42.3409 120.449 42.9763C120.299 43.6061 120.046 44.2467 119.69 44.8983L119.302 45.6098L112.375 41.8314L113.081 40.5368L118.422 43.4502L118.488 43.3301C118.689 42.9062 118.822 42.4593 118.885 41.9896C118.954 41.523 118.9 41.0783 118.723 40.6553C118.546 40.2324 118.186 39.8728 117.643 39.5766C117.283 39.3802 116.909 39.2766 116.522 39.2657C116.138 39.249 115.756 39.3301 115.377 39.5088C114.998 39.6876 114.631 39.9585 114.277 40.3217C113.923 40.6849 113.594 41.1466 113.288 41.7067L113.092 42.0668C112.852 42.5068 112.686 42.9539 112.594 43.4081C112.511 43.8596 112.507 44.295 112.582 44.7143C112.663 45.1367 112.827 45.5228 113.074 45.8725C113.326 46.2253 113.67 46.5201 114.104 46.7571C114.664 47.0626 115.201 47.207 115.714 47.1904C116.228 47.1738 116.735 47.0535 117.235 46.8296L117.779 48.1163C117.414 48.3101 117.002 48.46 116.544 48.566C116.085 48.672 115.584 48.6876 115.039 48.6128C114.499 48.5411 113.924 48.3384 113.312 48.0049Z" fill="white"/>
<path d="M128.783 58.5308C129.069 58.8517 129.399 59.0898 129.773 59.2452C130.146 59.4006 130.525 59.4641 130.91 59.4356C131.299 59.4028 131.653 59.2665 131.971 59.0268L133.114 60.3104C132.626 60.7017 132.05 60.9312 131.386 60.9988C130.732 61.0669 130.073 60.978 129.41 60.7321C128.751 60.4818 128.173 60.0771 127.675 59.5179C127.147 58.9247 126.79 58.3138 126.605 57.6852C126.425 57.0615 126.387 56.4413 126.492 55.8249C126.601 55.2133 126.826 54.6246 127.168 54.0588C127.519 53.4935 127.959 52.9749 128.489 52.503L128.796 52.2302C129.326 51.7583 129.889 51.3828 130.486 51.1039C131.093 50.8254 131.706 50.6673 132.326 50.6294C132.951 50.5965 133.562 50.7057 134.161 50.9571C134.764 51.2134 135.33 51.6381 135.858 52.2313C136.408 52.8488 136.762 53.5011 136.92 54.1881C137.084 54.8708 137.066 55.5361 136.867 56.184C136.677 56.8324 136.321 57.4112 135.798 57.9204L134.655 56.6368C134.959 56.3225 135.171 55.9681 135.291 55.5739C135.415 55.1845 135.433 54.7844 135.346 54.3736C135.269 53.9633 135.07 53.5782 134.749 53.2184C134.381 52.8051 133.989 52.5311 133.573 52.3963C133.165 52.262 132.75 52.2356 132.325 52.3171C131.91 52.3991 131.502 52.553 131.102 52.7788C130.711 53.0052 130.342 53.272 129.997 53.5794L129.691 53.8522C129.346 54.1596 129.036 54.4967 128.761 54.8635C128.486 55.2303 128.284 55.6152 128.154 56.0181C128.029 56.4258 128.007 56.8419 128.089 57.2663C128.18 57.6911 128.411 58.1126 128.783 58.5308Z" fill="white"/>
<path d="M145.427 66.676L144.116 67.3924L141.667 62.9103L142.978 62.1939L145.427 66.676ZM146.19 68.0729L136.918 73.1391L136.051 71.5537L145.324 66.4874L146.19 68.0729ZM142.768 61.8083L143.638 63.4023L139.034 65.6065C138.321 65.9442 137.673 66.2125 137.092 66.4114C136.52 66.6128 136.003 66.7395 135.542 66.7912C135.083 66.8487 134.672 66.8287 134.307 66.7313C133.951 66.6365 133.63 66.4632 133.344 66.2114C133.064 65.9564 132.811 65.6233 132.587 65.2119L132.315 64.7149L133.712 63.9517L133.925 64.2804C134.076 64.5167 134.247 64.694 134.438 64.8124C134.632 64.9364 134.856 65.0069 135.11 65.0239C135.37 65.0377 135.671 64.9991 136.015 64.9079C136.361 64.8225 136.754 64.6858 137.193 64.4979C137.635 64.3157 138.139 64.0847 138.706 63.8048L142.768 61.8083Z" fill="white"/>
<path d="M143.54 75.5866L143.757 75.5288C144.493 75.333 145.205 75.2584 145.891 75.305C146.583 75.3499 147.215 75.5117 147.788 75.7905C148.367 76.0677 148.862 76.4582 149.272 76.9622C149.689 77.4644 149.991 78.071 150.18 78.782C150.371 79.4992 150.411 80.1793 150.299 80.8221C150.195 81.4695 149.96 82.0573 149.596 82.5855C149.239 83.1183 148.771 83.5762 148.193 83.9591C147.62 84.3404 146.966 84.6289 146.23 84.8247L146.013 84.8825C145.277 85.0783 144.566 85.1529 143.88 85.1063C143.194 85.0598 142.56 84.8948 141.98 84.6113C141.407 84.3325 140.912 83.9419 140.496 83.4397C140.087 82.9421 139.787 82.3346 139.597 81.6174C139.406 80.9001 139.363 80.2209 139.469 79.5798C139.581 78.9369 139.815 78.3491 140.172 77.8163C140.537 77.2881 141.005 76.8334 141.578 76.4522C142.15 76.0709 142.804 75.7824 143.54 75.5866ZM144.222 77.2747L144.005 77.3325C143.495 77.468 143.03 77.6558 142.608 77.8959C142.193 78.1342 141.845 78.419 141.562 78.7501C141.282 79.0875 141.089 79.4655 140.985 79.8839C140.887 80.3007 140.902 80.7513 141.031 81.2358C141.158 81.714 141.367 82.1064 141.658 82.4132C141.956 82.7245 142.31 82.9537 142.72 83.1008C143.129 83.2478 143.573 83.3217 144.052 83.3224C144.538 83.3278 145.036 83.2627 145.546 83.1271L145.763 83.0694C146.266 82.9355 146.725 82.7462 147.138 82.5016C147.559 82.2615 147.91 81.9728 148.191 81.6354C148.48 81.3026 148.676 80.9269 148.78 80.5085C148.886 80.0963 148.875 79.648 148.746 79.1635C148.619 78.6854 148.406 78.2906 148.108 77.9792C147.811 77.6742 147.454 77.4458 147.036 77.2941C146.626 77.1471 146.179 77.0741 145.694 77.075C145.216 77.0743 144.725 77.1409 144.222 77.2747Z" fill="white"/>
<path d="M146.343 95.0977L146.273 91.6316L147.717 91.5828L147.775 94.4143C147.786 94.9741 147.851 95.4383 147.969 95.8071C148.087 96.1824 148.259 96.4622 148.484 96.6465C148.709 96.8307 148.985 96.9196 149.31 96.913C149.564 96.9078 149.784 96.848 149.971 96.7335C150.164 96.6254 150.32 96.4627 150.439 96.2454C150.565 96.028 150.654 95.7592 150.706 95.4391C150.765 95.1253 150.79 94.7569 150.782 94.3338L150.735 92.0198L141.635 92.2043L141.598 90.398L152.163 90.1839L152.246 94.3041C152.26 94.9745 152.213 95.5778 152.107 96.1139C152.001 96.6566 151.831 97.1191 151.598 97.5015C151.371 97.8903 151.078 98.1893 150.718 98.3984C150.357 98.6076 149.93 98.7172 149.435 98.7272C149.116 98.7337 148.812 98.6747 148.523 98.5504C148.234 98.426 147.976 98.2391 147.75 97.9897C147.523 97.7404 147.335 97.4316 147.184 97.0635C147.04 96.6953 146.943 96.2707 146.894 95.7898L146.343 95.0977ZM141.696 95.1919L141.612 91.0717L143.095 91.9403L143.16 95.1623C143.17 95.6635 143.241 96.0788 143.371 96.4082C143.508 96.7376 143.695 96.9812 143.933 97.1392C144.177 97.3035 144.465 97.3824 144.797 97.3756C145.129 97.3689 145.411 97.2785 145.641 97.1046C145.879 96.9369 146.056 96.6859 146.173 96.3514C146.297 96.0168 146.353 95.5989 146.343 95.0977L146.287 92.3542L147.733 92.3444L147.802 95.7714L147.269 96.4367C147.235 97.0169 147.102 97.5112 146.869 97.9197C146.637 98.3281 146.337 98.6403 145.97 98.8561C145.61 99.0717 145.215 99.1839 144.785 99.1927C144.29 99.2027 143.852 99.1171 143.471 98.936C143.09 98.7614 142.769 98.501 142.508 98.1546C142.253 97.8081 142.056 97.3856 141.916 96.8871C141.782 96.3884 141.708 95.8233 141.696 95.1919Z" fill="white"/>
<path d="M141.814 109.81L147.133 110.947C147.541 111.034 147.912 111.027 148.246 110.925C148.586 110.831 148.873 110.64 149.108 110.35C149.343 110.061 149.512 109.678 149.614 109.2C149.709 108.754 149.716 108.347 149.635 107.977C149.553 107.613 149.409 107.309 149.201 107.065C148.992 106.827 148.745 106.678 148.458 106.616L148.836 104.85C149.205 104.929 149.551 105.102 149.873 105.371C150.195 105.639 150.464 105.983 150.681 106.402C150.903 106.829 151.046 107.313 151.11 107.852C151.179 108.4 151.147 108.985 151.014 109.609C150.854 110.361 150.585 110.995 150.208 111.514C149.829 112.039 149.347 112.409 148.762 112.623C148.182 112.845 147.507 112.874 146.737 112.71L141.923 111.681C141.58 111.608 141.207 111.558 140.807 111.532C140.405 111.513 140.051 111.534 139.745 111.595L139.592 111.562L139.986 109.719C140.209 109.674 140.494 109.661 140.843 109.683C141.197 109.705 141.521 109.748 141.814 109.81ZM146.247 111.077L145.001 110.831L145.383 109.045C145.49 108.542 145.545 108.084 145.546 107.672C145.554 107.261 145.507 106.905 145.405 106.603C145.303 106.302 145.146 106.055 144.934 105.863C144.729 105.673 144.467 105.544 144.148 105.476C143.824 105.406 143.512 105.416 143.213 105.506C142.914 105.595 142.654 105.769 142.432 106.028C142.216 106.294 142.061 106.644 141.969 107.077C141.853 107.618 141.865 108.12 142.006 108.583C142.147 109.046 142.357 109.434 142.636 109.746C142.914 110.065 143.207 110.268 143.515 110.354L142.504 110.926C142.246 110.825 141.976 110.64 141.693 110.374C141.411 110.107 141.155 109.776 140.927 109.381C140.703 108.994 140.541 108.553 140.441 108.059C140.345 107.572 140.357 107.049 140.477 106.489C140.626 105.788 140.894 105.203 141.281 104.733C141.666 104.27 142.12 103.94 142.641 103.746C143.167 103.558 143.716 103.526 144.289 103.648C144.843 103.767 145.307 103.979 145.681 104.285C146.061 104.593 146.348 104.98 146.541 105.448C146.74 105.916 146.852 106.453 146.876 107.057C146.9 107.662 146.836 108.317 146.685 109.024L146.247 111.077Z" fill="white"/>
</svg>
