<svg width="66" height="25" viewBox="0 0 66 25" fill="none" xmlns="http://www.w3.org/2000/svg">
<g clip-path="url(#clip0_6_28)">
<path d="M34.0745 8.28057L37.2146 8.07356C37.2862 8.59718 37.4175 8.98686 37.6324 9.26694C37.9787 9.70532 38.4562 9.92451 39.089 9.92451C39.5546 9.92451 39.9248 9.81491 40.1755 9.58354C40.4143 9.40089 40.5575 9.10863 40.5575 8.8042C40.5575 8.51194 40.4262 8.23186 40.1994 8.04921C39.9606 7.83001 39.3994 7.61082 38.5159 7.41599C37.0713 7.0872 36.0326 6.64882 35.4237 6.08866C34.8148 5.56504 34.4685 4.79787 34.4924 3.98199C34.4924 3.42183 34.6596 2.86167 34.97 2.39894C35.3281 1.87531 35.8177 1.46129 36.4027 1.22992C37.0355 0.949839 37.919 0.803711 39.0293 0.803711C40.3904 0.803711 41.4291 1.05943 42.1454 1.58306C42.8618 2.0945 43.2916 2.92256 43.4229 4.05505L40.3187 4.23771C40.2352 3.75062 40.068 3.39748 39.7934 3.16611C39.5188 2.93474 39.1606 2.82514 38.695 2.82514C38.313 2.82514 38.0264 2.91038 37.8354 3.06869C37.6563 3.21482 37.5369 3.43401 37.5488 3.67755C37.5488 3.86021 37.6444 4.0307 37.7876 4.14029C37.9428 4.28642 38.313 4.42037 38.898 4.54214C40.3426 4.85875 41.3694 5.17536 42.0022 5.50415C42.635 5.83294 43.0886 6.23479 43.3632 6.7097C43.6498 7.19679 43.7931 7.75695 43.7811 8.32928C43.7811 9.01121 43.5901 9.69314 43.208 10.2655C42.814 10.8622 42.2648 11.3249 41.6201 11.605C40.9396 11.9094 40.08 12.0677 39.0532 12.0677C37.2384 12.0677 35.9848 11.7146 35.2804 10.9961C34.576 10.2777 34.1581 9.37653 34.0745 8.28057ZM0.752171 11.8851V0.998548H6.25615C7.27098 0.998548 8.05897 1.08379 8.59624 1.26645C9.12156 1.43693 9.58719 1.79007 9.89761 2.26499C10.2439 2.78861 10.411 3.39748 10.3991 4.0307C10.4349 5.1023 9.89761 6.12519 8.97829 6.66099C8.62012 6.86801 8.22612 7.01413 7.82019 7.0872C8.11867 7.17244 8.41715 7.31857 8.67981 7.48905C8.88278 7.65953 9.04993 7.85437 9.20514 8.06138C9.38423 8.2684 9.53944 8.49977 9.67077 8.74331L11.2706 11.8972H7.52171L5.7547 8.54847C5.52786 8.12227 5.33683 7.84219 5.15774 7.70824C4.91896 7.53776 4.63242 7.45252 4.34588 7.45252H4.05933V11.8729H0.752171V11.8851ZM4.05933 5.40673H5.45622C5.7547 5.38238 6.04124 5.33367 6.32779 5.2606C6.54269 5.22407 6.73372 5.1023 6.86505 4.91964C7.18741 4.48126 7.13965 3.86021 6.74566 3.48272C6.53075 3.30006 6.11288 3.20264 5.51592 3.20264H4.05933V5.40673ZM0 21.2129L3.14001 21.0059C3.21165 21.5295 3.34298 21.9192 3.55789 22.1992C3.89219 22.6376 4.38169 22.869 5.01447 22.869C5.4801 22.869 5.85022 22.7594 6.10094 22.528C6.33973 22.3332 6.483 22.0531 6.483 21.7487C6.483 21.4564 6.35166 21.1763 6.12482 20.9937C5.88603 20.7745 5.32489 20.5553 4.42945 20.3605C2.9848 20.0317 1.94609 19.5933 1.33719 19.0331C0.728292 18.5095 0.382055 17.7423 0.405933 16.9265C0.405933 16.3663 0.573083 15.8061 0.883502 15.3434C1.24168 14.8198 1.73119 14.4058 2.31621 14.1744C2.94899 13.8943 3.83249 13.7482 4.94284 13.7482C6.30391 13.7482 7.34262 14.0039 8.05897 14.5275C8.77533 15.0512 9.1932 15.867 9.32453 16.9995L6.22033 17.1822C6.13676 16.6951 5.96961 16.3419 5.69501 16.1106C5.43234 15.8792 5.06223 15.7696 4.5966 15.7818C4.21454 15.7818 3.928 15.867 3.73698 16.0375C3.54595 16.1836 3.4385 16.4028 3.45043 16.6464C3.45043 16.829 3.54595 16.9995 3.68922 17.1091C3.84443 17.2552 4.21454 17.3892 4.79957 17.511C6.24421 17.8276 7.27098 18.1442 7.90376 18.473C8.53654 18.8018 8.99023 19.2036 9.26483 19.6785C9.55138 20.1656 9.69465 20.7258 9.69465 21.2859C9.69465 21.9679 9.49168 22.6376 9.12156 23.2099C8.72757 23.8066 8.17836 24.2694 7.53365 24.5494C6.85311 24.8539 5.99349 25.0122 4.96671 25.0122C3.15195 25.0122 1.89834 24.659 1.19392 23.9406C0.489508 23.2099 0.0955138 22.3088 0 21.2129H0Z" fill="black"/>
<path d="M15.8792 20.3604L18.7685 21.2494C18.6132 21.9922 18.2909 22.6985 17.8491 23.3195C17.4432 23.8675 16.9059 24.2937 16.297 24.5738C15.6762 24.8539 14.8882 25 13.9331 25C12.775 25 11.8198 24.8295 11.0915 24.4886C10.3513 24.1476 9.71853 23.5387 9.18126 22.6741C8.644 21.8095 8.38133 20.7014 8.38133 19.3497C8.38133 17.5475 8.84696 16.1593 9.79016 15.1973C10.7334 14.2353 12.0586 13.7482 13.7779 13.7482C15.127 13.7482 16.1776 14.0282 16.9537 14.5762C17.7178 15.1364 18.2909 15.9888 18.6729 17.1335L15.7598 17.791C15.6881 17.5353 15.5807 17.2796 15.4374 17.0604C15.2583 16.8047 15.0315 16.6098 14.7569 16.4637C14.4823 16.3176 14.1719 16.2567 13.8614 16.2567C13.1093 16.2567 12.5362 16.5611 12.1422 17.1822C11.8437 17.6327 11.6885 18.3512 11.6885 19.3254C11.6885 20.5309 11.8676 21.359 12.2258 21.8095C12.5839 22.2601 13.0854 22.4793 13.742 22.4793C14.3748 22.4793 14.8524 22.2966 15.1747 21.9435C15.4971 21.566 15.7359 21.0424 15.8792 20.3604ZM22.6248 13.9308H25.92V17.7423H29.5257V13.9308H32.8448V24.8173H29.5257V20.4092H25.92V24.8173H22.6248V13.9308Z" fill="black"/>
<path d="M32.3911 19.3741C32.3911 17.5962 32.8806 16.208 33.8477 15.2216C34.8148 14.2353 36.1758 13.736 37.907 13.736C39.686 13.736 41.047 14.2231 42.0141 15.1973C42.9812 16.1715 43.4588 17.5353 43.4588 19.2888C43.4588 20.5675 43.2439 21.6025 42.826 22.4184C42.42 23.2221 41.7873 23.8797 41.0112 24.3181C40.2113 24.7686 39.2203 25 38.0384 25C36.8325 25 35.8415 24.8052 35.0535 24.4155C34.2417 24.0015 33.5731 23.3561 33.1313 22.5645C32.6418 21.7121 32.3911 20.6527 32.3911 19.3741ZM35.6863 19.3863C35.6863 20.4822 35.8893 21.2737 36.2833 21.7608C36.6773 22.2357 37.2265 22.4793 37.919 22.4793C38.6234 22.4793 39.1726 22.2479 39.5666 21.773C39.9606 21.2981 40.1516 20.4579 40.1516 19.2401C40.1516 18.2172 39.9486 17.4622 39.5427 16.9995C39.1368 16.5246 38.5876 16.2932 37.8951 16.2932C37.2862 16.2689 36.7012 16.5368 36.2952 17.0117C35.8893 17.4866 35.6863 18.2781 35.6863 19.3863ZM46.8376 19.3741C46.8376 17.5962 47.3271 16.208 48.2941 15.2216C49.2612 14.2353 50.6223 13.736 52.3535 13.736C54.1324 13.736 55.5054 14.2231 56.4606 15.1973C57.4157 16.1715 57.9052 17.5353 57.9052 19.2888C57.9052 20.5675 57.6903 21.6025 57.2724 22.4184C56.8665 23.2221 56.2337 23.8797 55.4577 24.3181C54.6577 24.7686 53.6668 25 52.4848 25C51.2789 25 50.288 24.8052 49.5 24.4155C48.6881 24.0015 48.0195 23.3561 47.5778 22.5645C47.0883 21.7121 46.8376 20.6527 46.8376 19.3741ZM50.1328 19.3863C50.1328 20.4822 50.3357 21.2737 50.7297 21.7608C51.1237 22.2357 51.6729 22.4793 52.3654 22.4793C53.0698 22.4793 53.619 22.2479 54.013 21.773C54.407 21.2981 54.598 20.4579 54.598 19.2401C54.598 18.2172 54.3951 17.4622 53.9891 16.9995C53.5832 16.5246 53.034 16.2932 52.3415 16.2932C51.7326 16.2689 51.1357 16.5368 50.7417 17.0117C50.3357 17.4866 50.1328 18.2781 50.1328 19.3863Z" fill="black"/>
<path d="M57.559 13.9308H60.8542V22.1383H66V24.8174H57.547V13.9308H57.559Z" fill="black"/>
<path d="M53.9269 13.3026C57.2445 10.7526 58.2675 6.43011 56.2119 3.64792C54.1563 0.865731 49.8005 0.677444 46.4829 3.22737C43.1653 5.7773 42.1423 10.0998 44.1979 12.882C46.2535 15.6642 50.6093 15.8525 53.9269 13.3026Z" fill="white"/>
<path d="M53.9269 13.3026C57.2445 10.7526 58.2675 6.43011 56.2119 3.64792C54.1563 0.865731 49.8005 0.677444 46.4829 3.22737C43.1653 5.7773 42.1423 10.0998 44.1979 12.882C46.2535 15.6642 50.6093 15.8525 53.9269 13.3026Z" fill="white"/>
<path d="M46.8495 7.46468L48.0434 6.61227L49.5119 8.7433C49.7627 9.08426 49.9537 9.44958 50.097 9.85143C50.1805 10.1559 50.1567 10.4847 50.0373 10.7769C49.8821 11.1422 49.6313 11.4467 49.297 11.6659C48.903 11.9459 48.5687 12.1042 48.2822 12.1529C48.0076 12.2017 47.7211 12.1529 47.4584 12.0312C47.1719 11.885 46.9211 11.678 46.7301 11.4101L47.7569 10.4359C47.8405 10.5699 47.9479 10.6917 48.0673 10.7891C48.1509 10.85 48.2464 10.8865 48.3538 10.8865C48.4374 10.8865 48.521 10.85 48.5807 10.8013C48.7001 10.7282 48.7836 10.5821 48.7717 10.4359C48.7359 10.2289 48.6523 10.0219 48.521 9.86361L46.8495 7.46468ZM50.4313 8.81636L51.5177 7.93959C51.6371 8.08572 51.7923 8.19532 51.9595 8.25621C52.1983 8.32927 52.449 8.28056 52.652 8.12225C52.7952 8.02484 52.9146 7.89089 52.9624 7.7204C53.034 7.50121 52.9146 7.25767 52.6997 7.1846C52.6639 7.17243 52.6281 7.16025 52.5923 7.16025C52.449 7.14807 52.1983 7.20896 51.8282 7.36726C51.2193 7.62299 50.7417 7.7204 50.3835 7.68387C50.0373 7.64734 49.7149 7.46468 49.5239 7.16025C49.3806 6.95323 49.309 6.70969 49.297 6.46614C49.297 6.18606 49.3687 5.90599 49.5239 5.67462C49.7507 5.34583 50.0253 5.06575 50.3596 4.84656C50.8611 4.49342 51.3028 4.32294 51.6849 4.32294C52.0669 4.32294 52.4251 4.5056 52.7594 4.88309L51.6849 5.74768C51.47 5.4676 51.064 5.40672 50.7894 5.62591L50.7536 5.66244C50.6342 5.7355 50.5507 5.8451 50.5029 5.97905C50.4671 6.07647 50.491 6.18606 50.5507 6.27131C50.5984 6.33219 50.67 6.3809 50.7536 6.3809C50.8491 6.39308 51.0163 6.34437 51.2551 6.23477C51.852 5.97905 52.3057 5.83292 52.6161 5.78421C52.8788 5.7355 53.1534 5.75986 53.4041 5.86945C53.631 5.96687 53.822 6.13735 53.9533 6.34437C54.1205 6.58791 54.216 6.88017 54.2279 7.1846C54.2399 7.50121 54.1563 7.80565 53.9892 8.07355C53.7742 8.40233 53.4996 8.68241 53.1773 8.9016C52.5206 9.36434 51.9834 9.55918 51.5535 9.48611C51.0879 9.41305 50.7059 9.1695 50.4313 8.81636Z" fill="black"/>
</g>
<defs>
<clipPath id="clip0_6_28">
<rect width="66" height="25" fill="white"/>
</clipPath>
</defs>
</svg>
