<svg width="127" height="195" viewBox="0 0 127 195" fill="none" xmlns="http://www.w3.org/2000/svg">
<path d="M120.072 16.8307C126.934 5.28842 126.496 0.564359 125.717 0.0773425C124.939 -0.409674 120.51 1.14877 112.771 12.1554C114.523 12.6424 115.934 13.2755 116.81 13.8599C117.784 14.3956 118.903 15.4184 120.072 16.8307Z" fill="#AD2621"/>
<path d="M73.2485 113.844L80.2573 139.364C79.9166 140.095 80.1113 141.02 80.8414 141.458C81.6201 141.945 82.6422 141.75 83.129 140.971L101.771 111.994C102.257 111.215 102.063 110.192 101.284 109.705C100.797 109.413 100.213 109.413 99.7264 109.607L94.567 90.9059C85.5626 101.279 77.4344 109.9 73.2485 113.844Z" fill="#AD2621"/>
<path d="M36.7927 68.8928C36.7927 68.3571 36.5493 67.8214 36.0626 67.5292C35.2838 67.0422 34.2617 67.237 33.775 68.0162L15.1334 96.945C14.6467 97.7242 14.8414 98.747 15.6201 99.234C16.3015 99.6723 17.2263 99.5262 17.7617 98.8931L43.8502 94.8021C45.6998 89.3962 50.2264 78.3897 55.9698 65.8733L36.7927 68.8928Z" fill="#AD2621"/>
<path d="M47.6955 98.9417C50.7618 91.1982 64.7308 62.4155 77.9698 39.3796C94.8591 10.0612 113.014 11.3274 116.859 13.8599C115.983 13.2755 114.571 12.6424 112.819 12.1554C103.766 9.57417 84.8812 10.1586 71.2529 35.0451C65.8503 44.8829 60.4963 55.8895 55.9211 65.8733C50.1777 78.3896 45.6512 89.3962 43.8016 94.8021C43.6556 95.2891 43.5095 95.7274 43.3635 96.1657H43.4122L47.6955 98.9417Z" fill="#F1F0E7"/>
<path d="M94.6158 90.8572C101.868 82.5293 109.656 73.1298 116.372 64.1687C133.408 41.4738 126.156 24.0385 120.072 16.8307C118.903 15.4184 117.784 14.3956 116.859 13.8599C120.753 16.3924 129.417 32.3665 109.656 59.8343C94.1291 81.4091 73.6867 106.003 67.8947 111.994L72.1291 114.721L72.1777 114.77C72.5185 114.478 72.8106 114.185 73.2486 113.796C77.4345 109.9 85.5627 101.279 94.6158 90.8572Z" fill="#F1F0E7"/>
<path d="M77.9698 39.3309C64.6822 62.3668 50.7619 91.1495 47.6955 98.893L56.4566 104.542L66.4344 89.0553C66.9212 88.2761 67.9433 88.0813 68.722 88.5683C69.5008 89.0553 69.6955 90.078 69.2087 90.8573L59.2309 106.344L67.9919 111.994C73.784 106.003 94.2265 81.4091 109.753 59.8343C129.465 32.3666 120.85 16.3437 116.956 13.8599C113.014 11.3274 94.8592 10.0125 77.9698 39.3309ZM88.1423 72.448C85.8547 75.9546 81.1822 76.9773 77.6291 74.737C74.1247 72.448 73.1025 67.7727 75.3901 64.2175C77.6777 60.7109 82.3504 59.6882 85.9035 61.9772C89.3592 64.2662 90.3813 68.9415 88.1423 72.448ZM111.457 50.581C106.881 57.6914 97.3415 59.7369 90.2353 55.1589C83.1291 50.581 81.0849 41.0355 85.6601 33.925C90.2353 26.8146 99.7751 24.7691 106.881 29.3471C114.036 33.925 116.08 43.4218 111.457 50.581Z" fill="#FFFDF4"/>
<path d="M67.9432 111.994L59.1822 106.344L57.3326 109.218L70.2795 117.594C71.0583 118.13 72.129 117.887 72.6644 117.059C73.1512 116.28 72.9565 115.257 72.1777 114.721L72.1291 114.672L67.9432 111.994Z" fill="#646564"/>
<path d="M66.8724 119.445C67.6512 119.981 68.7219 119.737 69.2573 118.958C69.7927 118.179 69.5494 117.107 68.7706 116.572L57.3813 109.218L55.5317 112.091L66.8724 119.445Z" fill="#646564"/>
<path d="M56.4078 104.591L47.6467 98.9417L43.4122 96.2144H43.3635C42.5847 95.7761 41.5626 95.9709 41.0759 96.7502C40.5892 97.5294 40.7839 98.6008 41.5626 99.1365L43.1689 100.159C42.3901 99.6723 41.3193 99.8671 40.8326 100.695C40.2972 101.474 40.5406 102.546 41.368 103.081L52.7573 110.435L56.4078 104.591Z" fill="#646564"/>
<path d="M59.2309 106.344L69.2088 90.8573C69.6955 90.078 69.5008 89.0553 68.722 88.5683C67.9433 88.0813 66.9212 88.2761 66.4344 89.0553L56.4566 104.542L52.7574 110.289L47.7928 118.033C47.3061 118.812 47.5008 119.835 48.2796 120.322C49.0583 120.809 50.0804 120.614 50.5671 119.835L55.5317 112.091L57.3813 109.218L59.2309 106.344Z" fill="#AD2621"/>
<path d="M106.881 29.347C99.775 24.7691 90.2352 26.8145 85.66 33.925C81.0848 41.0354 83.129 50.581 90.2352 55.1589C97.3414 59.7369 106.881 57.6914 111.456 50.581C116.08 43.4218 114.036 33.925 106.881 29.347ZM110.191 49.7043C106.054 56.133 97.5361 57.9349 91.1113 53.844C84.7352 49.7043 82.8857 41.1815 86.9741 34.7529C91.1113 28.3243 99.629 26.5223 106.054 30.6133C112.43 34.7529 114.279 43.3244 110.191 49.7043Z" fill="#AD2621"/>
<path d="M106.054 30.6133C99.629 26.4737 91.1114 28.3243 86.9742 34.7529C82.837 41.1329 84.6866 49.7043 91.1114 53.844C97.5361 57.9836 106.054 56.133 110.191 49.7043C114.279 43.3244 112.43 34.7529 106.054 30.6133Z" fill="#669BD4"/>
<path d="M85.8548 61.9772C82.3503 59.6882 77.629 60.7109 75.3414 64.2174C73.0538 67.724 74.076 72.448 77.5804 74.737C81.0848 77.026 85.8061 76.0032 88.0937 72.448C90.3814 68.9415 89.3592 64.2661 85.8548 61.9772ZM87.4123 72.0097C85.368 75.1753 81.1821 76.0519 78.0184 74.0552C74.8547 72.0097 73.9787 67.8214 76.0229 64.7045C78.0672 61.5389 82.253 60.6622 85.368 62.7077C88.5318 64.7045 89.4565 68.8928 87.4123 72.0097Z" fill="#AD2621"/>
<path d="M85.4167 62.659C82.253 60.6135 78.067 61.5388 76.0715 64.6557C74.0272 67.8214 74.952 72.0097 78.0671 74.0065C81.2308 76.0519 85.4167 75.1266 87.4609 71.961C89.4565 68.8928 88.5317 64.7044 85.4167 62.659Z" fill="#669BD4"/>
<path d="M46.5761 124.948C50.3725 129.039 47.7442 140.923 39.5186 153.682C30.7088 167.319 9.24419 187.335 6.32383 185.436C3.35481 183.537 12.7486 155.728 21.5097 142.091C29.7354 129.332 39.4699 121.978 44.7752 123.78C38.7885 121.539 27.5451 129.916 18.0052 144.673C7.9787 160.257 -2.72924 192.108 0.629167 194.251C3.98757 196.443 28.5672 173.553 38.5937 157.968C48.0849 143.212 51.054 129.526 46.5761 124.948Z" fill="#AD2621"/>
<path d="M21.4609 142.091C12.6512 155.728 3.30607 183.537 6.2751 185.436C9.24412 187.335 30.7087 167.319 39.4698 153.682C47.6954 140.923 50.3724 128.991 46.5273 124.948C46.2839 124.656 45.9919 124.461 45.6999 124.218C49.3503 126.556 47.5494 135.76 41.1733 145.695C34.7485 155.63 19.1247 170.241 16.9344 168.829C14.7928 167.416 21.6069 147.156 28.0317 137.221C34.0184 127.919 41.1247 122.562 44.9698 123.877L44.7264 123.731C39.4211 121.978 29.6866 129.283 21.4609 142.091Z" fill="#CF602C"/>
<path d="M28.0316 137.221C21.6068 147.156 14.7927 167.465 16.9343 168.829C19.0759 170.241 34.7484 155.63 41.1732 145.695C47.598 135.76 49.3502 126.556 45.6998 124.218L44.9697 123.877C41.1246 122.611 34.0183 127.919 28.0316 137.221Z" fill="#FFEE36"/>
</svg>
