<svg width="96" height="114" viewBox="0 0 96 114" fill="none" xmlns="http://www.w3.org/2000/svg">
<path d="M19.1624 93.079L12.7152 88.2954L13.0622 86.7699L21.3955 93.01L21.1459 94.107L10.9373 96.1113L11.2843 94.5859L19.1624 93.079ZM11.179 95.0486L20.4519 97.158L20.0912 98.7435L10.8184 96.6341L11.179 95.0486ZM22.0778 90.0105L12.8049 87.9012L13.1675 86.3071L22.4404 88.4165L22.0778 90.0105Z" fill="white"/>
<path d="M22.1823 81.6136L17.5252 74.8583L18.1667 73.3547L26.9136 77.0867L26.272 78.5903L19.8938 75.8689L24.5509 82.6242L23.9162 84.1117L15.1694 80.3797L15.804 78.8922L22.1823 81.6136Z" fill="white"/>
<path d="M27.6725 65.0363L28.7888 65.7377L26.1143 69.9946L24.998 69.2932L27.6725 65.0363ZM21.69 66.81L29.7423 71.8692L28.8773 73.246L20.825 68.1868L21.69 66.81ZM24.8836 61.7271L32.9359 66.7862L32.0662 68.1705L24.0139 63.1113L24.8836 61.7271Z" fill="white"/>
<path d="M34.6668 60.314L32.342 52.4451L33.4195 51.2157L40.5715 57.4834L39.4941 58.7128L34.2788 54.1424L36.6035 62.0112L35.5377 63.2275L28.3856 56.9598L29.4515 55.7436L34.6668 60.314Z" fill="white"/>
<path d="M41.7853 48.0067L42.6842 48.995L39.5114 51.881L38.6124 50.8927L41.7853 48.0067Z" fill="white"/>
<path d="M47.521 47.8832L47.0168 39.6936L48.3422 38.7365L53.9096 46.4462L52.5843 47.4033L48.5245 41.7814L49.0287 49.9709L47.7176 50.9177L42.1502 43.208L43.4613 42.2612L47.521 47.8832Z" fill="white"/>
<path d="M58.3221 33.0785L58.9558 34.2646L55.0797 36.3354L58.9272 43.5371L57.493 44.3033L53.0119 35.9155L58.3221 33.0785Z" fill="white"/>
<path d="M64.1128 32.5547L68.05 43.1871L66.5169 43.7547L61.9449 31.4081L63.346 30.8892L64.1128 32.5547ZM71.1101 33.0002L71.1742 33.1733C71.4143 33.8217 71.5602 34.4518 71.6119 35.0638C71.6615 35.6702 71.6132 36.2317 71.4671 36.7482C71.3264 37.2626 71.0835 37.7118 70.7383 38.0958C70.3932 38.4798 69.9431 38.7746 69.3881 38.9801C68.8222 39.1897 68.2876 39.2814 67.7843 39.2553C67.281 39.2293 66.8122 39.0936 66.3777 38.8483C65.9432 38.6031 65.5428 38.264 65.1763 37.8312C64.8153 37.3963 64.4858 36.8778 64.1879 36.2758L63.8461 35.3527C63.6679 34.6689 63.5728 34.0325 63.5608 33.4433C63.5488 32.8542 63.623 32.3206 63.7834 31.8426C63.9473 31.357 64.2079 30.9387 64.5653 30.5877C64.9206 30.2312 65.3785 29.9491 65.939 29.7416C66.4994 29.5341 67.0374 29.4598 67.5529 29.5189C68.0663 29.5724 68.5456 29.7448 68.9909 30.036C69.4361 30.3273 69.8367 30.7257 70.1926 31.2312C70.552 31.7292 70.8578 32.3189 71.1101 33.0002ZM69.6412 33.741L69.5771 33.5679C69.4123 33.1228 69.2109 32.7225 68.9731 32.367C68.7331 32.0059 68.4593 31.7137 68.1517 31.4902C67.8474 31.2592 67.5127 31.1145 67.1474 31.0561C66.7801 30.9922 66.3876 31.0375 65.97 31.1922C65.5854 31.3346 65.2746 31.5247 65.0377 31.7623C64.8063 31.998 64.6334 32.2651 64.519 32.5636C64.4026 32.8567 64.3341 33.1694 64.3136 33.502C64.2964 33.827 64.3136 34.1518 64.3651 34.4763L65.1556 36.6111C65.4079 36.955 65.6961 37.2607 66.02 37.5281C66.342 37.79 66.7064 37.9643 67.1134 38.0511C67.5184 38.1323 67.9709 38.0803 68.4709 37.8951C68.883 37.7425 69.2059 37.5261 69.4395 37.2459C69.6766 36.9582 69.8354 36.6276 69.9158 36.2542C70.0017 35.8787 70.0191 35.4786 69.968 35.0539C69.915 34.6237 69.806 34.186 69.6412 33.741Z" fill="white"/>
<path d="M76.9165 29.9474L79.7292 29.4495C80.485 29.3157 81.1461 29.3355 81.7123 29.509C82.2775 29.6767 82.7337 29.9678 83.0808 30.3824C83.4327 30.7902 83.6602 31.2855 83.7634 31.8682C83.84 32.3009 83.837 32.721 83.7544 33.1283C83.6708 33.5299 83.504 33.8986 83.254 34.2345C83.0098 34.5693 82.6828 34.8563 82.2729 35.0954C81.8677 35.3278 81.3824 35.4941 80.817 35.5942L76.836 36.299L75.1782 26.9348L76.7792 26.6514L78.2042 34.7L80.5841 34.2787C81.0457 34.197 81.4002 34.0479 81.6475 33.8316C81.8948 33.6152 82.0555 33.3636 82.1297 33.0768C82.2039 32.7899 82.2155 32.5023 82.1644 32.2138C82.1143 31.9311 82.0047 31.6648 81.8355 31.4151C81.6664 31.1654 81.4275 30.9756 81.1189 30.8458C80.8092 30.7102 80.4236 30.6832 79.9621 30.765L77.1494 31.2629L76.9165 29.9474ZM85.9876 25.0211L87.6454 34.3853L86.0443 34.6687L84.3865 25.3046L85.9876 25.0211Z" fill="white"/>
</svg>
