<svg width="22" height="30" viewBox="0 0 22 30" fill="none" xmlns="http://www.w3.org/2000/svg">
<path d="M12.302 0.000364218C11.959 -0.007774 11.636 0.160801 11.4461 0.446799C11.2561 0.732798 11.2256 1.09621 11.3654 1.40967C11.5054 1.72334 11.7958 1.9433 12.1353 1.9926C16.1762 2.74035 19.3336 6.67272 19.3336 10.9737C19.3336 14.4252 17.3372 17.2464 14.4167 18.6512H14.0001V15.334V15.3131V13.978C14.0015 13.9466 14.0015 13.9152 14.0001 13.884V11.9751C14.0056 11.7042 13.9012 11.4424 13.7108 11.2498C13.5206 11.0573 13.2602 10.9501 12.9895 10.9529C12.7226 10.9557 12.4678 11.0652 12.2817 11.2573C12.096 11.4493 11.9946 11.7079 11.9999 11.9753V13.3104L10.6667 13.884L9.33346 13.3104V11.9753C9.33904 11.7041 9.23464 11.4426 9.0442 11.2498C8.85377 11.0573 8.59358 10.9501 8.32294 10.9528C8.05578 10.9556 7.80094 11.0652 7.61514 11.2572C7.42935 11.4493 7.32774 11.7078 7.33332 11.9752V13.9049C7.33239 13.9293 7.33239 13.9535 7.33332 13.9779V15.313C7.33146 15.3479 7.33146 15.3828 7.33332 15.4174V18.651H6.91665C3.99625 17.2464 1.99979 14.4253 1.99979 10.9736C1.99979 6.70218 5.14853 2.78236 9.15644 2.00259C9.41756 1.95143 9.64799 1.79867 9.79657 1.57754C9.94515 1.35642 10 1.08531 9.94887 0.823724C9.89772 0.562143 9.74472 0.331717 9.52383 0.182881C9.30294 0.0343016 9.03229 -0.020342 8.77096 0.0310456C3.74696 1.0088 0 5.73286 0 10.9735C0 15.0493 2.31819 18.4682 5.66669 20.2468V23.6579C5.66669 24.7037 6.21125 25.6331 7.03135 26.1718C7.23736 28.2382 8.67965 30 10.6668 30C12.6539 30 14.0962 28.2382 14.3022 26.1718C15.1222 25.6331 15.6668 24.7037 15.6668 23.6579V20.2468C19.0153 18.468 21.3335 15.0494 21.3335 10.9735C21.3335 5.70601 17.5679 0.95844 12.5001 0.0209264C12.435 0.00744051 12.3687 0.000464888 12.3022 0L12.302 0.000364218ZM9.33318 15.4905L10.2707 15.8974C10.5232 16.0064 10.8097 16.0064 11.0622 15.8974L11.9997 15.5009V18.6511H9.33294V15.4905L9.33318 15.4905ZM7.66649 20.654H11.5623C11.2049 20.6726 10.8847 20.8807 10.7222 21.1997C10.5597 21.519 10.5797 21.9007 10.7743 22.2012C10.9692 22.5018 11.3091 22.6753 11.6665 22.6567H13.6666V23.6581C13.6666 24.2301 13.2379 24.6596 12.6666 24.6596H9.77057C10.1279 24.641 10.4481 24.4328 10.6106 24.1136C10.7732 23.7946 10.7532 23.4128 10.5586 23.1122C10.3637 22.8117 10.0238 22.6381 9.6664 22.6567H7.66625V20.6539L7.66649 20.654ZM9.16645 26.6624H12.1664C11.8767 27.4895 11.253 27.9976 10.6664 27.9976C10.0798 27.9976 9.45592 27.4893 9.16645 26.6624Z" fill="#DE6600"/>
</svg>
