<svg width="131" height="97" viewBox="0 0 131 97" fill="none" xmlns="http://www.w3.org/2000/svg">
<path d="M75.0389 75.3883C74.4639 75.5761 73.8576 75.8162 73.2721 75.9621C73.8576 75.8162 74.4325 75.6284 75.0389 75.3883Z" fill="#BD8B2A"/>
<path d="M66.1533 76.9815C65.6725 77.0125 65.2231 76.9912 64.7318 76.9804C65.2231 76.9912 65.7143 77.0021 66.1533 76.9815Z" fill="#BD8B2A"/>
<path d="M63.2894 76.8957C62.9236 76.8536 62.516 76.8219 62.1501 76.7798C62.516 76.8219 62.9236 76.8536 63.2894 76.8957Z" fill="#BD8B2A"/>
<path d="M60.4779 76.4856C60.1957 76.4226 59.8718 76.3701 59.5896 76.3071C59.8718 76.3701 60.1539 76.4331 60.4779 76.4856Z" fill="#BD8B2A"/>
<path d="M67.7596 20.3628C64.1431 20.109 60.4636 20.4931 56.8465 21.6616C56.4806 21.7972 56.0624 21.9015 55.7069 22.079C55.3828 22.2043 55.0169 22.3399 54.6928 22.4652C54.0133 22.7679 53.2919 23.0811 52.6228 23.4257L52.4659 23.5093L52.4241 23.5197L52.0791 23.739C51.2949 24.1568 50.5212 24.6163 49.7579 25.1177C49.3815 25.3893 49.0051 25.661 48.6391 25.9744C48.1895 26.3087 47.7816 26.6326 47.3738 26.9565C46.966 27.2804 46.5686 27.6461 46.1817 28.0537C45.8575 28.3567 45.502 28.712 45.1882 29.0569C44.8013 29.4644 44.4143 29.872 44.0796 30.311C43.8077 30.6454 43.5358 30.9799 43.2638 31.3143C42.8873 31.7637 42.563 32.2446 42.2388 32.7254C42.0086 33.0494 41.8204 33.363 41.6321 33.6766C40.4918 35.5163 39.5606 37.4817 38.8697 39.5205C38.7651 39.8133 38.6604 40.106 38.5661 40.4406C38.3672 41.0679 38.2519 41.6744 38.0949 42.2913C38.0424 42.6155 37.9482 42.9501 37.8958 43.2742C37.8329 43.5565 37.77 43.8389 37.7072 44.1212L37.749 44.1108C39.0872 43.5994 40.4672 43.0775 41.9204 42.493C51.9777 38.4744 62.3716 30.2833 67.7596 20.3628Z" fill="#C69441"/>
<path d="M45.3361 68.3061C45.566 68.5154 45.7645 68.777 45.9943 68.9863C46.2346 69.2375 46.4749 69.4887 46.7152 69.7399C50.6581 65.0682 55.467 63.6914 61.4366 61.2698C62.3252 60.9149 63.2139 60.56 64.0816 60.1214C65.368 58.6897 66.6439 57.2161 67.9512 55.6902C67.4286 55.7316 66.8642 55.7835 66.3415 55.8249C59.9443 56.3533 53.7875 56.7773 47.9862 57.0238C46.3334 59.658 44.3671 62.1037 41.9725 64.0784L41.9411 64.1307C42.2963 64.6643 42.6723 65.1038 43.0588 65.5852C43.3304 65.9619 43.602 66.3386 43.9154 66.7049C44.3332 67.3118 44.8137 67.8141 45.3361 68.3061Z" fill="#B47627"/>
<path d="M69.3519 55.6077C68.3479 56.7469 67.3857 57.8756 66.4235 59.0043C68.5041 57.9078 70.5534 56.6858 72.5192 55.3069C71.432 55.4002 70.3868 55.483 69.3519 55.6077Z" fill="#B47627"/>
<path d="M78.5522 30.3376C73.7739 33.44 67.7949 33.6863 62.8703 36.5585C57.7575 39.5665 54.0551 44.1338 51.7214 49.7375C50.8528 51.7762 49.8797 53.9298 48.6557 55.9681C54.0807 55.8155 60.0388 55.4854 66.2584 54.9569C67.126 54.8739 67.9936 54.7909 68.8612 54.7079C69.405 54.039 70.0011 53.4015 70.545 52.7326C77.2594 44.7479 83.0853 37.118 87.5099 30.6374C86.2355 29.0886 84.8146 27.6652 83.2682 26.4509C82.0132 27.8304 80.4761 29.1469 78.5522 30.3376Z" fill="#B47627"/>
<path d="M89.7243 33.6405C89.2856 32.9499 88.8573 32.3012 88.3977 31.7047C83.5236 38.3418 77.7188 45.6998 71.3076 53.2979C70.9625 53.695 70.6174 54.0922 70.2408 54.5416C71.537 54.3962 72.8019 54.303 74.0562 54.168C81.1562 48.7981 87.1281 41.5762 89.7243 33.6405Z" fill="#B47627"/>
<path d="M93.6766 52.6983C91.2409 53.0833 88.753 53.437 86.1292 53.7801C84.8224 54.2392 83.5784 54.7716 82.376 55.4714C77.2632 58.4793 73.5189 63.0571 71.227 68.6504C70.0968 71.4209 68.6529 74.3585 66.8328 77.0344L67.3555 76.9929C67.9722 76.9725 68.6203 76.8998 69.2684 76.8271C69.6133 76.7855 69.9583 76.744 70.3032 76.7024C70.9409 76.5878 71.5785 76.4733 72.2058 76.3169C72.5821 76.2231 72.9271 76.1815 73.293 76.0458C73.8784 75.8999 74.4848 75.6598 75.0597 75.472C75.4257 75.3363 75.802 75.2425 76.1679 75.1068C76.8997 74.8355 77.6525 74.47 78.3635 74.115L78.9175 73.8435L78.9594 73.8331C79.984 73.311 80.9355 72.6738 81.887 72.0366L82.4098 71.6396C83.2045 71.0859 83.9365 70.459 84.6685 69.8321L85.024 69.4768C89.8031 64.9521 92.7641 59.0142 93.6766 52.6983Z" fill="#A43D22"/>
<path d="M93.4367 51.3804L93.9071 51.3076L93.928 51.2135L93.4367 51.3804Z" fill="#A43D22"/>
<path d="M90.7895 35.4193C90.4554 34.7916 90.0898 34.2161 89.7242 33.6406C87.1699 41.5659 81.1562 48.7982 74.0458 54.1263C81.2271 53.358 87.8231 52.38 93.4262 51.3385L93.9175 51.1716C94.3905 45.9429 93.4315 40.4935 90.7895 35.4193Z" fill="#AA5624"/>
<path d="M46.7152 69.7399C47.0077 70.0225 47.3316 70.2529 47.6555 70.4832L47.8854 70.6925C48.5018 71.2054 49.1496 71.6661 49.8393 72.1163L50.1528 72.3048C50.6335 72.6294 51.1141 72.954 51.6261 73.2263C55.4536 69.5166 59.6891 65.1275 64.1234 60.1111C63.2452 60.5078 62.367 60.9045 61.4784 61.2594C55.4565 63.6496 50.6476 65.0264 46.7152 69.7399Z" fill="#AA5624"/>
<path d="M71.2165 68.6085C73.5083 63.0152 77.2526 58.4375 82.3654 55.4295C83.5678 54.7298 84.8119 54.1974 86.1187 53.7382C81.7701 54.2892 77.2439 54.8399 72.4669 55.2755C70.5011 56.6544 68.4518 57.8764 66.3712 58.9729C61.644 64.4179 57.0737 69.4238 52.8069 73.8652C53.3712 74.1689 53.9251 74.4308 54.5207 74.6822L55.0224 74.9127C55.6703 75.1956 56.3496 75.4262 56.9766 75.6254L57.6455 75.8141C58.2725 76.0133 58.8892 76.1707 59.4953 76.2862C59.7775 76.3491 60.1015 76.4017 60.3837 76.4646C60.9377 76.5487 61.502 76.6747 62.0456 76.7169C62.4114 76.759 62.819 76.7907 63.1848 76.8328C63.6865 76.8855 64.136 76.9068 64.6273 76.9176C65.1185 76.9285 65.568 76.9497 66.0488 76.9187L66.7178 76.9297C68.6423 74.3167 70.0862 71.3791 71.2165 68.6085Z" fill="#AA5624"/>
<path d="M7.31662 54.0537L7.38972 54.1688L7.64045 54.4619L7.80764 54.5979L8.22559 54.8493L8.42416 54.9331C8.67496 55.0483 8.92576 55.1635 9.21838 55.2683L9.41695 55.3522C9.65732 55.4256 9.90811 55.5408 10.1903 55.6038L10.5666 55.6877C10.8488 55.7507 11.0892 55.8241 11.4132 55.8766L11.7894 55.9606C12.1656 56.0445 12.5837 56.1181 13.0018 56.1916L13.1377 56.2021C13.6498 56.2967 14.1515 56.3493 14.7054 56.4334L15.0294 56.486C15.4893 56.5491 15.9492 56.6122 16.4509 56.6649L16.8585 56.6966C17.402 56.7388 17.956 56.8229 18.5413 56.8547L18.8131 56.8759C20.2137 56.9711 21.7083 57.0873 23.2762 57.1408L23.5479 57.1619C24.2691 57.2043 25.0322 57.2362 25.7952 57.2682L26.0147 57.2579C28.6069 57.3227 31.3768 57.3876 34.3453 57.3585L34.4394 57.3795C35.8192 57.391 37.2303 57.3503 38.6936 57.3409C41.6099 57.2804 44.7353 57.1678 47.9025 57.0448C53.7038 56.7983 59.8605 56.3743 66.2578 55.8458C66.7804 55.8044 67.3449 55.7526 67.8675 55.7111C66.5602 57.237 65.2843 58.7106 63.9979 60.1424C59.5531 65.117 55.2863 69.5584 51.5006 73.2576C50.3921 74.3339 49.3464 75.3057 48.3425 76.2671C47.8405 76.7478 47.3281 77.1866 46.8575 77.615C46.5647 77.8658 46.2719 78.1166 45.9791 78.3673C45.5086 78.7957 45.0694 79.1719 44.6198 79.5062C44.3688 79.7465 44.0655 79.9555 43.8146 80.1958C43.3649 80.5301 42.999 80.8436 42.5912 81.1675C42.3297 81.366 42.0683 81.5645 41.8487 81.7525C41.4723 82.0242 41.0959 82.2958 40.7508 82.5151C40.5208 82.6614 40.3012 82.8495 40.1025 82.9434C39.7575 83.1628 39.4439 83.3299 39.172 83.4865L38.5865 83.8103C38.3147 83.9669 38.0638 84.0295 37.7815 84.1443L37.3424 84.3427C37.0915 84.4052 36.8824 84.4574 36.6629 84.4676L36.3598 84.4988C36.088 84.4776 35.8476 84.4043 35.6805 84.2682C35.5133 84.1321 35.4193 83.9333 35.3463 83.6404L35.3569 83.3267C35.3466 83.1071 35.3048 82.9397 35.3677 82.6574L35.462 82.145C35.5353 81.9045 35.5563 81.6326 35.661 81.3399L35.9017 80.7021C36.0064 80.4094 36.1006 80.0748 36.2785 79.7194L36.6238 78.9667C36.7912 78.5694 36.9691 78.2139 37.1784 77.8062C37.3353 77.5449 37.4818 77.2417 37.6282 76.9386C37.8689 76.4786 38.0781 76.0709 38.3606 75.6005C38.5071 75.2973 38.6954 74.9837 38.8837 74.6701C39.1557 74.1579 39.4695 73.6352 39.7834 73.1126C39.9717 72.799 40.16 72.4854 40.3483 72.1718C40.7353 71.5864 41.0805 71.0115 41.4989 70.3739C42.2312 69.2136 43.0366 67.9906 43.9257 66.7468C43.6123 66.3805 43.3825 65.9934 43.0691 65.6271C42.1696 66.8291 41.3538 68.0102 40.5275 69.1495L40.4647 69.2541C40.0672 69.7976 39.7115 70.3307 39.3141 70.8742C38.8852 71.47 38.4982 72.0553 38.1112 72.6407C37.7869 73.1215 37.4208 73.6127 37.0966 74.0935C36.5108 74.9507 35.9669 75.7973 35.4543 76.5918C35.1928 76.968 34.9731 77.3339 34.7116 77.7102C34.2304 78.4524 33.791 79.1841 33.3412 79.874C33.1529 80.1876 32.9647 80.5012 32.7659 80.7729C32.3266 81.5046 31.9186 82.1841 31.5524 82.8531L31.0816 83.6371C30.6527 84.4107 30.2551 85.132 29.889 85.801L29.6484 86.261C29.345 86.8255 29.0834 87.3796 28.8636 87.9232L28.6334 88.425C28.3823 89.0209 28.1625 89.5646 27.9741 90.056L27.8798 90.3906C27.7228 90.8297 27.639 91.2061 27.5552 91.5825L27.5133 91.7707C27.4713 92.1367 27.4712 92.4923 27.4919 92.7538L27.5337 92.9212C27.5963 93.1722 27.7006 93.4128 27.8678 93.5489C28.035 93.685 28.2754 93.7584 28.5471 93.7795L28.7248 93.7796C29.028 93.7485 29.3311 93.7174 29.697 93.5817L29.8538 93.4982C30.2197 93.3625 30.5752 93.185 31.0143 92.9866L31.328 92.8195C31.7985 92.5689 32.3004 92.266 32.8754 91.9004L33.2519 91.6288C33.7433 91.284 34.2765 90.9289 34.7994 90.5319L35.1758 90.2603C35.8136 89.7901 36.4829 89.2678 37.1417 88.7035C37.3613 88.5154 37.5494 88.3796 37.769 88.1916C38.3964 87.6796 39.0553 87.1154 39.714 86.5511L40.1846 86.1227C40.9166 85.4958 41.6381 84.8271 42.3911 84.106C42.6839 83.8553 42.9662 83.5627 43.259 83.3119C44.0538 82.5804 44.8799 81.7967 45.7061 81.013C45.9571 80.7727 46.208 80.5323 46.459 80.292C47.1388 79.6337 47.8185 78.9753 48.5296 78.2647C48.8852 77.9094 49.2093 77.6064 49.5649 77.2511L49.8473 76.9585C50.799 75.9657 51.7925 74.9625 52.8173 73.907C57.0842 69.4656 61.6544 64.4597 66.3816 59.0147C67.3438 57.886 68.306 56.7573 69.31 55.6181C70.3553 55.5353 71.432 55.4002 72.4773 55.3173C77.2021 54.8504 81.7805 54.331 86.1291 53.7801C88.7528 53.437 91.2826 53.0729 93.6764 52.6983L93.76 52.6774C95.9029 52.3653 97.9936 52.0218 99.9484 51.6678L100.252 51.6366C101.192 51.491 102.081 51.3139 103.011 51.1263C104.841 50.8035 106.618 50.4493 108.259 50.0846L108.51 50.022C109.273 49.8762 109.984 49.699 110.653 49.5321L110.862 49.48C112.367 49.1047 113.747 48.7606 115.044 48.4374L115.253 48.3853C115.796 48.2498 116.329 48.0724 116.821 47.9055L117.113 47.8325C118.222 47.4673 119.246 47.123 120.135 46.7681L120.292 46.6846C120.657 46.5489 120.971 46.3818 121.295 46.2566L121.578 46.1417C121.86 46.0269 122.132 45.8702 122.362 45.724L122.518 45.6405C122.79 45.4838 123.062 45.3272 123.282 45.1391L123.355 45.0764L123.826 44.648L123.93 44.533L124.16 44.209L124.213 44.0626L124.276 43.6025L124.129 43.1945L124.056 43.0794L123.806 42.7864L123.638 42.6503L123.21 42.3572L123.053 42.2629C122.802 42.1477 122.552 42.0325 122.259 41.9277L122.165 41.9067C121.872 41.8019 121.58 41.6971 121.297 41.6341L121.005 41.5293C120.723 41.4663 120.43 41.3615 120.106 41.309L119.772 41.2146C119.395 41.1306 118.977 41.0571 118.559 40.9836L118.423 40.973C117.911 40.8785 117.357 40.7944 116.803 40.7103L116.709 40.6893C116.197 40.5948 115.612 40.563 115.058 40.4789L114.734 40.4263C114.19 40.3841 113.647 40.3418 113.093 40.2577L112.779 40.247C111.421 40.1414 109.926 40.0252 108.358 39.9717L108.264 39.9507C107.501 39.9187 106.738 39.8868 105.975 39.8548L105.62 39.8545C104.857 39.8226 104.052 39.801 103.247 39.7795L103.027 39.7898C101.24 39.7466 99.4212 39.7556 97.4666 39.7541L97.3307 39.7435C95.8256 39.7633 94.2681 39.7516 92.6793 39.7922C92.8359 40.242 92.9506 40.7023 93.0967 41.1103C94.7064 41.1533 96.2639 41.165 97.7063 41.2498C98.4693 41.2818 99.1905 41.3242 99.9117 41.3665C100.225 41.3772 100.539 41.3879 100.863 41.4405C101.584 41.4829 102.222 41.5461 102.859 41.6094C103.131 41.6305 103.403 41.6516 103.674 41.6727C104.312 41.736 104.866 41.8201 105.42 41.9042L106.152 41.9884C106.664 42.0829 107.124 42.146 107.594 42.251L108.242 42.356C108.66 42.4296 109.005 42.5658 109.381 42.6497L109.914 42.8279C110.249 42.9223 110.499 43.0376 110.75 43.1528L111.147 43.3204L111.691 43.7183L111.91 43.8858C112.098 44.1055 112.192 44.3043 112.202 44.5239L111.972 45.2035L111.763 45.4334C111.627 45.6007 111.491 45.7679 111.261 45.9141L110.884 46.1858C110.654 46.332 110.383 46.4886 110.069 46.6557L109.473 46.9376C109.159 47.1047 108.793 47.2404 108.396 47.4283C108.156 47.5327 107.905 47.5953 107.664 47.6997C107.257 47.8458 106.807 48.0023 106.316 48.1692C106.034 48.2841 105.741 48.3571 105.406 48.4405C104.915 48.6074 104.371 48.7429 103.796 48.9307C103.462 49.0141 103.127 49.0975 102.793 49.1809C102.166 49.3373 101.538 49.4937 100.911 49.6501C100.535 49.7439 100.2 49.8274 99.8238 49.9212C99.113 50.0984 98.3917 50.2338 97.639 50.4215C96.4578 50.6716 95.2347 50.9321 93.9594 51.1611L93.9175 51.1716L93.4471 51.2444C87.844 52.2859 81.2376 53.222 74.0667 54.0322C72.8124 54.1672 71.558 54.3022 70.2513 54.4057C70.5965 54.0086 70.9416 53.6115 71.3181 53.162C77.7293 45.564 83.5237 38.1641 88.4083 31.5689L88.4396 31.5166C89.1404 30.5864 89.7576 29.677 90.427 28.799C90.6571 28.475 90.8872 28.151 91.1173 27.827C91.3892 27.4925 91.6089 27.1267 91.839 26.8026C92.5607 25.7783 93.2825 24.754 93.9624 23.7401C94.1507 23.4265 94.3494 23.1547 94.5796 22.8307C95.1026 22.0781 95.5837 21.336 96.0649 20.5938C96.295 20.2698 96.5251 19.9458 96.7134 19.6322C97.2888 18.7332 97.8328 17.8865 98.3767 17.0398L98.8788 16.2036C99.2973 15.566 99.6634 14.8969 100.009 14.322L100.448 13.5903C100.877 12.8167 101.274 12.0954 101.641 11.4264L101.975 10.8096C102.279 10.2451 102.54 9.69105 102.771 9.18924L102.98 8.78153C103.231 8.18561 103.451 7.64195 103.629 7.10873L103.754 6.72188C103.911 6.28276 103.985 5.8645 104.069 5.48808L104.121 5.3417C104.205 4.96527 104.163 4.62012 104.142 4.35866L104.09 4.14945C104.028 3.89841 103.923 3.6578 103.756 3.52171C103.589 3.38563 103.348 3.31224 103.077 3.29111L102.899 3.29096C102.638 3.31168 102.293 3.35325 101.927 3.48892L101.728 3.58289C101.404 3.70814 101.007 3.89608 100.609 4.08402L100.296 4.2511C99.8253 4.50173 99.3235 4.80463 98.7902 5.15979L98.372 5.44183C97.8805 5.78657 97.3473 6.14173 96.8245 6.53873L96.4898 6.79992C95.852 7.27004 95.1828 7.79244 94.524 8.35666C94.3044 8.54474 94.1162 8.68054 93.8966 8.86862C93.196 9.44327 92.5058 10.0598 91.732 10.6971L91.2614 11.1255C90.6026 11.6898 89.9124 12.3062 89.2327 12.9646C88.9817 13.2049 88.7308 13.4453 88.438 13.696C87.6432 14.4275 86.8171 15.2112 86.0013 16.0368C85.7504 16.2771 85.468 16.5697 85.1752 16.8205C84.4955 17.4788 83.7844 18.1894 83.0732 18.9C82.7909 19.1926 82.4981 19.4434 82.2575 19.7256L82.0797 19.9032C81.013 20.9691 79.9568 22.0768 78.8169 23.2054C79.2245 23.4149 79.632 23.6244 80.05 23.8757C81.2003 22.789 82.3088 21.7126 83.3545 20.7408C83.9715 20.187 84.5153 19.6959 85.1009 19.1944C85.3205 19.0063 85.4983 18.8287 85.7179 18.6406C86.2616 18.1495 86.7845 17.7525 87.2969 17.3136L87.8824 16.8121C88.3635 16.4255 88.8131 16.0912 89.2627 15.7569L89.8587 15.2972C90.2665 14.9733 90.6534 14.7435 91.0298 14.4719L91.563 14.1168C91.9081 13.8974 92.2636 13.7199 92.5773 13.5528L93.0791 13.2499C93.3928 13.0828 93.6436 13.0203 93.9259 12.9055L94.3336 12.7594C94.5845 12.6968 94.8041 12.6865 95.0132 12.6344L95.2745 12.6137C95.5462 12.6348 95.7866 12.7082 95.9538 12.8443C96.121 12.9804 96.2253 13.221 96.2879 13.472L96.2773 13.7858C96.2877 14.0054 96.298 14.225 96.2665 14.4551L96.1722 14.9674C96.1094 15.2498 96.0361 15.4902 95.9418 15.8248L95.7115 16.5044C95.5755 16.8494 95.4812 17.184 95.3034 17.5395L94.9685 18.334C94.8011 18.7313 94.5918 19.139 94.3826 19.5467C94.2361 19.8499 94.0896 20.153 93.8909 20.4248C93.6503 20.8848 93.4096 21.3447 93.1272 21.8151C92.9389 22.1287 92.761 22.4842 92.5309 22.8082C92.2484 23.2786 91.9346 23.8012 91.6207 24.3239C91.4011 24.6898 91.1814 25.0556 90.9199 25.4319C90.6061 25.9546 90.2504 26.4877 89.9052 27.0626C89.2357 28.1183 88.4826 29.1949 87.7399 30.3134L87.6772 30.4179C83.2839 36.8462 77.4685 44.518 70.7122 52.5132C70.1265 53.1925 69.5722 53.8195 69.0284 54.4884C68.1608 54.5714 67.2932 54.6544 66.4256 54.7374C60.206 55.266 54.2897 55.5856 48.8229 55.7487C45.1227 55.8713 41.6629 55.8896 38.4958 55.8348C36.9802 55.8127 35.5063 55.7802 34.1162 55.7269C33.395 55.6845 32.726 55.6735 32.0884 55.6102C31.7226 55.5681 31.3254 55.5783 30.9596 55.5362C30.322 55.4729 29.6949 55.4515 29.0991 55.3778C28.7751 55.3253 28.4198 55.325 28.1376 55.2621C27.5418 55.1884 27.0401 55.1357 26.4861 55.0516C26.2144 55.0305 25.8904 54.978 25.6605 54.9464C25.1588 54.8937 24.7303 54.7784 24.2704 54.7153L23.5701 54.5788C23.1521 54.5052 22.8072 54.369 22.4727 54.2746L21.8979 54.1068C21.5635 54.0125 21.3127 53.8972 21.0619 53.782L20.623 53.6248L20.0796 53.227L19.8602 53.0595C19.6722 52.8397 19.5782 52.6409 19.5678 52.4213L19.7563 51.7521L19.9341 51.5745C20.0701 51.4072 20.206 51.24 20.4256 51.0519L20.7706 50.8326C21.0425 50.6759 21.2621 50.4879 21.5758 50.3208L22.0567 50.112C22.4122 49.9345 22.7677 49.757 23.1754 49.6109L23.7817 49.3708C24.2313 49.2143 24.6703 49.0159 25.1617 48.849C25.4126 48.7864 25.6531 48.682 25.904 48.6195C26.4371 48.4421 26.9703 48.2647 27.5557 48.1187C27.8484 48.0458 28.1411 47.9728 28.4338 47.8998C29.0611 47.7434 29.636 47.5556 30.3051 47.3888C30.6396 47.3054 30.9741 47.222 31.3087 47.1386C31.9777 46.9718 32.6468 46.805 33.3681 46.6696C34.7584 46.3674 36.201 46.0966 37.7272 45.8049C37.7901 45.3448 37.8531 44.8847 37.916 44.4246C30.0865 45.6212 23.3962 46.9338 18.2215 48.2684L18.1797 48.2788C17.5107 48.4456 16.9252 48.5916 16.3084 48.7898L16.0994 48.8419C15.514 48.9879 14.9389 49.1757 14.4058 49.3531C13.2976 49.7183 12.3149 50.0522 11.4681 50.3966L11.2276 50.501C10.9036 50.6263 10.5899 50.7934 10.3076 50.9082L10.0672 51.0126C9.75349 51.1796 9.47124 51.2945 9.19939 51.4511L9.12617 51.5138C8.85432 51.6705 8.62428 51.8167 8.40469 52.0048L8.25833 52.1302L7.86091 52.4959L7.72499 52.6631L7.49484 52.9871L7.44252 53.1335L7.36914 53.5518L7.31662 54.0537Z" fill="#FAE258"/>
<path d="M47.3843 26.9983C47.7816 26.6325 48.2313 26.2982 48.6495 26.0162C48.2313 26.2982 47.7816 26.6325 47.3843 26.9983Z" fill="#BD8B2A"/>
<path d="M84.6475 69.7484C83.9155 70.3753 83.1836 71.0022 82.3889 71.5559C83.1836 71.0022 83.926 70.4171 84.6475 69.7484Z" fill="#BD8B2A"/>
<path d="M57.6978 75.8455L57.0289 75.6567L57.6978 75.8455Z" fill="#BD8B2A"/>
<path d="M45.3361 68.3062C45.5659 68.5155 45.7644 68.7771 45.9943 68.9864C45.7644 68.7771 45.5241 68.5259 45.3361 68.3062Z" fill="#BD8B2A"/>
<path d="M55.0642 74.9022L54.5626 74.6718L55.0642 74.9022Z" fill="#BD8B2A"/>
<path d="M38.7877 57.3619C39.2991 58.8787 39.8942 60.3747 40.667 61.8708C41.0847 62.6554 41.5442 63.4297 42.0351 64.1517C44.4297 62.177 46.396 59.7313 48.0488 57.0971C44.7876 57.1992 41.704 57.3014 38.7877 57.3619Z" fill="#BD8B2A"/>
<path d="M50.111 72.3153L49.7975 72.1268L50.111 72.3153Z" fill="#BD8B2A"/>
<path d="M47.6555 70.4832L47.8854 70.6925L47.6555 70.4832Z" fill="#BD8B2A"/>
<path d="M72.1848 76.2332C71.5576 76.3896 70.9199 76.5042 70.2822 76.6187C70.9199 76.5042 71.5576 76.3896 72.1848 76.2332Z" fill="#BD8B2A"/>
<path d="M78.3426 74.0313C77.6316 74.3863 76.8789 74.7518 76.147 75.0231C76.8789 74.7518 77.6316 74.3863 78.3426 74.0313Z" fill="#BD8B2A"/>
<path d="M69.2579 76.7852C68.6098 76.8579 68.0035 76.9202 67.345 76.951C68.0035 76.9202 68.6516 76.8475 69.2579 76.7852Z" fill="#BD8B2A"/>
<path d="M54.7452 22.4966C55.0693 22.3713 55.4352 22.2356 55.7593 22.1104C55.3829 22.2042 55.0588 22.3295 54.7452 22.4966Z" fill="#BD8B2A"/>
<path d="M85.0135 69.4349C89.8448 64.9417 92.858 59.0352 93.8019 52.6669L93.7183 52.6878C92.764 59.0142 89.803 64.9521 85.0135 69.4349Z" fill="#BD8B2A"/>
<path d="M49.8101 25.1491C50.5316 24.6582 51.3053 24.1986 52.1312 23.7705C51.3053 24.1986 50.5316 24.6582 49.8101 25.1491Z" fill="#BD8B2A"/>
<path d="M78.9384 73.7495C79.963 73.2274 80.9145 72.5902 81.8241 71.9634C80.9145 72.5902 79.963 73.2274 78.9384 73.7495Z" fill="#BD8B2A"/>
<path d="M37.9167 43.1801C37.9691 42.8559 38.0634 42.5214 38.1158 42.1972C38.0215 42.5318 37.9691 42.8559 37.9167 43.1801Z" fill="#BD8B2A"/>
<path d="M38.3599 56.0021C41.527 56.0568 44.9867 56.0386 48.687 55.916C49.8587 53.8462 50.8841 51.724 51.7527 49.6853C54.0445 44.092 57.7888 39.5143 62.9016 36.5063C67.7844 33.6446 73.8052 33.3878 78.5835 30.2854C80.5178 29.1365 82.055 27.82 83.2995 26.3987C84.8459 27.613 86.2668 29.0364 87.5412 30.5852L87.604 30.4807C85.4312 27.8226 82.7668 25.6871 79.9037 24.0011C79.4857 23.7498 79.0781 23.5403 78.6706 23.3309C72.0558 19.9582 64.2376 19.241 56.9301 21.6407C60.5054 20.4827 64.2163 20.0463 67.8432 20.3419C62.4552 30.2625 52.0614 38.4536 42.0145 42.3362C40.5613 42.9207 39.1813 43.4426 37.8431 43.954L37.7593 44.5082C37.6963 44.9683 37.6334 45.4284 37.5705 45.8885C37.182 49.3185 37.4417 52.6757 38.3599 56.0021Z" fill="#BD8B2A"/>
<path d="M41.6635 33.6243C41.8518 33.3107 42.0401 32.9971 42.2702 32.6731C42.0401 32.9971 41.8518 33.3107 41.6635 33.6243Z" fill="#BD8B2A"/>
<path d="M38.5975 40.3883C38.7022 40.0956 38.8069 39.8029 38.9011 39.4683C38.7964 39.761 38.6917 40.0538 38.5975 40.3883Z" fill="#BD8B2A"/>
<path d="M89.7243 33.6406C90.0899 34.216 90.4554 34.7915 90.7896 35.4193C93.4212 40.4516 94.3905 45.9429 93.928 51.2134L93.9071 51.3075L93.9489 51.2971C94.2745 47.9717 94.0045 44.5726 93.0863 41.2462C92.9715 40.7859 92.8149 40.3361 92.6688 39.9281C92.1574 38.4113 91.5623 36.9154 90.8 35.4611C90.1108 34.1219 89.2648 32.8663 88.3978 31.7048L88.3664 31.7571C88.8574 32.3013 89.2961 32.9918 89.7243 33.6406Z" fill="#BD8B2A"/>
<path d="M45.23 29.0464C45.5437 28.7015 45.8679 28.3985 46.2235 28.0432C45.8679 28.3985 45.5437 28.7015 45.23 29.0464Z" fill="#BD8B2A"/>
<path d="M43.3056 31.3039C43.5775 30.9695 43.8076 30.6454 44.1214 30.3006C43.7972 30.6036 43.5671 30.9276 43.3056 31.3039Z" fill="#BD8B2A"/>
</svg>
