<svg width="110" height="110" viewBox="0 0 110 110" fill="none" xmlns="http://www.w3.org/2000/svg">
<path d="M32.7363 87.1317L32.58 87.138L32.5921 87.7106L78.8885 86.5962L78.8732 86.3179L32.7516 87.41L32.7363 87.1317Z" fill="#C3C9CE"/>
<path d="M77.4837 22.6756L77.0147 22.6946L78.5821 86.0204L32.7363 87.1318L32.7516 87.41L78.8732 86.318L79.048 86.2956L78.0466 46.1893L77.745 33.8507L77.4837 22.6756Z" fill="#D1D7DC"/>
<path d="M34.1363 52.0968C34.1468 52.444 33.8678 52.7189 33.5206 52.7292L32.4791 52.76C32.7012 53.0528 33.0316 53.2839 33.4317 53.26C34.0731 53.2531 34.5782 52.7168 34.5525 52.0914C34.5452 51.4499 34.0087 50.9444 33.3833 50.9698C32.9832 50.9937 32.6561 51.2133 32.4621 51.5115L33.5036 51.4807C33.8163 51.468 34.1259 51.7496 34.1363 52.0968Z" fill="#D1D7DC"/>
<path d="M34.7603 77.4684C34.7708 77.8156 34.4918 78.0905 34.1446 78.1008L33.1031 78.1316C33.3252 78.4244 33.6556 78.6555 34.0557 78.6316C34.6972 78.6247 35.2022 78.0884 35.1765 77.463C35.1692 76.8215 34.6327 76.316 34.0073 76.3414C33.6072 76.3653 33.2801 76.5849 33.0861 76.8831L34.1276 76.8523C34.4403 76.8396 34.7499 77.1212 34.7603 77.4684Z" fill="#D1D7DC"/>
<path d="M34.4483 64.7825C34.4588 65.1297 34.1959 65.4231 33.8326 65.4149L32.7911 65.4457C33.0132 65.7385 33.3436 65.9696 33.7437 65.9457C34.3851 65.9388 34.8902 65.4026 34.8645 64.7771C34.8572 64.1356 34.3207 63.6302 33.6953 63.6556C33.2952 63.6794 32.9681 63.899 32.7741 64.1972L33.8156 64.1664C34.1283 64.1537 34.4379 64.4353 34.4483 64.7825Z" fill="#D1D7DC"/>
<path d="M34.9072 83.8193C34.9176 84.1666 34.6547 84.4599 34.2915 84.4517L33.2499 84.4825C33.4721 84.7753 33.8025 85.0064 34.2026 84.9825C34.844 84.9756 35.3491 84.4394 35.3233 83.8139C35.316 83.1724 34.7795 82.667 34.1541 82.6924C33.754 82.7162 33.4269 82.9358 33.2329 83.234L34.2745 83.2032C34.6056 83.1745 34.8967 83.4721 34.9072 83.8193Z" fill="#D1D7DC"/>
<path d="M34.2831 58.4477C34.2935 58.7949 34.0306 59.0883 33.6674 59.0801L32.6258 59.1109C32.8479 59.4037 33.1783 59.6348 33.5784 59.6109C34.2199 59.604 34.7249 59.0678 34.6992 58.4423C34.6919 57.8008 34.1554 57.2953 33.53 57.3207C33.1299 57.3446 32.8028 57.5641 32.6088 57.8624L33.6503 57.8316C33.9815 57.8028 34.2726 58.1005 34.2831 58.4477Z" fill="#D1D7DC"/>
<path d="M34.5951 71.1335C34.6056 71.4807 34.3426 71.7741 33.9794 71.7659L32.9379 71.7967C33.16 72.0895 33.4904 72.3206 33.8905 72.2967C34.5319 72.2898 35.037 71.7535 35.0113 71.1281C35.0039 70.4866 34.4675 69.9811 33.8421 70.0065C33.442 70.0304 33.1148 70.25 32.9208 70.5482L33.9624 70.5174C34.2935 70.4886 34.5847 70.7863 34.5951 71.1335Z" fill="#D1D7DC"/>
<path d="M33.9711 45.7618C33.9816 46.1091 33.7186 46.4024 33.3554 46.3942L32.3138 46.425C32.536 46.7178 32.8664 46.9489 33.2665 46.925C33.9079 46.9181 34.413 46.3819 34.3873 45.7564C34.3799 45.1149 33.8434 44.6095 33.218 44.6349C32.8179 44.6587 32.4908 44.8783 32.2968 45.1765L33.3384 45.1457C33.6695 45.117 33.9606 45.4146 33.9711 45.7618Z" fill="#D1D7DC"/>
<path d="M33.4937 26.7411C33.5042 27.0884 33.2413 27.3817 32.878 27.3735L31.8365 27.4043C32.0586 27.6971 32.389 27.9282 32.7891 27.9043C33.4306 27.8974 33.9356 27.3612 33.9099 26.7357C33.9026 26.0942 33.3661 25.5888 32.7407 25.6142C32.3406 25.638 32.0135 25.8576 31.8195 26.1558L32.861 26.125C33.1922 26.0963 33.5017 26.3779 33.4937 26.7411Z" fill="#D1D7DC"/>
<path d="M33.8058 39.427C33.8162 39.7742 33.5533 40.0676 33.1901 40.0594L32.1485 40.0902C32.3706 40.383 32.701 40.6141 33.1011 40.5902C33.7426 40.5833 34.2477 40.047 34.2219 39.4216C34.2146 38.7801 33.6781 38.2746 33.0527 38.3C32.6526 38.3239 32.3255 38.5435 32.1315 38.8417L33.173 38.8109C33.5042 38.7822 33.8137 39.0637 33.8058 39.427Z" fill="#D1D7DC"/>
<path d="M33.659 33.0761C33.6694 33.4233 33.4065 33.7167 33.0433 33.7085L32.0017 33.7393C32.2239 34.0321 32.5543 34.2632 32.9544 34.2393C33.5958 34.2324 34.1009 33.6961 34.0751 33.0707C34.0678 32.4292 33.5313 31.9237 32.9059 31.9491C32.5058 31.973 32.1787 32.1926 31.9847 32.4908L33.0263 32.46C33.339 32.4473 33.6485 32.7289 33.659 33.0761Z" fill="#D1D7DC"/>
<path d="M32.2268 84.4973L32.2857 87.1347L32.2268 84.4973Z" fill="#B91E22"/>
<path d="M32.1591 81.738C37.3917 81.7244 42.7579 80.0397 47.2341 77.7034C54.9085 73.7208 60.9813 67.1137 63.7344 58.9222C64.9591 55.2662 65.596 51.3437 65.8905 47.3625L36.6862 48.0661L36.5693 43.2764L66.1552 42.565C66.1616 41.9764 66.2024 41.3902 66.2087 40.8017L36.5539 41.5083L36.2482 28.9788L65.8686 28.2698C65.688 26.3861 65.4039 24.4951 64.9955 22.6474L77.0547 22.3682L30.7583 23.4827L30.8172 26.12L31.8588 26.0892C32.0712 25.775 32.3983 25.5555 32.7799 25.5476C33.4214 25.5407 33.9418 26.0277 33.9491 26.6692C33.9564 27.3107 33.4698 27.8309 32.8284 27.8378C32.4283 27.8617 32.0979 27.6306 31.8758 27.3378L30.8527 27.3525L30.947 31.2225L30.9848 32.4205L32.008 32.4057C32.2204 32.0915 32.5475 31.8719 32.9292 31.8641C33.5706 31.8571 34.091 32.3441 34.0983 32.9856C34.1056 33.6271 33.619 34.1473 32.9776 34.1542C32.5775 34.1781 32.2471 33.947 32.025 33.6542L31.0019 33.669L31.1156 38.753L32.1387 38.7382C32.3511 38.424 32.6783 38.2044 33.0599 38.1965C33.7014 38.1896 34.2218 38.6766 34.2291 39.3181C34.2364 39.9596 33.7498 40.4798 33.1083 40.4867C32.7082 40.5106 32.3779 40.2795 32.1557 39.9867L31.1326 40.0015L31.1818 42.0319L31.2624 45.1039L32.2855 45.0891C32.4979 44.7749 32.8251 44.5553 33.2067 44.5475C33.8482 44.5405 34.3686 45.0275 34.3759 45.669C34.3832 46.3105 33.8966 46.8307 33.2551 46.8376C32.855 46.8615 32.5247 46.6304 32.3025 46.3376L31.2794 46.3524L31.3932 51.4364L32.4163 51.4216C32.6287 51.1074 32.9558 50.8878 33.3375 50.8799C33.9789 50.873 34.4994 51.36 34.5067 52.0015C34.514 52.643 34.0274 53.1632 33.3859 53.1701C32.9858 53.194 32.637 52.9789 32.4333 52.6701L31.4102 52.6849L31.5239 57.7689L32.547 57.7541C32.7595 57.4398 33.0866 57.2203 33.4682 57.2124C34.1097 57.2055 34.6301 57.6925 34.6375 58.334C34.6448 58.9755 34.1581 59.4957 33.5167 59.5026C33.1166 59.5265 32.7862 59.2954 32.564 59.0026L31.5409 59.0174L31.6547 64.1013L32.6778 64.0865C32.8903 63.7723 33.2173 63.5528 33.599 63.5449C34.2405 63.538 34.7609 64.025 34.7682 64.6665C34.7755 65.308 34.2889 65.8282 33.6474 65.8351C33.2473 65.859 32.917 65.6279 32.6948 65.3351L31.6533 65.3659L31.767 70.4498L32.8086 70.419C33.0026 70.1208 33.3481 69.8852 33.7298 69.8774C34.3712 69.8705 34.8917 70.3574 34.899 70.9989C34.9063 71.6404 34.4196 72.1606 33.7782 72.1676C33.3781 72.1914 33.0477 71.9603 32.8256 71.6676L31.8025 71.6823L31.9162 76.7663L32.9578 76.7355C33.1702 76.4213 33.4973 76.2017 33.879 76.1938C34.5204 76.1869 35.0409 76.6739 35.0482 77.3154C35.0555 77.9569 34.5688 78.4771 33.9274 78.484C33.5273 78.5079 33.1969 78.2768 32.9748 77.984L31.9332 78.0148L32.047 83.0988L32.1591 81.738Z" fill="#B91E22"/>
<path d="M78.5821 86.0203L77.0146 22.6946L76.9994 22.4163L64.9402 22.6955C65.3485 24.5432 65.6166 26.4157 65.8133 28.3179L71.782 28.1827L72.106 40.6961L66.1718 40.8337C66.1655 41.4223 66.1592 42.0109 66.1184 42.597L72.1215 42.4642L72.2384 47.2539L65.8697 47.413C65.5591 51.3757 64.9383 55.3166 63.7136 58.9727C60.9605 67.1642 54.8877 73.7713 47.2133 77.7539C42.7211 80.0717 37.3708 81.7749 32.1382 81.7885L32.1889 83.2993L33.2305 83.2685C33.4429 82.9543 33.7701 82.7347 34.1517 82.7268C34.7932 82.7199 35.3136 83.2069 35.3209 83.8484C35.3282 84.4899 34.8416 85.0101 34.2001 85.017C33.8 85.0409 33.4696 84.8098 33.2475 84.517L32.206 84.5478L32.2649 87.1852L32.5431 87.1701L32.7339 87.1662L78.5821 86.0203Z" fill="#A61D21"/>
<path d="M36.517 41.5403L66.1718 40.8337C66.194 38.7737 66.1793 36.7457 66.1438 34.7683C66.1178 32.6529 66.0253 30.4983 65.8133 28.3179L36.193 29.0269L36.517 41.5403Z" fill="#D1D7DC"/>
<path d="M66.1782 34.7707C66.1953 36.7642 66.21 38.7921 66.2063 40.8361L72.1405 40.6985L71.8164 28.1851L65.8478 28.3203C66.0437 30.4822 66.1523 32.6553 66.1782 34.7707Z" fill="#BCC2C7"/>
<path d="M36.567 43.3109L36.6839 48.1005L65.8881 47.3969L72.2569 47.2378L65.8881 47.3969C66.017 45.7948 66.0929 44.2063 66.1344 42.6154L36.567 43.3109Z" fill="#D1D7DC"/>
<path d="M65.9066 47.3809L72.2753 47.2218L72.1584 42.4321L66.1553 42.5649C66.1114 44.1903 66.0355 45.7788 65.9066 47.3809Z" fill="#BCC2C7"/>
<path d="M28.0976 26.8645C28.1081 27.2117 28.4016 27.4749 28.7303 27.4806L30.795 27.4351L31.8181 27.4203L32.8596 27.3895C33.2068 27.3792 33.4858 27.1043 33.4753 26.7571C33.4649 26.4099 33.1898 26.1307 32.8426 26.141L31.8011 26.1718L30.7595 26.2026L28.6949 26.2481C28.3685 26.2079 28.1056 26.5013 28.0976 26.8645Z" fill="#201B18"/>
<path d="M28.2628 33.1994C28.2733 33.5466 28.5484 33.8258 28.8955 33.8155L30.9602 33.77L31.9833 33.7552L33.0249 33.7244C33.372 33.7141 33.651 33.4392 33.6405 33.092C33.6301 32.7448 33.355 32.4656 33.0078 32.4759L31.9663 32.5067L30.9432 32.5214L28.8785 32.567C28.5153 32.5588 28.2523 32.8522 28.2628 33.1994Z" fill="#201B18"/>
<path d="M28.4097 39.5504C28.4201 39.8976 28.6952 40.1768 29.0424 40.1665L31.107 40.121L32.1301 40.1062L33.1717 40.0754C33.5189 40.0651 33.7979 39.7902 33.7874 39.443C33.7769 39.0958 33.5019 38.8166 33.1547 38.8269L32.1131 38.8577L31.09 38.8725L29.0254 38.918C28.6806 38.8938 28.3992 39.2032 28.4097 39.5504Z" fill="#201B18"/>
<path d="M32.3138 46.425L33.3554 46.3942C33.7025 46.384 33.9815 46.1091 33.9711 45.7618C33.9606 45.4146 33.6855 45.1355 33.3383 45.1457L32.2968 45.1765L31.2737 45.1913L29.209 45.2369C28.8618 45.2471 28.5828 45.522 28.5933 45.8693C28.6038 46.2165 28.8789 46.4956 29.226 46.4854L31.2907 46.4398L32.3138 46.425Z" fill="#201B18"/>
<path d="M32.4606 52.776L33.5021 52.7452C33.8493 52.7349 34.1283 52.46 34.1178 52.1128C34.1074 51.7656 33.8323 51.4864 33.4851 51.4967L32.4436 51.5275L31.4205 51.5422L29.3558 51.5878C29.0086 51.5981 28.7296 51.873 28.7401 52.2202C28.7506 52.5674 29.0257 52.8466 29.3728 52.8363L31.4375 52.7908L32.4606 52.776Z" fill="#201B18"/>
<path d="M32.6259 59.1108L33.6674 59.08C34.0146 59.0698 34.2936 58.7949 34.2831 58.4476C34.2727 58.1004 33.9976 57.8212 33.6504 57.8315L32.6089 57.8623L31.5858 57.8771L29.5211 57.9227C29.1739 57.9329 28.8949 58.2078 28.9054 58.555C28.9159 58.9023 29.2094 59.1654 29.5381 59.1712L31.6028 59.1256L32.6259 59.1108Z" fill="#201B18"/>
<path d="M32.7911 65.4457L33.8327 65.4149C34.1798 65.4047 34.4588 65.1298 34.4483 64.7825C34.4379 64.4353 34.1628 64.1561 33.8156 64.1664L32.7741 64.1972L31.751 64.212L29.6863 64.2576C29.3391 64.2678 29.0601 64.5427 29.0706 64.8899C29.0811 65.2372 29.3562 65.5163 29.7033 65.5061L31.768 65.4605L32.7911 65.4457Z" fill="#201B18"/>
<path d="M32.9379 71.7968L33.9794 71.766C34.3266 71.7557 34.6056 71.4808 34.5951 71.1336C34.5847 70.7863 34.3096 70.5072 33.9624 70.5174L32.9209 70.5483L31.8793 70.579L29.8147 70.6246C29.4675 70.6349 29.1885 70.9098 29.199 71.257C29.2095 71.6042 29.4845 71.8834 29.8317 71.8731L31.8963 71.8276L32.9379 71.7968Z" fill="#201B18"/>
<path d="M33.1031 78.1316L34.1447 78.1008C34.4918 78.0906 34.7708 77.8156 34.7604 77.4684C34.7499 77.1212 34.4748 76.842 34.1276 76.8523L33.0861 76.8831L32.0446 76.9139L29.9799 76.9594C29.6327 76.9697 29.3537 77.2446 29.3642 77.5918C29.3747 77.9391 29.6497 78.2183 29.9969 78.208L32.0616 78.1624L33.1031 78.1316Z" fill="#201B18"/>
<path d="M33.2499 84.4825L34.2915 84.4517C34.6386 84.4414 34.9176 84.1665 34.9071 83.8193C34.8967 83.4721 34.6216 83.1929 34.2744 83.2032L33.2329 83.234L32.1914 83.2648L30.1267 83.3103C29.7795 83.3206 29.5005 83.5955 29.511 83.9427C29.5215 84.29 29.7965 84.5691 30.1437 84.5589L32.2084 84.5133L33.2499 84.4825Z" fill="#201B18"/>
</svg>
