<svg width="115" height="118" viewBox="0 0 115 118" fill="none" xmlns="http://www.w3.org/2000/svg">
<path d="M45.1238 26.7439C67.8257 21.9821 90.0894 36.5255 94.8512 59.2274C99.6129 81.9294 85.0695 104.193 62.3676 108.955C39.6656 113.717 17.4019 99.1732 12.6402 76.4713C7.87841 53.7693 22.4218 31.5056 45.1238 26.7439Z" fill="#EBD9C8"/>
<path d="M48.4935 22.2457C48.7924 22.2114 49.0615 22.1186 49.3011 21.9673C49.5406 21.8159 49.7296 21.6245 49.8682 21.393C50.0063 21.157 50.0708 20.8996 50.0618 20.6208L51.257 20.4837C51.2843 20.921 51.1836 21.3431 50.955 21.75C50.7305 22.1519 50.4142 22.4932 50.006 22.774C49.5973 23.0502 49.1326 23.2182 48.6119 23.278C48.0596 23.3413 47.5662 23.2993 47.1319 23.1518C46.7021 23.0039 46.3319 22.7757 46.0213 22.4673C45.7152 22.1584 45.469 21.7921 45.2828 21.3685C45.1006 20.9399 44.9812 20.4788 44.9246 19.9853L44.8919 19.7C44.8353 19.2065 44.8475 18.7327 44.9284 18.2784C45.0133 17.8191 45.1699 17.4044 45.3981 17.0342C45.6308 16.6635 45.9397 16.3574 46.3248 16.1159C46.7145 15.874 47.1855 15.7214 47.7379 15.658C48.3129 15.592 48.829 15.6521 49.2861 15.8382C49.7427 16.0198 50.1164 16.298 50.4071 16.6729C50.7018 17.0428 50.8896 17.48 50.9704 17.9845L49.7751 18.1216C49.7177 17.8208 49.6002 17.5568 49.4228 17.3294C49.2498 17.1015 49.0283 16.9297 48.7581 16.8139C48.492 16.6931 48.1914 16.6519 47.8563 16.6903C47.4715 16.7344 47.1566 16.8485 46.9116 17.0326C46.6707 17.2116 46.4881 17.439 46.3637 17.7147C46.2434 17.9854 46.1672 18.2808 46.1351 18.601C46.107 18.9162 46.1114 19.2345 46.1483 19.5559L46.181 19.8412C46.2179 20.1626 46.286 20.4759 46.3852 20.7811C46.4844 21.0862 46.6233 21.357 46.8017 21.5934C46.9848 21.8293 47.2141 22.0094 47.4899 22.1337C47.7696 22.253 48.1042 22.2903 48.4935 22.2457Z" fill="white"/>
<path d="M59.791 15.7718L59.6989 16.8137L55.9742 16.4844L56.0663 15.4425L59.791 15.7718ZM56.2501 15.4588L55.5987 22.8265L54.339 22.7151L54.9904 15.3474L56.2501 15.4588ZM60.9077 15.8706L60.2564 23.2383L58.9898 23.1263L59.6412 15.7586L60.9077 15.8706Z" fill="white"/>
<path d="M66.7786 18.5279L64.2261 26.9688L63.0091 26.6008L65.9731 16.7989L67.0855 17.1352L66.7786 18.5279ZM70.9076 22.0904L70.866 22.2278C70.7104 22.7425 70.5049 23.2017 70.2495 23.6054C69.9955 24.0046 69.7018 24.3301 69.3687 24.5817C69.0399 24.8345 68.6783 24.999 68.284 25.0749C67.8896 25.1509 67.4722 25.1223 67.0316 24.989C66.5823 24.8532 66.2077 24.659 65.908 24.4064C65.6082 24.1539 65.3812 23.8496 65.227 23.4935C65.0729 23.1374 64.9838 22.7391 64.9599 22.2986C64.9404 21.8595 64.9796 21.3833 65.0776 20.8702L65.2992 20.1373C65.5099 19.6297 65.7498 19.1905 66.0191 18.8196C66.2884 18.4487 66.585 18.1527 66.9089 17.9317C67.2385 17.7076 67.5965 17.5707 67.983 17.5209C68.3707 17.4667 68.787 17.5069 69.232 17.6415C69.6769 17.776 70.0453 17.9827 70.3372 18.2614C70.6303 18.5357 70.8466 18.8677 70.9858 19.2574C71.1251 19.647 71.1863 20.0822 71.1696 20.5627C71.1585 21.0402 71.0712 21.5495 70.9076 22.0904ZM69.649 21.8597L69.6905 21.7223C69.7974 21.369 69.8606 21.0263 69.8801 20.6941C69.9009 20.3576 69.8684 20.0478 69.7826 19.7648C69.7024 19.4787 69.5629 19.2318 69.3638 19.024C69.1661 18.8118 68.9015 18.6557 68.57 18.5554C68.2646 18.4631 67.9827 18.4349 67.7242 18.471C67.4701 18.5085 67.2374 18.5929 67.0263 18.7242C66.8165 18.8512 66.6272 19.013 66.4582 19.2095C66.295 19.4029 66.1531 19.6124 66.0326 19.8378L65.5201 21.5325C65.515 21.8642 65.5501 22.1891 65.6253 22.507C65.7019 22.8206 65.846 23.0998 66.0576 23.3447C66.2705 23.5853 66.5755 23.7656 66.9724 23.8856C67.2996 23.9846 67.6014 24.002 67.8779 23.938C68.16 23.871 68.4137 23.7406 68.6389 23.5468C68.8685 23.3544 69.0672 23.1145 69.235 22.8272C69.4042 22.5356 69.5421 22.2131 69.649 21.8597Z" fill="white"/>
<path d="M74.1719 25.4606L79.7358 22.335L80.8546 22.939L77.3408 29.4476L76.222 28.8435L78.7843 24.0975L73.2203 27.223L72.1135 26.6255L75.6273 20.1169L76.7342 20.7145L74.1719 25.4606Z" fill="white"/>
<path d="M86.8891 31.4626L86.2239 32.2429L83.2483 29.7061L83.9135 28.9258L86.8891 31.4626ZM86.1964 26.659L81.3978 32.2877L80.4354 31.4672L85.234 25.8386L86.1964 26.659ZM89.7494 29.688L84.9508 35.3167L83.9832 34.4918L88.7818 28.8632L89.7494 29.688Z" fill="white"/>
<path d="M95.0746 35.6219L89.2949 40.2373L88.5015 39.2438L94.2812 34.6283L95.0746 35.6219ZM96.6231 37.5609L95.8218 38.2008L91.9614 33.3665L92.7626 32.7267L96.6231 37.5609Z" fill="white"/>
</svg>
