<svg width="202" height="104" viewBox="0 0 202 104" fill="none" xmlns="http://www.w3.org/2000/svg">
<path d="M146.342 27.2415L146.439 27.3876C147.851 27.1441 149.213 26.9005 150.576 26.657C159.289 25.196 166.541 24.4655 171.749 24.5142H172.041C172.576 24.5142 173.063 24.5629 173.501 24.5629L173.939 24.6116C174.328 24.6603 174.718 24.6603 175.107 24.709L175.594 24.7577C175.935 24.8064 176.227 24.8551 176.519 24.9038L177.005 25.0012C177.297 25.0499 177.541 25.0986 177.784 25.196L178.222 25.3421L178.855 25.5856L179.196 25.7317L179.682 26.0239L179.974 26.2187L180.364 26.5596L180.51 26.7544L180.851 27.3876C180.948 27.6311 180.948 27.9233 180.899 28.1668L180.851 28.4103L180.607 29.0434L180.51 29.2869C180.364 29.5791 180.169 29.92 179.926 30.261L179.828 30.3584C179.585 30.6506 179.293 30.9915 179.001 31.3324L178.709 31.6246C178.417 31.9168 178.076 32.209 177.736 32.5499L177.443 32.7934C176.957 33.1831 176.47 33.6214 175.886 34.011L175.74 34.1084C175.205 34.498 174.62 34.8876 174.036 35.2772L173.647 35.5207C173.014 35.9104 172.333 36.3487 171.651 36.787L171.505 36.8844C169.899 37.8584 168.098 38.8325 166.151 39.9039L165.908 40.05C162.014 42.0955 157.439 44.287 152.328 46.4786C149.505 47.6962 146.488 48.9624 143.324 50.2286C132.032 54.7092 118.89 59.3846 104.629 63.719C86.4258 69.271 69.3417 73.4593 55.47 76.0405L55.032 76.1379L54.886 76.1866C53.5231 76.4301 52.209 76.6737 50.9435 76.8685H50.8461C48.2665 77.3068 45.7842 77.6477 43.4479 77.9399L43.1559 77.9886C42.1337 78.1347 41.1116 78.2321 40.1382 78.3295L39.7975 78.3782C37.7045 78.573 35.7576 78.7678 34.0054 78.8165H33.5674C32.8373 78.8652 32.1559 78.8652 31.4745 78.8652H30.9877C29.4302 78.8652 28.0674 78.8165 26.8992 78.6704L26.4612 78.6217C26.0231 78.573 25.6337 78.5243 25.2444 78.4269L24.855 78.3295C23.8815 78.1347 23.1028 77.8425 22.5187 77.5016L22.2753 77.3555L21.7399 76.9172L21.5452 76.7224L21.1559 76.0405L21.0585 75.3587L21.1072 75.1152L21.2045 74.5795L21.3506 74.2873L21.5939 73.7516L21.7886 73.4106L22.2267 72.8262L22.5187 72.4853L23.1028 71.8522L23.4435 71.5113C23.6868 71.2678 23.9789 71.0243 24.2709 70.7808L24.5629 70.5373C26.2665 69.1249 28.5541 67.5664 31.3284 65.9593L31.4745 65.8619C32.1559 65.4723 32.8373 65.0827 33.5674 64.6931L33.7621 64.5956C34.4922 64.206 35.2709 63.7677 36.0497 63.3781L36.147 63.3294C39.5054 61.5761 43.3506 59.7255 47.6337 57.8261C48.3152 57.5339 48.9966 57.193 49.7267 56.9008C49.6293 55.9755 49.5807 55.0014 49.5807 54.0761C37.4125 58.8001 26.9479 63.3781 18.8196 67.5177C16.3373 68.784 14.0983 70.0015 12.0541 71.1704L11.8594 71.2678C10.9346 71.8035 10.1072 72.2905 9.27976 72.8262L8.93905 73.021C7.23551 74.0925 5.77534 75.1152 4.55852 76.0405L4.21781 76.3327C3.73109 76.7224 3.34171 77.0633 2.95233 77.4529L2.4656 77.7451C1.58949 78.6217 0.908077 79.4009 0.518697 80.1315L0.372678 80.4237C0.22666 80.7159 0.129315 80.9594 0.0806429 81.2029L0.0319711 81.4951C-0.0167015 81.836 -0.0167022 82.1283 0.0806429 82.4205C0.177988 82.7127 0.372678 83.0049 0.61604 83.2971L0.810731 83.4919C1.10277 83.7354 1.3948 83.9302 1.78418 84.125L1.83285 84.1737C2.27091 84.3685 2.75764 84.5633 3.34171 84.7094L3.77976 84.8068C4.36383 84.9529 4.9479 85.0504 5.62932 85.1478H5.77534C6.50542 85.2452 7.33286 85.2939 8.20896 85.3426H8.74436C9.62047 85.3913 10.4966 85.3913 11.47 85.3913H11.616C12.6868 85.3913 13.8063 85.3426 14.9744 85.2451L15.5098 85.1964C16.678 85.1477 17.8948 85.0504 19.1603 84.9042H19.209C20.5718 84.7581 21.9833 84.612 23.4921 84.4659L23.9302 84.4172C26.9479 84.0276 30.1603 83.5893 33.5674 83.0049L33.8107 82.9562C37.3152 82.3718 41.0629 81.6899 45.0054 80.9107C48.7532 80.1802 52.647 79.3522 56.7355 78.4269C71.2886 75.1152 87.7399 70.7808 105.019 65.521C118.55 61.3813 131.351 57.0956 142.983 52.8098C146.196 51.641 149.311 50.4722 152.328 49.3033C155.687 47.9884 158.948 46.6734 162.063 45.4072C162.452 45.2611 162.842 45.0663 163.28 44.9202C166.687 43.5078 169.899 42.0955 172.917 40.7318C173.306 40.5857 173.647 40.3909 174.036 40.2448C175.497 39.563 176.957 38.8812 178.32 38.248L178.368 38.1993C179.731 37.5662 180.997 36.9331 182.262 36.3C182.603 36.1539 182.943 35.9591 183.236 35.8129C184.452 35.1798 185.669 34.5467 186.789 33.9623L186.837 33.9136C187.957 33.3292 188.979 32.7447 189.952 32.1603C190.244 32.0142 190.488 31.8681 190.731 31.6733C191.705 31.0889 192.629 30.5532 193.457 30.0175L193.554 29.9687C194.382 29.433 195.16 28.8973 195.842 28.4103L196.377 28.0207C197.059 27.485 197.691 26.9979 198.275 26.5109L198.324 26.4622C198.859 25.9752 199.346 25.5369 199.736 25.0986L200.028 24.7577C200.417 24.3194 200.758 23.881 201.001 23.4914C201.244 23.1018 201.39 22.7122 201.488 22.3226L201.536 22.0304C201.585 21.6895 201.585 21.3486 201.488 21.0076C201.39 20.7154 201.244 20.4719 201.05 20.2284L200.855 20.0336L200.222 19.5466L199.93 19.3518C199.59 19.2057 199.249 19.0596 198.859 18.9135L198.713 18.8648C198.227 18.7187 197.691 18.5726 197.107 18.4752L196.669 18.4265C196.182 18.329 195.647 18.2803 195.112 18.2316L194.576 18.1829C193.895 18.1342 193.165 18.0855 192.435 18.0855H192.289C191.413 18.0855 190.439 18.0855 189.466 18.0855H189.368C188.395 18.1342 187.421 18.1342 186.351 18.2316H186.01C175.983 18.8648 161.722 21.2024 144.882 25.0012C145.174 25.4882 145.466 26.0239 145.758 26.5596L146.342 27.2415Z" fill="#D47528"/>
<path d="M120.107 3.76724C120.545 3.96205 120.983 4.10815 121.421 4.30296C120.935 4.15685 120.545 3.96205 120.107 3.76724Z" fill="#C9C8E5"/>
<path d="M111.346 102.242C111.054 102.291 110.713 102.388 110.421 102.437C110.713 102.339 111.054 102.291 111.346 102.242Z" fill="#C9C8E5"/>
<path d="M143.47 22.4687L143.859 23.0531L143.47 22.4687Z" fill="#C9C8E5"/>
<path d="M140.112 18.183C140.355 18.4752 140.598 18.7674 140.842 19.0596C140.598 18.7187 140.355 18.4265 140.112 18.183Z" fill="#C9C8E5"/>
<path d="M90.7576 102.291L90.0762 102.145L90.7576 102.291Z" fill="#C9C8E5"/>
<path d="M133.054 11.316C133.346 11.5595 133.638 11.803 133.93 12.0465C133.687 11.803 133.395 11.5595 133.054 11.316Z" fill="#C9C8E5"/>
<path d="M128.771 8.2478C129.112 8.49131 129.501 8.68611 129.842 8.92962C129.501 8.68611 129.112 8.49131 128.771 8.2478Z" fill="#C9C8E5"/>
<path d="M96.0629 103.07C95.7222 103.021 95.3328 103.021 94.9921 102.973C95.3328 103.021 95.7222 103.021 96.0629 103.07Z" fill="#C9C8E5"/>
<path d="M136.705 14.5303L137.24 15.066L136.705 14.5303Z" fill="#C9C8E5"/>
<path d="M105.943 103.07C105.651 103.119 105.408 103.119 105.116 103.119C105.408 103.119 105.7 103.07 105.943 103.07Z" fill="#C9C8E5"/>
<path d="M103.997 61.9171C85.4036 67.6152 68.0762 71.8522 54.5452 74.2873C54.8373 74.8717 55.0806 75.4561 55.3727 75.9918C69.293 73.4107 86.3284 69.2223 104.532 63.6703C118.744 59.3359 131.935 54.7092 143.227 50.18C143.275 49.4981 143.324 48.865 143.324 48.1832C132.129 52.7125 118.647 57.4365 103.997 61.9171Z" fill="#C9C8E5"/>
<path d="M81.5586 99.5148C81.1692 99.3687 80.7798 99.1738 80.4391 99.0277C80.8285 99.2225 81.1692 99.3687 81.5586 99.5148Z" fill="#C9C8E5"/>
<path d="M124.78 5.95883C125.12 6.10494 125.413 6.29974 125.705 6.49455C125.413 6.29974 125.12 6.10494 124.78 5.95883Z" fill="#C9C8E5"/>
<path d="M86.4258 101.219C86.0851 101.122 85.6957 101.024 85.355 100.927C85.7444 101.024 86.0851 101.122 86.4258 101.219Z" fill="#C9C8E5"/>
<path d="M77.2267 97.518C76.9347 97.3719 76.6426 97.2258 76.3506 97.0797C76.5939 97.2258 76.9347 97.3719 77.2267 97.518Z" fill="#C9C8E5"/>
<path d="M107.404 95.8134C127.408 89.7257 140.89 72.3392 143.081 52.7611C131.497 57.0469 118.696 61.3326 105.116 65.4723C87.8372 70.7321 71.3859 75.1152 56.8328 78.3782C60.0452 83.7354 64.1824 88.3621 68.9523 92.1608C80.3417 98.1998 94.0673 99.9044 107.404 95.8134Z" fill="#C9C8E5"/>
<path d="M73.0408 95.0829C72.6514 94.8394 72.2621 94.5959 71.8727 94.3037C72.2621 94.5959 72.6514 94.8394 73.0408 95.0829Z" fill="#C9C8E5"/>
<path d="M49.5807 56.9008C49.6293 57.5339 49.7753 58.167 49.8727 58.7514C50.0187 59.7255 50.1161 60.6995 50.3107 61.6735C50.6515 63.3294 51.0408 65.034 51.5762 66.6898C52.063 68.3457 52.647 69.9528 53.3284 71.56C64.6692 70.6833 83.1647 66.7385 103.656 60.5047C119.328 55.7319 133.2 50.4722 143.324 45.7481C143.178 41.3162 142.545 36.8357 141.182 32.4038C137.094 19.0596 128.041 8.63742 116.7 2.50101C107.014 -0.615899 96.355 -0.95681 85.8904 2.2575C62.8196 9.27054 48.3638 31.0402 49.4346 54.0761C49.4346 55.0501 49.4833 55.9755 49.5807 56.9008ZM110.275 35.4233C110.713 36.787 109.935 38.248 108.523 38.6864C107.16 39.1247 105.7 38.3454 105.262 36.9331C104.824 35.5695 105.603 34.1084 107.014 33.6701C108.426 33.2805 109.837 34.0597 110.275 35.4233ZM123.563 20.2771C124.39 20.0336 125.218 20.4719 125.461 21.2999C125.705 22.1278 125.267 22.9557 124.439 23.1992C123.612 23.4427 122.784 23.0044 122.541 22.1765C122.297 21.3973 122.784 20.5693 123.563 20.2771ZM116.457 13.2154C116.846 13.0693 117.284 13.3128 117.43 13.7511C117.576 14.1407 117.333 14.579 116.943 14.7251C116.554 14.8712 116.116 14.6277 115.97 14.1894C115.824 13.7511 116.067 13.3128 116.457 13.2154ZM115.97 25.8291C116.213 26.657 115.775 27.485 114.948 27.7285C114.12 27.972 113.293 27.5337 113.05 26.7057C112.806 25.8778 113.244 25.0499 114.072 24.8064C114.899 24.5629 115.727 25.0012 115.97 25.8291ZM108.572 15.6018C110.762 14.9199 113.05 16.1862 113.731 18.3291C114.413 20.5206 113.147 22.8096 111.005 23.4914C108.815 24.1733 106.528 22.907 105.846 20.7641C105.116 18.5726 106.382 16.2836 108.572 15.6018ZM101.66 8.63742C103.023 8.19911 104.483 8.97833 104.921 10.3907C105.359 11.7543 104.581 13.2154 103.169 13.6537C101.806 14.092 100.346 13.3128 99.9081 11.9004C99.47 10.5368 100.249 9.07574 101.66 8.63742ZM99.6161 34.3032C99.7621 34.6928 99.5187 35.1311 99.1293 35.2772C98.74 35.4233 98.3019 35.1798 98.1559 34.7415C98.0099 34.3519 98.2532 33.9136 98.6426 33.7675C99.0807 33.6701 99.5187 33.9136 99.6161 34.3032ZM97.8152 23.1992C98.2045 23.0531 98.6426 23.2966 98.7886 23.7349C98.9346 24.1246 98.6913 24.5629 98.3019 24.709C97.9125 24.8551 97.4745 24.6116 97.3284 24.222C97.1824 23.7349 97.4258 23.2966 97.8152 23.1992ZM91.1957 14.579C92.0231 14.3355 92.8506 14.7738 93.0939 15.6018C93.3373 16.4297 92.8992 17.2576 92.0718 17.5011C91.2444 17.7446 90.4169 17.3063 90.1736 16.4784C89.9302 15.6505 90.3683 14.8225 91.1957 14.579Z" fill="#C9C8E5"/>
<path d="M146.342 27.2415L145.904 26.5109L146.342 27.2415Z" fill="#C9C8E5"/>
<path d="M148.289 31.2837C148.435 31.5759 148.532 31.8681 148.678 32.1603L148.532 31.722L148.289 31.2837Z" fill="#C9C8E5"/>
<path d="M143.324 48.1832C143.324 48.865 143.275 49.4981 143.227 50.1799C146.39 48.9137 149.408 47.6475 152.231 46.4299C152.182 45.7968 152.036 45.1637 151.939 44.5793C149.262 45.7481 146.39 46.9656 143.324 48.1832Z" fill="#9192C5"/>
<path d="M141.134 32.4525C142.497 36.8844 143.129 41.3649 143.275 45.7968C146.39 44.3357 149.165 42.9234 151.501 41.6085C151.16 39.9526 150.771 38.248 150.236 36.5922C149.749 35.0824 149.213 33.5727 148.629 32.1603C148.483 31.8681 148.386 31.5759 148.24 31.2837C147.899 30.5532 147.559 29.8226 147.218 29.0921C146.926 28.5077 146.682 27.9233 146.39 27.3876L146.293 27.2415L145.855 26.5109C145.563 25.9752 145.271 25.4395 144.979 24.9525C144.589 24.3194 144.151 23.6862 143.762 23.0531L143.373 22.4687C142.545 21.2512 141.669 20.131 140.793 19.0109C140.55 18.7187 140.306 18.4265 140.063 18.1342C139.138 17.0628 138.213 15.9914 137.191 15.0173L136.656 14.4816C135.78 13.6537 134.855 12.8258 133.93 12.0465C133.638 11.803 133.346 11.5595 133.054 11.316C131.983 10.4881 130.912 9.66015 129.793 8.92963C129.452 8.68612 129.063 8.44261 128.722 8.24781C127.749 7.61468 126.727 7.03027 125.705 6.44585C125.412 6.25104 125.072 6.10493 124.78 5.91012C123.66 5.3257 122.541 4.78998 121.373 4.30297C120.935 4.10816 120.497 3.91336 120.059 3.76725C118.89 3.32894 117.722 2.89062 116.554 2.50101L116.603 2.54971C128.041 8.68612 137.094 19.1083 141.134 32.4525Z" fill="#9192C5"/>
<path d="M143.081 52.7611C140.939 72.3392 127.457 89.7257 107.404 95.8134C94.0673 99.8556 80.3417 98.1998 68.9523 92.1608L68.9036 92.1121C69.8771 92.8913 70.8992 93.6218 71.9213 94.3036C72.3107 94.5472 72.7001 94.7907 73.0895 95.0829C74.1603 95.7647 75.2797 96.4465 76.3992 97.0309C76.6912 97.177 76.9833 97.3231 77.2753 97.4693C78.3461 98.005 79.4169 98.5407 80.4877 98.979C80.8771 99.1251 81.2178 99.3199 81.6072 99.466C82.8727 99.953 84.1381 100.44 85.4036 100.83C85.7443 100.927 86.1337 101.024 86.4744 101.122C87.6912 101.463 88.9081 101.804 90.1249 102.047L90.8063 102.193C92.2178 102.486 93.6293 102.68 95.0408 102.826C95.3815 102.875 95.7709 102.924 96.1116 102.924C97.5718 103.07 98.9833 103.167 100.443 103.167H101.076C102.439 103.167 103.802 103.119 105.165 102.973C105.457 102.973 105.7 102.924 105.992 102.924C107.452 102.778 108.961 102.534 110.421 102.291C110.713 102.242 111.054 102.145 111.346 102.096C112.855 101.755 114.412 101.414 115.921 100.927C138.992 93.914 153.448 72.1444 152.377 49.1085C149.359 50.4234 146.244 51.5923 143.081 52.7611Z" fill="#9192C5"/>
<path d="M36.439 65.3261C35.855 65.6671 35.3196 65.9593 34.7842 66.2515L34.5408 66.3976C34.0541 66.6898 33.5674 66.982 33.1293 67.2255L32.8373 67.4203C32.4479 67.6638 32.0585 67.9073 31.6691 68.1508L31.3284 68.3943C30.9877 68.6379 30.6957 68.8327 30.355 69.0762L30.0143 69.3197C29.7222 69.5145 29.4789 69.7093 29.2355 69.9041L28.8948 70.1963L28.2621 70.732L27.97 71.0243L27.4833 71.5113L27.2399 71.8035L26.8992 72.2418L26.7045 72.534L26.4612 72.9723L26.3151 73.2158L26.2178 73.6541L26.1691 73.8489L26.2178 74.4334L26.5585 75.0178L26.7045 75.1639L27.1426 75.5048L27.3859 75.6509L28.0674 75.9431L28.2621 76.0405C28.6028 76.1379 28.9921 76.2353 29.4302 76.3327H29.5762C29.9656 76.3814 30.4036 76.4788 30.8417 76.5275L31.2311 76.5762C31.6691 76.6249 32.1072 76.6249 32.5452 76.6736H32.8859C34.1028 76.7223 35.5143 76.6736 37.0231 76.6249H37.1691C37.8992 76.5762 38.678 76.5275 39.4567 76.4788L39.7488 76.4301C40.5762 76.3814 41.4523 76.284 42.3284 76.1866C44.2267 75.9918 46.2709 75.6996 48.4612 75.3587C49.532 75.2126 50.6514 75.0178 51.7709 74.823H51.8682C52.6957 74.6769 53.5718 74.5308 54.4479 74.3847C67.9789 71.9496 85.3063 67.7125 103.899 62.0144C118.55 57.5339 131.983 52.8098 143.227 48.2806C146.293 47.063 149.165 45.8455 151.842 44.6766C153.497 43.9461 155.103 43.2156 156.66 42.4851L156.806 42.3877C157.78 41.9493 158.705 41.511 159.581 41.0727L159.727 41.024C161.576 40.0987 163.328 39.2221 164.886 38.3454L165.129 38.1993C165.811 37.8097 166.443 37.4688 167.076 37.1279L167.417 36.9331C168.098 36.5435 168.731 36.1538 169.315 35.7642C169.899 35.3746 170.483 34.985 171.019 34.6441L171.213 34.498C171.603 34.2058 171.992 33.9136 172.382 33.6214L172.722 33.3778C173.063 33.1343 173.355 32.8421 173.598 32.5986L173.793 32.4038C174.134 32.1116 174.377 31.7707 174.62 31.5272L174.718 31.3811L175.156 30.6993L175.253 30.4557L175.448 29.92L175.497 29.7252L175.448 29.0434L175.205 28.5564L175.059 28.4103L174.718 28.1181L174.572 28.0207L174.085 27.7285L173.939 27.6798L173.258 27.4362H173.16C169.072 26.2674 159.727 26.9492 147.169 29.2382C147.51 29.9687 147.851 30.6993 148.191 31.4298L148.435 31.9168C150.528 31.7707 152.377 31.722 153.935 31.7707L154.616 31.8194C155.249 31.8681 155.882 31.9168 156.417 31.9655L156.66 32.0142C157.147 32.1116 157.634 32.209 158.023 32.3551L158.315 32.4525C158.705 32.5986 159.045 32.7934 159.289 32.9882L159.435 33.1343C159.678 33.3291 159.873 33.5727 159.97 33.8649C160.067 34.1571 160.019 34.4493 159.921 34.7902V34.8876C159.824 35.2285 159.629 35.5694 159.337 35.9103L159.24 36.0564C158.948 36.3974 158.607 36.787 158.218 37.1766L157.974 37.3714C157.536 37.761 157.05 38.1506 156.514 38.5889L156.174 38.8324C155.589 39.2708 154.957 39.6604 154.275 40.0987L153.837 40.3909C153.107 40.8292 152.377 41.3162 151.55 41.7545L151.501 41.8032C149.165 43.1182 146.39 44.5305 143.275 45.9916C133.151 50.7156 119.231 55.9754 103.607 60.7482C83.1647 66.982 64.6205 70.9268 53.2797 71.8035C52.7444 71.8522 52.209 71.8522 51.7222 71.9009C51.3328 71.9009 50.9435 71.9496 50.6028 71.9496C49.9213 71.9496 49.3373 71.9496 48.7045 71.9496C48.3638 71.9496 48.0231 71.9496 47.7311 71.9496C47.147 71.9496 46.6603 71.9009 46.1736 71.8522L45.3461 71.7548C44.9081 71.7061 44.5187 71.6087 44.1293 71.5113L43.5452 71.3652C43.2045 71.2677 42.9612 71.0729 42.6691 70.9268L42.3284 70.732C42.0364 70.4885 41.793 70.1963 41.7444 69.9041C41.647 69.6119 41.6957 69.3197 41.793 69.0275L41.8904 68.784C41.9877 68.4918 42.1337 68.1995 42.3771 67.9073L42.4744 67.7612C42.7665 67.4203 43.1072 67.0307 43.4966 66.6411L43.8859 66.2515C44.2267 65.9593 44.616 65.6184 45.0541 65.2774L45.4921 64.9365C46.0762 64.5469 46.6603 64.1086 47.3417 63.6703L48.1205 63.1833C48.8019 62.7937 49.4833 62.3553 50.2621 61.917C50.0674 60.943 49.97 59.969 49.824 58.9949C44.616 61.2839 40.1382 63.4268 36.5364 65.4722L36.439 65.3261Z" fill="#D47528"/>
<path d="M110.957 23.4914C113.147 22.8096 114.364 20.5206 113.682 18.329C113.001 16.1375 110.713 14.9199 108.523 15.6017C106.333 16.2836 105.116 18.5726 105.797 20.7641C106.479 22.9557 108.766 24.1732 110.957 23.4914Z" fill="#9192C5"/>
<path d="M107.014 33.7188C105.651 34.1571 104.873 35.5694 105.262 36.9818C105.7 38.3454 107.112 39.1246 108.523 38.735C109.886 38.2967 110.665 36.8844 110.275 35.472C109.837 34.0597 108.426 33.2805 107.014 33.7188Z" fill="#9192C5"/>
<path d="M103.169 13.6537C104.532 13.2154 105.311 11.803 104.921 10.3907C104.483 9.02701 103.072 8.24779 101.66 8.6374C100.297 9.07572 99.5187 10.4881 99.9081 11.9004C100.346 13.2641 101.758 14.0433 103.169 13.6537Z" fill="#9192C5"/>
<path d="M113.05 26.7057C113.293 27.5337 114.169 27.972 114.948 27.7285C115.775 27.485 116.213 26.6083 115.97 25.8291C115.727 25.0012 114.851 24.5629 114.072 24.8064C113.244 25.0499 112.806 25.8778 113.05 26.7057Z" fill="#9192C5"/>
<path d="M92.0718 17.5011C92.8992 17.2576 93.3373 16.381 93.0939 15.6017C92.8506 14.7738 91.9745 14.3355 91.1957 14.579C90.3683 14.8225 89.9302 15.6992 90.1736 16.4784C90.4169 17.3063 91.293 17.7446 92.0718 17.5011Z" fill="#9192C5"/>
<path d="M124.488 23.2479C125.315 23.0044 125.753 22.1278 125.51 21.3485C125.267 20.5206 124.39 20.0823 123.612 20.3258C122.784 20.5693 122.346 21.4459 122.59 22.2252C122.784 23.0044 123.66 23.4914 124.488 23.2479Z" fill="#9192C5"/>
<path d="M116.895 14.6764C117.284 14.5303 117.528 14.1407 117.381 13.7024C117.235 13.3128 116.846 13.0693 116.408 13.1667C116.019 13.3128 115.775 13.7024 115.921 14.1407C116.067 14.5303 116.505 14.7738 116.895 14.6764Z" fill="#9192C5"/>
<path d="M98.1559 34.7902C98.3019 35.1798 98.6913 35.4233 99.1293 35.3259C99.5187 35.1798 99.7621 34.7902 99.616 34.3519C99.47 33.9623 99.0806 33.7188 98.6426 33.8162C98.2532 33.9623 98.0099 34.3519 98.1559 34.7902Z" fill="#9192C5"/>
<path d="M98.2532 24.6603C98.6426 24.5142 98.8859 24.1246 98.7399 23.6863C98.5939 23.2966 98.2045 23.0531 97.7664 23.1505C97.3771 23.2966 97.1337 23.6863 97.2311 24.1246C97.4258 24.5629 97.8638 24.8064 98.2532 24.6603Z" fill="#9192C5"/>
</svg>
