<svg width="66" height="47" viewBox="0 0 66 47" fill="none" xmlns="http://www.w3.org/2000/svg">
<path d="M6.94583 17.2599L3.82982 17.0999L3.87898 15.7999L6.42446 15.9306C6.9277 15.9565 7.34865 15.9282 7.6873 15.8459C8.03181 15.7638 8.29402 15.6277 8.47394 15.4374C8.65385 15.2472 8.75132 15.0058 8.76635 14.7132C8.77807 14.485 8.73855 14.2835 8.64779 14.1087C8.56318 13.9283 8.42718 13.7776 8.23978 13.6565C8.05269 13.5295 7.81713 13.4324 7.5331 13.365C7.25523 13.292 6.92611 13.2458 6.54575 13.2263L4.46549 13.1194L4.04532 21.3L2.42149 21.2166L2.90928 11.7194L6.61338 11.9096C7.2161 11.9406 7.75467 12.021 8.2291 12.151C8.70938 12.2813 9.11365 12.4634 9.44193 12.6974C9.77636 12.9257 10.0259 13.2084 10.1904 13.5455C10.355 13.8825 10.4259 14.2733 10.403 14.7181C10.3883 15.0048 10.3158 15.2739 10.1855 15.5253C10.0553 15.7768 9.87094 15.9962 9.63251 16.1834C9.39408 16.3706 9.10478 16.5201 8.76463 16.6317C8.42477 16.7374 8.03743 16.7967 7.6026 16.8096L6.94583 17.2599ZM6.73124 21.438L3.02714 21.2477L3.90229 19.9726L6.79886 20.1214C7.24944 20.1445 7.6268 20.1081 7.93094 20.0123C8.23539 19.9106 8.46617 19.7582 8.62328 19.555C8.78654 19.3463 8.87584 19.0927 8.89117 18.7943C8.90649 18.4959 8.8435 18.2374 8.70217 18.019C8.567 17.7949 8.35305 17.6197 8.06033 17.4931C7.76791 17.3608 7.39641 17.283 6.94583 17.2599L4.47935 17.1332L4.56363 15.835L7.64453 15.9933L8.20737 16.515C8.72607 16.5827 9.16126 16.7342 9.51294 16.9693C9.86462 17.2045 10.1255 17.4936 10.2956 17.8368C10.4661 18.1741 10.5414 18.5358 10.5215 18.9221C10.4987 19.3668 10.3937 19.7545 10.2066 20.0852C10.0253 20.4161 9.7708 20.6876 9.44309 20.8996C9.11567 21.1057 8.72368 21.2558 8.26709 21.3497C7.8108 21.4377 7.29885 21.4671 6.73124 21.438Z" fill="white"/>
<path d="M14.7188 17.4506L14.7606 17.2528C14.9025 16.5821 15.1314 15.9807 15.4476 15.4487C15.7649 14.9109 16.1519 14.4687 16.6085 14.1221C17.0663 13.7697 17.5809 13.5312 18.1523 13.4065C18.7249 13.276 19.3351 13.2793 19.9828 13.4163C20.6364 13.5545 21.1985 13.7992 21.6692 14.1503C22.1469 14.4968 22.5237 14.9239 22.7997 15.4314C23.0826 15.9344 23.2603 16.496 23.3328 17.1163C23.4064 17.7307 23.3723 18.3733 23.2305 19.044L23.1887 19.2418C23.0468 19.9125 22.8178 20.5139 22.5017 21.0459C22.1856 21.578 21.7957 22.0196 21.3322 22.3707C20.8756 22.7173 20.361 22.9559 19.7884 23.0863C19.2228 23.2122 18.6132 23.2061 17.9597 23.0679C17.3061 22.9297 16.7434 22.6879 16.2715 22.3425C15.8007 21.9914 15.4239 21.5644 15.141 21.0614C14.865 20.5538 14.6902 19.9928 14.6165 19.3784C14.5429 18.7639 14.5769 18.1213 14.7188 17.4506ZM16.3514 17.5892L16.3096 17.787C16.2114 18.2513 16.1731 18.7014 16.1947 19.1372C16.2176 19.5672 16.3046 19.9629 16.4557 20.3243C16.6126 20.6869 16.8379 20.995 17.1316 21.2488C17.4265 21.4968 17.7947 21.6675 18.2361 21.7609C18.6718 21.853 19.0718 21.8448 19.4361 21.7362C19.8074 21.623 20.1353 21.4319 20.4198 21.1626C20.7043 20.8934 20.9441 20.5668 21.1391 20.1828C21.341 19.7943 21.4911 19.3679 21.5893 18.9036L21.6311 18.7058C21.7281 18.2472 21.7623 17.8023 21.7337 17.371C21.7121 16.9352 21.6228 16.536 21.4659 16.1735C21.316 15.8064 21.0942 15.4959 20.8005 15.2422C20.5125 14.9896 20.1478 14.8167 19.7064 14.7233C19.2707 14.6312 18.8673 14.6417 18.496 14.7548C18.1304 14.8692 17.8019 15.0632 17.5105 15.3369C17.2259 15.6062 16.9856 15.9356 16.7894 16.3254C16.5944 16.7093 16.4484 17.1306 16.3514 17.5892Z" fill="white"/>
<path d="M28.3915 23.06L34.9726 18.1599L36.4986 18.7462L33.0877 27.6233L31.5617 27.0369L34.049 20.5637L27.4678 25.4639L25.9582 24.8839L29.3691 16.0068L30.8787 16.5869L28.3915 23.06ZM35.3797 14.6254L36.6103 15.0983C36.4464 15.5249 36.2019 15.8672 35.8768 16.1252C35.5538 16.3777 35.1734 16.5265 34.7354 16.5717C34.2975 16.6169 33.827 16.5428 33.3238 16.3494C32.5635 16.0573 32.0396 15.6238 31.7521 15.0488C31.4722 14.4704 31.4562 13.8586 31.7042 13.2132L32.9348 13.686C32.8108 14.0087 32.7945 14.3289 32.8859 14.6464C32.9773 14.964 33.2473 15.209 33.6958 15.3813C34.1333 15.5494 34.4924 15.5462 34.7729 15.3715C35.0534 15.1968 35.2557 14.9481 35.3797 14.6254Z" fill="white"/>
<path d="M44.7056 22.9143L40.0818 31.2243L38.6533 30.4294L43.2771 22.1194L44.7056 22.9143ZM47.4936 24.4655L46.8525 25.6175L39.9019 21.7501L40.543 20.5981L47.4936 24.4655Z" fill="white"/>
<path d="M48.2057 33.3268L55.8952 30.4642L57.1961 31.4542L51.4373 39.022L50.1364 38.032L54.3357 32.5135L46.6463 35.3762L45.3593 34.3969L51.1181 26.829L52.405 27.8083L48.2057 33.3268Z" fill="white"/>
</svg>
