<svg width="178" height="390" viewBox="0 0 178 390" fill="none" xmlns="http://www.w3.org/2000/svg">
<path opacity="0.1" d="M89.3732 390C137.6 390 176.695 385.483 176.695 379.91C176.695 374.337 137.6 369.82 89.3732 369.82C41.1465 369.82 2.05115 374.337 2.05115 379.91C2.05115 385.483 41.1465 390 89.3732 390Z" fill="#B22E2E"/>
<path d="M140.197 70.7326C144.432 70.2343 148.668 71.3554 152.529 73.0994C157.886 75.5908 163.117 79.8261 163.989 85.8053C164.986 92.2828 160.377 98.2621 158.259 104.49C157.761 105.861 157.387 107.356 157.761 108.85C158.384 111.591 161.124 113.21 163.367 114.83C169.097 118.816 173.581 124.546 176.073 131.023C177.194 133.889 177.941 137.003 176.695 139.868C175.574 142.484 172.958 144.228 170.218 144.975C167.477 145.722 164.612 145.598 161.747 145.598C164.861 147.093 168.349 147.466 171.339 149.21C174.329 150.83 176.695 154.567 175.325 157.681C174.578 159.176 173.207 160.297 171.713 161.044C160.626 167.273 145.678 165.28 136.585 156.435C135.339 155.19 134.093 153.695 134.093 151.951C133.969 150.207 135.713 148.338 137.332 148.837C138.827 149.335 139.325 151.577 138.453 152.947C137.581 154.318 135.962 155.065 134.342 155.439C127.367 157.432 119.145 155.563 114.661 150.082C110.052 144.477 110.301 135.134 115.906 130.65C117.526 129.404 119.394 128.532 121.014 127.286C122.633 126.041 124.003 124.172 124.003 122.179C123.879 118.94 120.391 116.947 118.647 114.207C115.782 109.847 117.65 103.992 120.391 99.5078C123.131 95.1479 126.744 90.9126 127.616 85.8053C128.238 82.3174 127.616 79.0787 129.982 76.2136C132.598 73.224 136.46 71.2309 140.197 70.7326Z" fill="#FF5540"/>
<path opacity="0.44" d="M123.629 119.937C126.245 120.311 129.11 119.812 131.602 119.314C141.816 117.196 151.159 112.089 157.761 103.992C158.508 103.12 159.131 102.248 159.754 101.376C161.996 96.269 164.986 91.2863 164.238 85.8053C163.366 79.9506 158.135 75.5908 152.778 73.0994C148.917 71.3554 144.681 70.2343 140.446 70.7326C136.584 71.1063 132.847 73.0994 130.356 76.2136C127.989 79.0787 128.612 82.3174 127.989 85.8053C127.117 90.9126 123.505 95.0233 120.764 99.5078C118.024 103.868 116.155 109.847 119.02 114.207C120.266 116.2 122.508 117.819 123.629 119.937Z" fill="#B22E2E"/>
<path d="M88.7502 143.854C90.8679 141.238 113.788 137.75 135.712 140.117C157.636 142.484 161 162.165 160.003 178.11C159.007 194.055 160.128 231.55 152.778 237.28C145.304 243.01 85.0132 244.505 78.0374 237.529C70.9371 230.304 73.4284 163.287 88.7502 143.854Z" fill="#66BCAC"/>
<path d="M146.923 143.605C145.179 144.726 143.685 146.221 142.439 148.089C139.449 152.449 138.328 157.556 137.581 162.664C135.837 174.373 134.716 186.207 133.844 197.916C133.346 204.02 133.096 209.999 133.096 216.103C133.096 219.716 133.096 223.328 133.47 226.941C133.844 230.429 134.591 233.792 136.211 236.657C137.207 238.276 138.453 239.522 139.948 240.519C146.176 239.647 150.785 238.525 152.529 237.28C160.003 231.55 158.757 194.055 159.754 178.11C160.626 165.404 158.757 150.456 146.923 143.605Z" fill="#90D3C7"/>
<path d="M7.53205 162.29C5.53897 157.307 -1.18765 144.975 0.182596 144.228C1.55284 143.48 7.03383 151.203 7.03383 151.203C7.03383 151.203 1.30371 137.127 3.29679 136.131C5.28988 135.134 12.3902 147.466 12.3902 147.466C12.3902 147.466 7.78119 131.771 10.6462 131.148C13.6359 130.525 17.9958 145.972 17.9958 145.972C17.9958 145.972 16.2518 133.39 18.8678 133.39C21.4837 133.266 25.719 150.082 25.719 150.082C25.719 150.082 28.0858 141.113 30.4526 141.612C32.6948 142.11 29.2069 160.421 29.2069 164.158C29.2069 167.896 31.0754 176.242 31.0754 176.242L12.8885 179.356C13.0131 179.231 9.52514 167.273 7.53205 162.29Z" fill="#FFBB9A"/>
<path d="M33.9404 169.889C34.6879 167.397 35.6844 164.906 36.681 162.539C39.7951 155.19 43.9059 148.214 51.7536 145.1C54.6187 143.979 58.1066 143.729 60.4734 145.598C62.0928 146.968 62.8402 149.086 63.3385 151.203C65.4562 160.795 62.9648 170.885 59.4769 180.228C57.3592 185.833 54.8679 191.439 51.8782 196.671C49.2623 201.28 46.0236 206.138 40.9163 208.38C38.7986 209.377 36.3072 209.75 34.1896 208.754C31.5737 207.384 30.5771 204.02 30.2034 201.155C28.7086 190.691 30.8262 179.854 33.9404 169.889Z" fill="#FFBE00"/>
<path d="M8.27954 170.387L31.8228 163.411C31.8228 163.411 52.8748 207.384 36.5565 211.37C20.2381 215.356 12.2657 187.079 8.27954 170.387Z" fill="#FFBE00"/>
<path d="M37.9265 177.612C37.6774 176.989 37.6774 176.864 37.5528 176.491C36.6808 174.124 35.6843 171.757 34.6878 169.515C34.5632 169.266 34.1894 169.39 34.314 169.639C35.0614 171.633 35.9334 173.626 36.6808 175.743V175.868C37.4282 177.861 38.1757 179.854 38.7985 181.847C40.1687 185.958 41.1652 190.193 42.4109 194.428C42.5355 194.678 42.7846 194.553 42.6601 194.304C42.0372 189.944 40.667 185.709 39.2967 181.598C38.7985 180.228 38.4248 178.982 37.9265 177.612Z" fill="#FF8C01"/>
<path d="M138.827 365.086H110.176C110.176 365.086 106.314 342.54 101.581 318.124C101.581 318 101.456 317.751 101.456 317.626C95.9754 289.225 89.4978 258.581 86.6327 256.961C86.259 256.712 85.8853 256.588 85.6362 256.463C82.8957 255.093 81.0272 254.844 79.5324 254.968C79.1587 254.968 78.9095 255.093 78.5358 255.093C77.4147 255.342 78.5359 288.851 79.5324 319.619C79.5324 319.868 79.5324 320.242 79.5324 320.491C80.1553 339.052 80.7781 356.616 80.7781 365.211H51.8784C51.8784 365.211 49.5116 342.913 46.8956 320.367C46.8956 320.117 46.8956 319.868 46.771 319.619C45.4008 307.411 43.906 295.204 42.6603 286.609C41.1655 275.771 39.9198 250.858 39.9198 224.698C42.7849 225.072 45.65 225.446 48.515 225.82C56.6119 226.816 64.8334 227.439 73.0549 227.688C86.7574 228.062 100.709 227.688 114.411 226.318C114.661 226.318 115.034 226.318 115.283 226.193C117.152 226.069 119.02 225.82 120.889 225.57C120.889 228.062 120.889 230.055 121.014 231.301C121.761 239.273 127.74 281.377 132.723 317.626C132.723 317.875 132.847 318.249 132.847 318.498C135.463 337.806 137.83 355.37 138.827 365.086Z" fill="#FF8C01"/>
<path opacity="0.43" d="M136.211 347.647C136.211 348.021 135.588 348.145 135.588 347.771C134.467 342.913 133.719 338.055 132.972 333.197C132.1 328.463 131.353 323.73 130.481 318.996C130.481 318.872 130.481 318.747 130.356 318.623C120.764 319.121 111.173 318.872 101.706 318.124C101.706 318 101.581 317.751 101.581 317.626C102.827 317.751 104.197 317.751 105.443 317.875C112.045 318.249 118.522 318.249 125.124 318C126.868 318 128.488 317.875 130.232 317.751C127.242 300.934 124.377 284.242 121.512 267.425C120.017 258.83 118.522 250.235 117.152 241.64C116.28 236.532 115.408 231.425 114.536 226.318C114.785 226.318 115.159 226.318 115.408 226.193C116.529 232.422 117.526 238.65 118.647 244.754C121.636 261.944 124.626 279.135 127.616 296.325C128.861 303.425 130.107 310.526 131.353 317.751C131.851 317.751 132.349 317.626 132.972 317.626C132.972 317.875 133.097 318.249 133.097 318.498C132.598 318.498 132.1 318.623 131.477 318.623C131.726 319.744 131.851 320.989 132.1 322.235L134.342 335.066C134.841 339.176 135.588 343.412 136.211 347.647Z" fill="#611B20"/>
<path opacity="0.43" d="M85.6362 256.339C83.5186 255.716 81.5255 255.218 79.4078 254.844C79.2833 254.844 79.0342 254.719 78.9096 254.719C78.5359 254.719 78.1622 254.719 77.7885 254.844C76.2937 257.584 75.92 260.823 75.7954 263.937C75.6708 267.301 75.6708 270.789 75.6708 274.152C75.5462 286.858 75.1725 299.564 75.048 312.27C75.048 314.761 75.048 317.252 75.048 319.868C76.1691 319.868 77.2902 319.744 78.4113 319.744C78.785 319.744 79.0341 319.744 79.4078 319.619C79.4078 319.868 79.4078 320.242 79.4078 320.491C78.785 320.491 78.0376 320.616 77.4148 320.616C76.5428 320.616 75.7954 320.74 74.9234 320.74C74.9234 324.353 74.9234 327.841 74.7988 331.328C74.7988 334.567 74.6743 337.681 74.6743 340.92C74.6743 344.159 74.6743 347.398 74.4251 350.512C74.4251 350.886 73.9269 350.886 73.8023 350.512C73.6777 346.899 73.8023 343.162 73.8023 339.55C73.8023 335.938 73.9269 332.325 73.9269 328.713C73.9269 326.097 74.0514 323.356 74.0514 320.74C64.8334 321.114 55.74 320.989 46.6465 320.367C46.6465 320.117 46.6465 319.868 46.522 319.619C47.8922 319.744 49.2624 319.744 50.7572 319.868C56.8611 320.117 62.9649 320.242 69.0687 320.117C70.8127 320.117 72.4321 319.993 74.0514 319.993C74.176 316.505 74.176 313.017 74.3006 309.405C74.4252 303.052 74.4251 296.574 74.4251 290.221C74.5497 283.744 74.5497 277.266 74.6743 270.789C74.7988 265.557 74.3006 259.702 76.9165 254.968C75.5462 255.093 74.176 255.218 72.8058 255.467C70.6881 255.716 68.4459 256.214 66.3282 256.588C66.0791 256.588 65.83 256.214 66.2037 256.09C68.3213 255.467 70.5636 255.093 72.6812 254.844C74.0515 254.719 75.4217 254.595 76.7919 254.47C75.6708 254.221 74.5497 254.096 73.5531 253.847C69.4424 253.224 65.4563 252.975 61.221 252.726C60.9718 252.726 60.9718 252.228 61.221 252.228C69.3179 251.854 77.7885 253.224 85.5117 255.716C86.1345 255.84 86.0099 256.339 85.6362 256.339Z" fill="#611B20"/>
<path d="M103.2 326.097C107.186 347.273 110.301 365.086 110.301 365.086H138.951C138.079 356.491 136.211 341.917 133.968 325.474C123.629 325.598 113.415 325.848 103.2 326.097Z" fill="#FFBB9A"/>
<path d="M61.5947 327.218C56.9857 327.218 52.3767 327.218 47.7677 327.218C50.0099 347.149 51.8784 365.086 51.8784 365.086H80.7782C80.7782 357.488 80.2798 342.913 79.7816 326.844C73.6777 327.093 67.574 327.218 61.5947 327.218Z" fill="#FFBB9A"/>
<path d="M127.74 237.28C121.138 238.152 76.0444 243.508 35.5598 234.913C35.5598 231.176 35.6844 227.314 35.809 223.328C35.9335 219.217 36.1827 215.107 36.5564 210.871C36.9301 206.262 37.3038 201.653 37.8021 197.169C38.3004 192.062 38.9232 187.079 39.6706 182.345C40.418 177.487 41.1654 172.878 41.9128 168.643C42.7848 164.158 43.6567 160.048 44.5287 156.684C45.7744 151.951 47.1447 148.463 48.3904 146.594C48.8886 145.847 50.7572 144.85 53.3731 143.729C61.9683 140.241 79.5323 136.255 92.861 136.629C108.183 137.003 119.02 139.868 122.384 143.48C122.882 143.978 123.131 144.477 123.38 144.975C123.754 145.847 124.128 150.954 124.626 158.304C124.875 161.667 125.124 165.529 125.373 169.639C125.622 174.373 125.872 179.356 126.245 184.588C126.494 189.197 126.744 193.93 126.868 198.539C127.117 203.646 127.242 208.754 127.491 213.612C127.616 217.598 127.74 221.46 127.74 224.948C127.865 229.806 127.865 233.916 127.74 237.28Z" fill="#FFD9C4"/>
<path d="M127.74 237.28C121.138 238.152 76.0444 243.508 35.5598 234.913C35.5598 231.176 35.6844 227.314 35.809 223.328C52.2519 226.442 68.8194 228.186 85.387 228.186C95.8507 228.311 106.314 227.688 116.778 226.442C120.391 226.069 124.003 225.57 127.615 224.948C127.865 229.806 127.865 233.916 127.74 237.28Z" fill="#FFBE00"/>
<path d="M127.491 213.612C122.633 214.359 117.899 214.858 113.041 215.231C91.74 217.1 70.4389 216.477 49.2624 213.114C45.0271 212.491 40.7918 211.619 36.5565 210.747C36.9302 206.138 37.3039 201.529 37.8022 197.044C53.6223 199.909 69.5669 201.529 85.387 201.529C95.8507 201.653 106.314 201.031 116.778 199.785C120.141 199.411 123.505 198.913 126.744 198.415C127.117 203.646 127.242 208.754 127.491 213.612Z" fill="#FFBE00"/>
<path d="M126.245 184.588C121.886 185.21 117.401 185.709 113.041 186.082C91.7401 187.951 70.439 187.328 49.2624 183.965C46.0237 183.467 42.9095 182.844 39.6708 182.221C40.4182 177.363 41.1656 172.754 41.913 168.518C56.3629 171.01 70.9372 172.255 85.3871 172.38C95.8508 172.505 106.315 171.882 116.778 170.636C119.643 170.262 122.508 169.889 125.373 169.515C125.747 174.248 125.996 179.356 126.245 184.588Z" fill="#FFBE00"/>
<path d="M124.626 158.304C120.764 158.802 116.903 159.3 112.917 159.674C91.6155 161.543 70.3144 160.795 49.1379 157.556C47.5185 157.307 46.0237 157.058 44.4043 156.809C45.65 152.075 47.0202 148.588 48.2659 146.719C48.7641 145.972 50.6327 144.975 53.2486 143.854C63.9614 145.224 74.5497 145.972 85.2625 145.972C95.7262 146.096 106.19 145.473 116.654 144.228C118.522 143.978 120.391 143.729 122.259 143.48C122.757 143.978 123.007 144.477 123.256 144.975C123.629 145.847 124.128 150.954 124.626 158.304Z" fill="#FFBE00"/>
<path d="M61.4701 130.276L65.3317 144.103C65.3317 144.103 68.3213 148.961 83.0203 145.1C96.9719 141.363 95.6016 134.636 95.6016 134.636L92.3629 123.674L61.4701 130.276Z" fill="#FFBB9A"/>
<path d="M63.7122 140.989C67.0756 141.363 70.5635 140.74 73.9268 139.992C78.0375 138.996 82.0237 137.75 85.5116 135.508C88.9995 133.266 91.74 130.276 92.612 126.913C92.8611 125.792 92.9856 124.421 92.2382 123.549C91.4908 122.677 90.2452 122.428 88.875 122.179C86.5082 121.93 84.0167 122.055 81.65 122.428C74.3005 123.425 67.3247 125.667 60.3489 128.158C58.7295 128.781 56.861 129.529 55.989 130.774C54.8679 132.394 54.6188 136.006 55.7399 137.626C57.1101 139.619 60.9717 140.74 63.7122 140.989Z" fill="#B22E2E"/>
<path d="M51.3799 363.841C52.3765 363.342 79.6569 363.841 80.9025 364.214C82.2728 364.588 85.0132 376.298 83.5184 378.913C82.2728 381.156 44.155 379.412 34.8124 379.038C33.6913 379.038 32.944 377.792 33.4422 376.796C34.4388 374.803 36.8055 371.938 41.4145 368.948C48.8886 363.965 51.3799 363.841 51.3799 363.841Z" fill="#FF7772"/>
<path d="M51.0063 378.54C49.5114 374.304 47.0201 370.443 43.7813 367.329C43.0339 367.827 42.2865 368.201 41.4145 368.823C36.8055 371.813 34.4388 374.678 33.4422 376.671C32.944 377.668 33.6913 378.789 34.8124 378.913C37.9266 379.038 44.2796 379.412 51.38 379.536C51.2554 379.287 51.1308 378.913 51.0063 378.54Z" fill="#FFD9C4"/>
<path d="M109.927 363.841C110.923 363.342 138.204 363.841 139.449 364.214C140.82 364.588 143.56 376.298 142.065 378.913C140.82 381.156 102.702 379.412 93.3593 379.038C92.2382 379.038 91.4908 377.792 91.9891 376.796C92.9856 374.803 95.3524 371.938 99.9614 368.948C107.435 363.965 109.927 363.841 109.927 363.841Z" fill="#FF7772"/>
<path d="M110.052 374.554C108.557 371.564 106.564 368.699 103.948 366.457C102.827 367.08 101.456 367.951 99.8371 368.948C95.2281 371.938 92.8612 374.803 91.8647 376.796C91.3664 377.792 92.1139 378.913 93.235 379.038C96.7229 379.163 104.072 379.536 112.045 379.785C111.546 377.917 110.924 376.173 110.052 374.554Z" fill="#FFD9C4"/>
<path d="M139.325 159.3C136.584 155.937 133.719 152.574 130.73 149.335C126.121 144.352 115.408 135.882 108.307 140.615C106.065 142.11 105.816 145.473 106.065 147.965C106.439 153.819 109.055 159.549 111.795 164.657C116.031 172.629 121.262 180.103 127.366 186.83C133.221 193.432 140.072 200.532 147.671 205.017C148.169 205.266 148.792 205.515 149.29 205.764C152.654 207.384 158.259 208.38 161.124 205.39C164.488 201.903 162.868 196.422 161.124 192.56C155.768 180.477 147.546 169.39 139.325 159.3Z" fill="#FFBE00"/>
<path d="M101.332 136.006C101.083 136.006 100.833 136.131 100.709 136.38C93.733 150.082 93.733 168.02 98.2175 183.965C102.702 200.283 113.539 215.107 127.242 223.826C128.861 224.823 130.979 224.449 131.726 222.705C132.598 220.588 131.103 217.972 129.609 216.103C125.622 210.871 115.034 196.92 110.425 179.605C105.816 162.29 110.3 148.338 113.415 140.241C113.539 139.743 113.539 139.245 113.041 138.996C110.176 137.376 104.446 136.255 101.332 136.006Z" fill="black"/>
<path d="M110.051 151.453C108.93 155.937 109.429 155.688 108.183 154.816C106.937 154.068 96.2244 146.345 92.9857 152.2C92.612 152.823 92.3628 153.57 91.9891 154.567C91.8646 155.563 91.74 156.56 91.8645 157.556C92.1137 159.051 92.3628 160.421 91.9891 161.916C91.6154 163.162 90.9925 164.034 91.6154 165.404C92.1136 166.401 92.612 167.397 92.612 168.643C92.612 170.138 91.9891 171.259 92.3628 172.878C92.3628 173.127 92.4874 173.376 92.612 173.626L92.7365 173.75C93.1102 173.999 93.3593 174.248 93.733 174.373C96.8472 176.491 100.709 177.238 104.072 178.608C109.304 180.726 114.162 183.716 118.896 186.83L128.612 168.518C117.775 164.034 117.775 151.328 110.051 151.453Z" fill="#FFBB9A"/>
<path d="M120.889 162.29C119.145 164.283 117.276 166.276 115.657 168.394C113.664 170.761 111.795 173.252 109.802 175.619C108.681 176.989 107.56 178.359 106.439 179.605C110.923 181.598 115.034 184.214 119.02 186.954L128.737 168.643C125.124 167.148 122.757 164.781 120.889 162.29Z" fill="#B22E2E"/>
<path d="M140.82 174.747C136.46 171.508 126.37 162.29 121.387 160.172C120.764 162.041 108.806 180.975 107.934 182.47C111.546 185.833 123.38 195.051 127.366 197.792C129.484 199.287 131.726 200.657 134.093 201.903C141.069 205.764 157.013 212.864 162.868 205.266C165.609 201.653 162.744 190.816 140.82 174.747Z" fill="#FFBE00"/>
<path d="M108.058 182.595L112.792 186.207C114.411 187.453 115.906 188.698 117.526 189.819C119.145 191.065 120.64 192.311 122.134 193.556C123.629 194.802 125.249 196.048 126.744 197.418C125 196.422 123.38 195.3 121.761 194.179C120.141 193.058 118.522 191.813 116.903 190.567C115.283 189.321 113.789 188.075 112.294 186.705C110.799 185.335 109.429 184.089 108.058 182.595Z" fill="#FF8C01"/>
<path d="M145.927 178.235C145.304 177.612 144.557 177.114 143.934 176.615C144.432 176.74 144.93 176.989 145.429 177.114C146.674 177.612 147.92 178.235 149.166 178.857C149.415 178.982 149.539 178.733 149.29 178.608C148.169 177.861 146.923 177.238 145.553 176.615C144.93 176.366 144.308 176.117 143.685 175.868C143.311 175.743 142.937 175.619 142.688 175.494C141.069 174.248 139.574 173.127 138.079 171.882C135.463 169.764 132.847 167.646 130.231 165.529C127.491 163.536 124.75 161.418 121.636 160.048H121.512V160.172L120.764 161.916L121.636 160.297C124.501 161.916 127.117 164.034 129.733 166.152C132.349 168.269 134.965 170.511 137.581 172.629C138.951 173.75 140.321 174.747 141.692 175.743L145.802 178.733C148.543 180.726 151.159 182.968 153.65 185.21C151.034 182.719 148.543 180.477 145.927 178.235Z" fill="#FF8C01"/>
<path d="M37.1793 121.058C43.1585 127.785 52.7502 132.643 67.9474 134.76C69.3177 135.01 70.8125 135.134 72.3073 135.259C92.3627 137.252 110.55 127.66 121.013 111.342C125.872 103.743 129.11 94.6496 129.982 84.5596C132.972 51.5492 110.176 21.1546 79.2832 17.9158C48.3903 14.6771 31.3245 36.3519 28.584 73.7222C28.2103 79.4523 27.8366 85.0579 27.9612 90.2898C27.9612 102.497 30.2035 113.21 37.1793 121.058Z" fill="#FFBB9A"/>
<path d="M151.782 36.9747C151.034 35.2308 150.287 33.4868 149.415 31.8674C146.301 26.1373 141.816 21.03 136.958 16.7947C134.84 14.9262 132.598 13.3068 130.231 11.6875C114.037 1.09918 93.7329 -2.26415 74.6741 1.47288C66.8263 2.9677 59.2276 5.83276 52.2518 9.81893C49.7605 11.3137 47.2691 12.9331 44.9023 14.6771C42.411 16.5456 39.9196 18.6632 37.6774 21.03C33.6912 25.1408 30.0788 29.8744 28.584 35.4799C27.5874 39.4661 27.5874 45.1962 29.8296 49.0578C40.7916 48.0612 51.8782 48.5595 62.7156 49.9298C64.2104 50.1789 65.8297 50.428 67.3245 50.6772C67.3245 49.6806 67.2 48.6841 67.2 47.8121C66.9508 44.0751 67.4491 40.2135 68.4457 36.601C68.072 39.0924 68.072 41.5837 68.3211 43.9505C68.5703 46.1927 69.1931 48.435 70.065 50.6772C70.1896 50.9263 70.4387 50.8018 70.4387 50.5526C68.9439 45.6945 68.5702 40.4626 69.4422 35.4799C69.6913 34.1097 70.065 32.864 70.4387 31.4937C70.6879 30.9955 70.937 30.3726 71.3107 29.8744C69.9405 34.2342 68.9439 45.5699 71.9335 51.4246C74.674 52.0474 77.29 52.6703 79.9059 53.5422C80.9025 51.6737 80.6533 50.3035 80.0305 48.3104C78.2865 43.3277 77.5391 38.4695 78.4111 33.2377C78.7848 30.6218 79.6568 28.255 80.6533 25.8882C80.7779 25.639 80.9024 25.3899 81.027 25.2653C80.7779 26.8847 80.4042 28.5041 80.1551 30.1235C79.9059 32.2411 79.7813 34.3588 79.7813 36.601C79.7813 40.7117 80.4042 44.9471 82.1481 48.5595C84.3904 53.4177 87.1308 55.7845 90.6187 57.653C91.4907 58.0267 92.3627 58.4004 93.2347 58.7741C94.4804 59.2724 95.8506 59.7706 97.3454 60.2689C103.325 62.262 109.428 67.4938 111.546 73.7222C112.667 77.0856 111.546 80.9472 111.422 84.3105C111.297 87.5493 110.799 90.6635 114.411 90.9126C118.024 91.1617 120.141 83.9368 126.494 84.0614C132.847 84.3105 133.221 91.0372 137.207 89.5423C139.574 88.6704 141.442 85.6807 142.937 83.9368C154.273 71.48 158.135 52.9194 151.782 36.9747Z" fill="#FF5540"/>
<path d="M43.906 22.5249C44.2797 25.1408 47.8922 25.5145 50.3836 24.8916C58.605 22.8986 65.9546 17.7913 74.3006 16.0473C77.7885 15.2999 81.7747 15.2999 84.6397 17.5421C87.5048 19.7844 89.3733 24.3934 92.9858 24.0197C94.2315 23.8951 95.3525 23.1477 96.5982 22.8986C99.2141 22.5248 101.581 24.8916 102.453 27.383C103.449 29.8744 103.325 32.7394 104.072 35.3553C105.318 40.2135 108.806 44.3242 113.29 46.1928C116.28 47.4384 120.142 47.563 122.508 45.1962C125.996 41.7083 124.626 35.1062 128.114 31.6183C130.979 28.6287 135.837 29.3761 139.45 31.2446C142.065 32.6149 145.055 34.6079 147.796 33.2377C148.543 32.864 149.041 32.3657 149.54 31.7429C146.425 26.0128 141.941 20.9055 137.083 16.6702C134.965 14.8017 132.723 13.1823 130.356 11.5629C130.232 11.6875 129.982 11.812 129.858 11.9366C126.993 13.9297 125.373 17.9158 122.01 18.4141C119.892 18.7878 117.775 17.4176 116.155 15.7982C114.536 14.1788 113.166 12.3103 111.297 11.1892C107.685 8.94696 102.951 9.9435 98.965 11.6875C96.5982 12.684 93.7332 13.6805 91.8646 11.9366C91.2418 11.3137 90.8681 10.3172 90.3698 9.56979C88.9996 7.07844 86.01 5.7082 83.2695 6.20647C81.6501 6.4556 80.0307 7.45214 78.4113 7.57671C73.6778 8.07498 75.6709 3.96424 74.9234 1.47289C67.0757 2.9677 59.477 5.83277 52.5012 9.81894C49.6362 12.5594 47.1448 15.6736 45.1517 19.037C44.2797 20.2826 43.7815 21.4038 43.906 22.5249Z" fill="#FF5560"/>
<path d="M144.308 82.442C146.301 83.5631 147.92 85.307 148.792 88.0475C149.789 91.0371 149.664 94.1514 148.916 96.8918C147.297 102.996 143.062 107.729 137.581 110.221C132.972 112.338 125.373 113.708 121.262 108.601C119.394 106.359 119.145 103.245 119.394 100.504C120.017 94.525 121.761 87.4247 126.619 84.1859C130.854 81.3209 138.951 79.3278 144.308 82.442Z" fill="#FFBB9A"/>
<path d="M127.616 98.6358C128.363 96.6427 129.235 94.8988 130.605 93.4039C132.1 91.9091 133.719 90.6635 135.712 89.7915C137.706 88.9195 140.072 88.5458 142.19 89.1686C143.187 89.4178 144.059 89.916 144.806 90.6635C145.429 91.2863 146.425 92.4074 146.176 93.4039C146.052 94.0268 145.429 94.2759 144.931 94.0268C144.308 93.7776 143.809 92.9057 143.311 92.532C142.688 92.0337 142.065 91.66 141.318 91.4109C140.82 91.2863 140.446 91.1617 139.948 91.1617C140.571 92.4074 140.944 93.7776 140.82 95.2725C140.695 96.1444 140.446 97.0164 140.072 97.7638C139.823 98.1375 139.574 98.6358 139.2 98.8849C139.076 99.0095 138.951 99.2586 138.702 99.3832C138.453 99.6323 138.204 99.6323 137.83 99.7569C137.332 99.8815 136.834 99.2586 136.958 98.7604C137.083 98.5112 137.083 98.2621 137.207 98.1375C137.332 98.013 137.456 97.8884 137.581 97.6392C137.83 97.3901 137.955 97.141 138.079 96.8918C138.453 96.269 138.702 95.6462 138.702 94.8988C138.827 93.6531 138.578 92.4074 138.079 91.2863C137.207 91.4109 136.335 91.7846 135.588 92.1583C132.723 93.5285 129.858 96.1444 128.488 99.1341C128.363 99.8815 127.242 99.3832 127.616 98.6358Z" fill="#C4311D"/>
<g opacity="0.2">
<path d="M67.3246 133.017C67.5737 133.639 67.6983 134.262 67.9474 134.885C69.3177 135.134 70.8125 135.259 72.3073 135.383C92.3627 137.376 110.55 127.785 121.013 111.466C120.391 110.221 119.643 108.975 118.647 107.854C114.536 102.871 107.934 100.131 101.581 99.7569C95.2278 99.3832 88.8749 101.252 83.2693 104.241C77.9129 106.982 73.0547 110.843 69.8159 115.826C66.7017 120.684 65.4561 127.162 67.3246 133.017Z" fill="#EC372F"/>
<path d="M37.1792 121.058C36.9301 115.702 36.3072 110.345 34.937 104.989C33.5667 99.7569 31.1999 94.5251 27.712 90.1652C27.9612 102.497 30.2034 113.21 37.1792 121.058Z" fill="#EC372F"/>
</g>
<path d="M66.951 94.2759C63.7123 92.532 60.7226 94.7742 54.4943 94.5251C48.3904 94.2759 44.6534 92.2828 43.6568 93.4039C41.4146 96.269 46.1483 104.117 54.6189 105.238C63.2141 106.234 70.0652 96.0199 66.951 94.2759Z" fill="#B22E2E"/>
<path d="M58.854 97.7638C55.7399 99.1341 52.6257 101.127 50.2589 103.992C51.5046 104.615 52.9994 104.989 54.6188 105.238C61.3454 106.11 66.951 100.006 67.6984 96.5181C65.2071 95.397 61.2208 96.7673 58.854 97.7638Z" fill="#FF582C"/>
<path d="M54.1204 73.0994C53.7467 72.6011 52.9993 72.6011 52.7502 73.0994C52.1274 74.0959 52.2519 75.8399 52.2519 76.961C52.2519 78.3312 52.2519 79.5769 52.2519 80.9472C52.2519 81.6946 52.2519 82.442 52.2519 83.0648C52.2519 83.4385 52.3765 84.3105 52.1274 84.5596C51.7537 85.0579 50.6325 84.6842 50.1342 84.4351C49.1377 84.0614 48.0166 83.4385 46.8955 83.5631C45.899 83.6877 45.027 84.3105 44.7778 85.307C44.4041 86.4281 45.027 87.5493 45.4007 88.6704C45.8989 89.7915 46.6464 90.9126 47.5183 91.7846C47.892 92.1583 48.2657 91.66 48.1412 91.2863C47.7675 90.0406 47.2692 88.9195 46.8955 87.6738C46.7709 87.3001 46.5217 86.5527 46.7709 86.179C47.02 85.9299 47.3938 85.9299 47.7675 86.0544C48.764 86.179 49.7605 86.9264 50.7571 87.1756C51.629 87.4247 52.6256 87.3001 53.373 86.9264C55.3661 85.8053 54.8678 82.8157 54.8678 80.698C54.8678 79.4523 54.8678 78.2067 54.8678 76.8364C54.6187 75.7153 54.7433 74.0959 54.1204 73.0994Z" fill="#C4311D"/>
<path d="M69.1933 80.0752C69.0687 83.0648 70.5636 85.4316 72.4321 85.5562C74.3006 85.6807 75.92 83.314 76.0445 80.3243C76.1691 77.3347 74.6743 74.9679 72.8058 74.8433C70.9373 74.8433 69.3179 77.0856 69.1933 80.0752Z" fill="black"/>
<path d="M37.1793 78.3312C37.0547 80.8226 38.3003 82.8157 39.7951 82.8157C41.29 82.8157 42.6602 80.9472 42.6602 78.4558C42.7848 75.9645 41.5391 73.9714 40.0443 73.9714C38.5495 73.9714 37.3038 75.9644 37.1793 78.3312Z" fill="black"/>
<path d="M76.5427 67.743C76.5427 67.4938 76.5427 67.3693 76.4182 67.1201C76.169 65.127 74.9233 63.5077 73.553 62.262C72.5565 61.39 71.1863 60.518 69.6915 60.0198C68.8195 59.7706 67.823 59.5215 66.8264 59.2724C65.8299 59.1478 64.2105 58.8987 63.2139 59.5215C62.5911 59.8952 62.4665 61.0163 63.5876 61.39C64.7087 61.8883 65.8298 61.7637 66.7018 61.8883C67.5738 62.0129 68.4458 62.1374 69.3178 62.3866C72.432 63.2585 74.6742 65.3762 75.7953 67.6184C75.9199 67.8675 76.0444 67.9921 76.169 68.1167C76.5427 68.6149 76.5427 68.2412 76.5427 67.743Z" fill="#FF5540"/>
<path d="M37.8022 65.2516C37.8022 65.0025 37.8022 64.8779 37.9268 64.6288C38.3005 62.7603 39.297 61.2654 40.4181 60.2689C41.2901 59.5215 42.2867 58.8987 43.4078 58.525C44.0306 58.4004 44.778 58.2758 45.5254 58.2758C46.2728 58.2758 47.5185 58.2758 48.1414 59.0232C48.5151 59.5215 48.5151 60.518 47.7677 60.8917C46.8957 61.1409 46.1483 61.0163 45.4009 61.0163C44.6534 61.0163 44.0306 61.0163 43.4078 61.1409C41.041 61.5146 39.297 63.2585 38.3005 65.3762C38.1759 65.6253 38.0513 65.7499 38.0513 65.8745C37.8022 65.999 37.8022 65.6253 37.8022 65.2516Z" fill="#FF5540"/>
<path d="M35.5598 234.913C35.5598 229.183 35.4353 223.453 35.809 217.723C35.9336 214.858 36.0582 211.993 36.3073 209.127L37.0547 200.532C37.3038 197.667 37.6775 194.802 38.0512 192.062C38.4249 189.197 38.7986 186.332 39.1723 183.591C40.0443 177.985 41.1654 172.255 42.2865 166.774C41.7883 169.639 41.5391 172.38 41.0409 175.245C40.6672 178.11 40.1689 180.851 39.7952 183.716C39.546 186.581 39.1724 189.446 38.7987 192.186C38.4249 195.051 38.0512 197.916 37.9267 200.657L37.0547 209.127C36.8055 211.993 36.681 214.858 36.4318 217.723C36.0581 223.453 35.9335 229.183 35.5598 234.913Z" fill="#FF8C01"/>
</svg>
