<svg width="196" height="199" viewBox="0 0 196 199" fill="none" xmlns="http://www.w3.org/2000/svg">
<path d="M39.8115 61.8196L47.8082 68.7262L46.6209 70.1009L38.6243 63.1942L39.8115 61.8196ZM42.1287 59.1368L43.2373 60.0942L37.4604 66.7828L36.3518 65.8253L42.1287 59.1368Z" fill="white"/>
<path d="M53.9095 56.9143L51.1231 58.9769L50.2475 57.8269L52.5237 56.1419C52.9737 55.8088 53.315 55.4874 53.5474 55.1776C53.785 54.864 53.9139 54.5621 53.9339 54.2718C53.954 53.9816 53.8672 53.7056 53.6735 53.444C53.5224 53.2399 53.3463 53.0949 53.145 53.009C52.9451 52.914 52.722 52.8807 52.4757 52.9091C52.2255 52.9323 51.9548 53.0152 51.6636 53.1579C51.3736 53.2915 51.0586 53.4842 50.7185 53.736L48.8582 55.113L54.2733 62.4284L52.8212 63.5033L46.5346 55.0105L49.847 52.5586C50.3859 52.1596 50.9048 51.8484 51.4036 51.625C51.9077 51.3977 52.3831 51.2685 52.8299 51.2375C53.2781 51.1973 53.6918 51.2637 54.0709 51.4367C54.45 51.6097 54.7868 51.895 55.0812 52.2927C55.271 52.5491 55.3988 52.8311 55.4645 53.1388C55.5303 53.4466 55.527 53.7649 55.4546 54.0939C55.3822 54.4229 55.2395 54.7553 55.0265 55.0912C54.8095 55.4219 54.5191 55.7462 54.1551 56.0643L53.9095 56.9143ZM56.6752 60.6505L53.3628 63.1024L53.2134 61.3905L55.8036 59.4731C56.2066 59.1749 56.5047 58.8773 56.6979 58.5803C56.8873 58.2781 56.9777 57.9844 56.9691 57.6992C56.9618 57.4048 56.8594 57.1242 56.6619 56.8574C56.4643 56.5905 56.2278 56.4132 55.9523 56.3256C55.6782 56.2288 55.3709 56.2295 55.0304 56.3276C54.6861 56.4205 54.3124 56.616 53.9095 56.9143L51.7039 58.547L50.8597 57.3737L53.6148 55.3343L54.466 55.3846C54.9589 55.0765 55.4391 54.8991 55.9069 54.8526C56.3746 54.8061 56.8026 54.8699 57.1909 55.0443C57.5752 55.2133 57.8952 55.4706 58.1509 55.8159C58.4453 56.2136 58.6289 56.6204 58.7018 57.0362C58.78 57.4482 58.7533 57.8608 58.6218 58.274C58.4864 58.682 58.256 59.0875 57.9305 59.4904C57.6012 59.8881 57.1827 60.2748 56.6752 60.6505Z" fill="white"/>
<path d="M61.4185 51.4066L61.332 51.1994C61.0386 50.4964 60.8686 49.802 60.822 49.1159C60.7729 48.4238 60.8479 47.7752 61.0468 47.1701C61.2432 46.559 61.5633 46.0162 62.0072 45.5416C62.4485 45.061 63.0087 44.679 63.6876 44.3956C64.3725 44.1097 65.0409 43.9787 65.693 44.0028C66.3486 44.0184 66.9626 44.1712 67.5353 44.4613C68.1114 44.7428 68.6282 45.1444 69.0858 45.6659C69.5409 46.1814 69.9152 46.7906 70.2086 47.4935L70.2952 47.7008C70.5886 48.4037 70.7586 49.0982 70.8052 49.7843C70.8517 50.4703 70.7738 51.1202 70.5714 51.7338C70.3725 52.3389 70.0524 52.8818 69.611 53.3623C69.1731 53.8344 68.6118 54.2134 67.9269 54.4993C67.242 54.7853 66.5747 54.9192 65.9252 54.9011C65.2731 54.877 64.659 54.7242 64.0829 54.4426C63.5103 54.1526 62.9964 53.7498 62.5414 53.2343C62.0863 52.7188 61.712 52.1096 61.4185 51.4066ZM62.9992 50.5033L63.0857 50.7106C63.2889 51.1973 63.5378 51.633 63.8326 52.0179C64.1248 52.3968 64.4541 52.7039 64.8203 52.939C65.1926 53.1716 65.593 53.3113 66.0218 53.3581C66.448 53.3988 66.8924 53.3227 67.355 53.1295C67.8116 52.9389 68.1722 52.679 68.4369 52.3498C68.7051 52.0121 68.8844 51.6303 68.9747 51.2046C69.0651 50.7788 69.0783 50.3289 69.0144 49.8546C68.9539 49.3719 68.8221 48.8872 68.619 48.4006L68.5325 48.1933C68.3318 47.7127 68.0823 47.2842 67.7841 46.9078C67.4894 46.5229 67.1559 46.2141 66.7836 45.9815C66.4149 45.7404 66.0161 45.5964 65.5874 45.5496C65.1647 45.5003 64.722 45.5723 64.2594 45.7654C63.8028 45.956 63.4404 46.2202 63.1722 46.5579C62.9101 46.8931 62.732 47.2779 62.6382 47.7121C62.5478 48.1379 62.5359 48.5909 62.6023 49.0711C62.6663 49.5453 62.7985 50.0227 62.9992 50.5033Z" fill="white"/>
<path d="M78.0004 48.1379L81.6266 39.7734L83.4212 39.4932L85.0512 49.9331L83.2565 50.2133L82.0679 42.6005L78.4418 50.965L76.6664 51.2422L75.0365 40.8023L76.8118 40.5251L78.0004 48.1379ZM80.0615 36.1432L81.5089 35.9173C81.5872 36.419 81.5412 36.8841 81.3709 37.3127C81.1996 37.7348 80.9155 38.0888 80.5187 38.3748C80.1218 38.6608 79.6275 38.85 79.0357 38.9424C78.1416 39.082 77.3969 38.9545 76.8015 38.5598C76.2116 38.1577 75.8574 37.5771 75.7389 36.8181L77.1862 36.5921C77.2455 36.9717 77.407 37.2891 77.6709 37.5444C77.9348 37.7997 78.3305 37.8862 78.858 37.8038C79.3726 37.7235 79.7166 37.5215 79.8901 37.1979C80.0637 36.8743 80.1208 36.5228 80.0615 36.1432Z" fill="white"/>
<path d="M105.656 41.196L105.353 42.659L100.352 41.621L100.655 40.1581L105.656 41.196ZM107.215 41.5195L105.067 51.8654L103.298 51.4983L105.446 41.1523L107.215 41.5195ZM100.225 40.0687L102.004 40.4379L100.7 45.3736C100.495 46.1357 100.28 46.8025 100.055 47.3742C99.8379 47.9408 99.5995 48.4166 99.34 48.8016C99.087 49.1879 98.8052 49.4885 98.4946 49.7033C98.1918 49.913 97.8518 50.0453 97.4747 50.1C97.099 50.1484 96.6816 50.1249 96.2227 50.0296L95.6681 49.9145L95.9916 48.3559L96.38 48.4066C96.6581 48.4444 96.904 48.429 97.1177 48.3603C97.3378 48.2929 97.5366 48.168 97.7142 47.9854C97.893 47.7964 98.0589 47.5416 98.2119 47.221C98.3713 46.9017 98.5216 46.514 98.6628 46.0579C98.8104 45.6031 98.9611 45.0692 99.1149 44.4562L100.225 40.0687Z" fill="white"/>
<path d="M112.615 51.5942L120.32 46.7203L121.961 47.4986L117.433 57.0459L115.792 56.2675L119.094 49.3056L111.389 54.1795L109.765 53.4096L114.293 43.8623L115.917 44.6323L112.615 51.5942Z" fill="white"/>
<path d="M134.499 56.4858L127.874 64.717L126.467 63.5842L133.092 55.353L134.499 56.4858ZM130.977 59.8809L130.046 61.0372C129.676 60.9151 129.31 60.7788 128.946 60.6283C128.592 60.4767 128.232 60.2957 127.866 60.0852C127.51 59.8736 127.144 59.6168 126.769 59.3147C126.12 58.7922 125.647 58.2275 125.35 57.6206C125.057 57.0087 124.964 56.3704 125.073 55.7058C125.186 55.0361 125.524 54.3513 126.087 53.6514L128.022 51.2474L129.43 52.3802L127.495 54.7842C127.127 55.2406 126.898 55.666 126.806 56.0602C126.715 56.4544 126.745 56.8261 126.899 57.1753C127.057 57.5195 127.325 57.8446 127.706 58.1508C128.071 58.4447 128.432 58.6974 128.788 58.909C129.153 59.1195 129.516 59.3026 129.875 59.4582C130.24 59.6179 130.607 59.7588 130.977 59.8809Z" fill="white"/>
<path d="M140.175 69.7791L139.021 70.6815L135.58 66.2812L136.734 65.3788L140.175 69.7791ZM140.577 62.8575L132.253 69.3664L131.14 67.9432L139.464 61.4343L140.577 62.8575ZM144.686 68.1117L136.362 74.6206L135.243 73.1898L143.567 66.6809L144.686 68.1117Z" fill="white"/>
<path d="M146.207 77.6826L147.387 80.629C147.704 81.4208 147.832 82.1443 147.772 82.7996C147.718 83.4525 147.504 84.0147 147.132 84.4863C146.769 84.9615 146.281 85.3213 145.671 85.5657C145.218 85.7472 144.76 85.8392 144.298 85.8418C143.843 85.8419 143.404 85.7441 142.982 85.5484C142.562 85.3587 142.176 85.0681 141.823 84.6765C141.478 84.2885 141.187 83.7984 140.95 83.2061L139.28 79.0357L149.09 75.1085L149.761 76.7857L141.33 80.1612L142.328 82.6544C142.522 83.1379 142.764 83.4896 143.055 83.7096C143.347 83.9295 143.657 84.0473 143.986 84.0629C144.315 84.0785 144.63 84.0258 144.932 83.9048C145.229 83.7863 145.493 83.6067 145.727 83.366C145.96 83.1254 146.112 82.8225 146.183 82.4573C146.261 82.0898 146.202 81.6643 146.009 81.1807L144.829 78.2343L146.207 77.6826ZM153.623 86.432L143.814 90.3592L143.142 88.682L152.952 84.7547L153.623 86.432Z" fill="white"/>
<path d="M147.976 97.2184L156.145 101.265L156.334 103.072L145.824 104.169L145.636 102.362L153.299 101.562L145.13 97.5154L144.943 95.7282L155.453 94.6314L155.639 96.4186L147.976 97.2184ZM159.85 99.8869L160.002 101.344C159.497 101.397 159.035 101.327 158.616 101.135C158.203 100.943 157.864 100.641 157.598 100.23C157.333 99.8191 157.169 99.3158 157.107 98.7201C157.013 97.82 157.178 97.0828 157.603 96.5082C158.034 95.9395 158.632 95.6153 159.396 95.5356L159.548 96.9925C159.166 97.0324 158.841 97.1776 158.572 97.4282C158.304 97.6787 158.198 98.0695 158.253 98.6005C158.307 99.1185 158.491 99.4724 158.806 99.6621C159.12 99.8519 159.468 99.9268 159.85 99.8869Z" fill="white"/>
<path d="M145.342 118.728L153.853 123.821L153.397 125.7L142.544 118.702C142.314 118.546 142.073 118.353 141.82 118.124C141.56 117.9 141.326 117.636 141.119 117.331C140.911 117.026 140.767 116.683 140.686 116.301C140.596 115.924 140.608 115.502 140.722 115.034C140.756 114.894 140.818 114.722 140.908 114.516C140.998 114.31 141.067 114.166 141.114 114.083L142.539 114.42C142.521 114.469 142.495 114.546 142.463 114.652C142.422 114.763 142.397 114.841 142.386 114.885C142.289 115.284 142.261 115.635 142.301 115.94C142.334 116.243 142.452 116.519 142.652 116.769C142.845 117.023 143.136 117.271 143.526 117.514L145.342 118.728ZM155.056 118.867L146.437 119.597L144.476 119.603L144.137 118.185L155.522 116.95L155.056 118.867Z" fill="white"/>
<path d="M148.078 138.098L138.548 133.533L139.328 131.904L148.858 136.468L148.078 138.098ZM143.966 135.446L142.627 134.805C142.662 134.417 142.71 134.029 142.774 133.641C142.84 133.261 142.934 132.869 143.055 132.465C143.179 132.07 143.346 131.655 143.554 131.221C143.914 130.469 144.355 129.879 144.878 129.451C145.406 129.026 146.006 128.79 146.678 128.743C147.356 128.7 148.1 128.872 148.91 129.26L151.694 130.593L150.913 132.222L148.13 130.89C147.602 130.636 147.135 130.51 146.73 130.511C146.325 130.513 145.971 130.628 145.666 130.857C145.367 131.089 145.112 131.426 144.901 131.866C144.699 132.289 144.535 132.698 144.411 133.093C144.29 133.497 144.195 133.892 144.125 134.277C144.053 134.669 144 135.058 143.966 135.446Z" fill="white"/>
<path d="M133.241 140.773C133.698 140.196 134.209 139.75 134.775 139.434C135.342 139.127 135.937 138.947 136.561 138.893C137.181 138.845 137.807 138.925 138.438 139.134C139.07 139.344 139.676 139.679 140.258 140.14L140.58 140.395C141.253 140.928 141.774 141.503 142.142 142.118C142.515 142.738 142.75 143.364 142.846 143.997C142.943 144.63 142.914 145.238 142.759 145.822C142.604 146.405 142.343 146.929 141.975 147.393C141.506 147.985 140.999 148.415 140.456 148.682C139.908 148.954 139.341 149.082 138.755 149.066C138.175 149.055 137.584 148.919 136.984 148.66C136.389 148.404 135.801 148.046 135.219 147.585L134.584 147.082L139.484 140.897L140.64 141.813L136.862 146.582L136.969 146.667C137.352 146.937 137.77 147.144 138.222 147.286C138.67 147.433 139.118 147.456 139.565 147.353C140.012 147.25 140.427 146.956 140.811 146.471C141.066 146.15 141.232 145.799 141.308 145.42C141.39 145.044 141.375 144.654 141.263 144.25C141.151 143.846 140.946 143.439 140.649 143.028C140.351 142.618 139.952 142.215 139.452 141.819L139.13 141.564C138.737 141.253 138.325 141.013 137.893 140.845C137.462 140.687 137.034 140.609 136.608 140.612C136.178 140.62 135.769 140.716 135.383 140.9C134.992 141.089 134.643 141.377 134.336 141.765C133.94 142.265 133.706 142.769 133.636 143.278C133.565 143.787 133.597 144.307 133.733 144.838L132.372 145.155C132.243 144.763 132.166 144.331 132.139 143.862C132.112 143.392 132.182 142.895 132.349 142.371C132.511 141.851 132.808 141.319 133.241 140.773Z" fill="white"/>
<path d="M132.269 162.952L131.107 163.875C130.71 163.375 130.47 162.917 130.389 162.5C130.311 162.088 130.342 161.697 130.481 161.329C130.616 160.964 130.816 160.61 131.083 160.265C131.344 159.924 131.62 159.576 131.912 159.22C132.277 158.78 132.569 158.311 132.789 157.812C133.007 157.323 133.11 156.793 133.096 156.221C133.078 155.654 132.906 155.034 132.58 154.362C132.249 153.694 131.721 152.961 130.997 152.165L130.438 151.461L131.6 150.538L132.159 151.241C132.908 152.184 133.473 153.079 133.853 153.924C134.229 154.773 134.443 155.572 134.496 156.319C134.549 157.067 134.463 157.763 134.236 158.409C134.004 159.059 133.655 159.656 133.189 160.201C132.852 160.593 132.575 160.946 132.359 161.259C132.146 161.578 132.027 161.872 132 162.142C131.969 162.417 132.058 162.687 132.269 162.952ZM130.706 157.546C130.166 157.975 129.609 158.263 129.036 158.411C128.463 158.558 127.896 158.581 127.333 158.479C126.77 158.378 126.23 158.158 125.712 157.821C125.194 157.493 124.722 157.061 124.297 156.526L124.163 156.357C123.706 155.781 123.365 155.179 123.14 154.551C122.914 153.932 122.817 153.312 122.846 152.689C122.875 152.076 123.037 151.486 123.334 150.917C123.626 150.353 124.063 149.84 124.644 149.379C125.225 148.917 125.826 148.606 126.447 148.445C127.062 148.289 127.675 148.264 128.283 148.371C128.896 148.483 129.481 148.717 130.038 149.073C130.594 149.438 131.1 149.908 131.558 150.484L131.692 150.652C131.793 150.78 131.869 150.923 131.92 151.082C131.972 151.241 132.015 151.41 132.05 151.59C132.08 151.774 132.123 151.96 132.18 152.147C132.356 152.756 132.437 153.386 132.422 154.038C132.403 154.694 132.259 155.323 131.99 155.927C131.721 156.541 131.293 157.08 130.706 157.546ZM130.065 156.172C130.585 155.759 130.918 155.299 131.064 154.793C131.205 154.29 131.199 153.775 131.046 153.248C130.898 152.725 130.641 152.235 130.277 151.776L130.143 151.608C129.835 151.22 129.498 150.89 129.131 150.616C128.764 150.342 128.381 150.143 127.983 150.019C127.584 149.903 127.181 149.883 126.774 149.956C126.362 150.034 125.96 150.229 125.567 150.541C125.174 150.853 124.896 151.198 124.732 151.578C124.568 151.958 124.5 152.353 124.527 152.764C124.558 153.18 124.665 153.598 124.849 154.017C125.032 154.437 125.278 154.84 125.586 155.228L125.719 155.396C125.994 155.743 126.302 156.035 126.64 156.273C126.979 156.511 127.338 156.675 127.717 156.765C128.091 156.859 128.478 156.859 128.877 156.766C129.276 156.682 129.672 156.484 130.065 156.172Z" fill="white"/>
<path d="M113.213 163.278L112.604 161.946L117.685 159.625L118.294 160.957L113.213 163.278ZM119.851 165.281L115.46 155.67L117.103 154.92L121.494 164.53L119.851 165.281ZM113.784 168.053L109.393 158.442L111.045 157.687L115.436 167.298L113.784 168.053Z" fill="white"/>
<path d="M103.598 163.125L100.279 171.615L98.4953 171.961L96.4872 161.587L98.2705 161.242L99.7348 168.806L103.055 160.315L104.819 159.974L106.827 170.348L105.063 170.689L103.598 163.125Z" fill="white"/>
<path d="M89.3613 172.467L89.7662 161.908L91.5715 161.978L91.1666 172.536L89.3613 172.467ZM82.4328 172.201L87.6709 166.343L90.1983 166.44L90.4109 168.031L88.3422 167.952L84.6285 172.286L82.4328 172.201ZM84.7796 161.717L88.4801 166.648L87.2687 167.911L82.4864 161.629L84.7796 161.717Z" fill="white"/>
</svg>
