<svg width="60" height="77" viewBox="0 0 60 77" fill="none" xmlns="http://www.w3.org/2000/svg">
<path d="M33.0599 49.3668C32.3418 48.3108 24.0205 46.8746 15.9526 47.7617C7.88466 48.6487 6.23729 56.5899 6.23729 63.0104C6.23729 69.4309 5.01233 84.5529 7.58899 86.8339C10.1656 89.1571 32.2151 89.9175 34.9185 87.0874C37.6218 84.2573 38.2132 57.2657 33.0599 49.3668Z" fill="#CF1E26"/>
<path d="M11.7284 49.1555C12.3198 49.6202 12.8689 50.2538 13.2913 50.9719C14.2629 52.7037 14.6008 54.8157 14.7698 56.8432C15.1499 61.5742 15.3189 66.3473 15.3611 71.0782C15.4034 73.5282 15.3611 75.9359 15.2344 78.3858C15.1499 79.8642 15.0654 81.3004 14.8542 82.7365C14.643 84.1305 14.3051 85.4822 13.6293 86.6649C13.2491 87.3407 12.7422 87.8476 12.1931 88.1856C9.95436 87.8476 8.26474 87.383 7.63114 86.8339C5.05448 84.5106 6.27945 69.4309 6.27945 63.0103C6.23721 57.9415 7.29321 51.9011 11.7284 49.1555Z" fill="#EE4C36"/>
<path d="M43.1552 51.183C43.1552 51.183 55.8695 61.2362 56.5031 65.5869C57.1367 69.8954 47.5482 82.6942 47.5482 82.6942L43.1552 51.183Z" fill="#FFD996"/>
<path opacity="0.5" d="M44.0846 51.9855C44.0846 52.0278 44.0846 52.07 44.0846 52.1123C44.6338 56.463 46.4923 60.4758 48.6466 64.2775C49.7026 66.136 50.7586 68.0369 51.9413 69.811C52.4905 70.6558 53.1241 71.4583 53.7577 72.2609C53.8421 72.3876 53.9689 72.4721 54.0533 72.5988C51.3922 77.4987 47.4639 82.6942 47.4639 82.6942L43.1131 51.183C43.1553 51.183 43.4933 51.4787 44.0846 51.9855Z" fill="#FFD996"/>
<path d="M47.2949 69.8954C47.5483 69.5575 47.844 69.2195 48.1397 68.8816C48.2241 68.7127 48.3509 68.5015 48.4353 68.3325C48.5621 68.1213 48.6888 67.9101 48.8577 67.6567C49.1112 67.2343 49.3646 66.7696 49.7026 66.3472C49.7448 66.2627 49.8715 66.3472 49.8293 66.4317C49.6181 66.8963 49.2801 67.3187 49.0267 67.7834C48.9 67.9523 48.7733 68.1635 48.6888 68.3325C48.9845 68.0791 49.2379 67.8256 49.5336 67.5722C50.3362 66.9386 51.2654 66.305 52.2792 65.967C52.3637 65.9248 52.4482 66.0938 52.3637 66.136C51.899 66.3895 51.4766 66.6007 51.012 66.8541C50.5474 67.1075 50.125 67.4455 49.7026 67.7411C48.8577 68.3747 48.1397 69.1351 47.4638 69.9376C47.3793 70.1066 47.2526 69.9799 47.2949 69.8954Z" fill="#C78E23"/>
<path d="M15.1499 86.2425C18.8671 86.7916 22.6265 87.1295 26.4281 87.2562C33.271 87.5097 40.3252 87.4252 46.9569 86.2002C48.3508 85.9468 49.7447 85.6089 51.0964 85.1865C49.0267 69.1352 46.3233 54.4355 43.5777 51.352C43.1975 50.8873 41.3389 50.2537 38.9312 49.6624C38.8468 49.6201 38.72 49.6201 38.6355 49.5779C35.4675 48.8598 31.4125 48.2262 28.16 48.3107C26.9772 48.3529 25.879 48.4374 24.8652 48.6064C24.7385 48.6064 24.6118 48.6486 24.4851 48.6908C20.5567 49.3245 17.9378 50.8029 17.4732 51.8166C16.8396 53.1683 16.4594 78.6392 15.4456 84.5529C15.4034 84.9753 15.2767 85.5244 15.1499 86.2425Z" fill="#FFD996"/>
<path d="M24.4852 48.7332C25.0766 49.3668 25.7524 49.9581 26.4282 50.5073C27.1886 51.0986 27.9489 51.69 28.7937 52.1546C30.4833 53.1262 32.4264 53.7598 34.4117 53.7598C35.3832 53.7598 36.3547 53.5908 37.284 53.2529C38.0866 52.9572 38.8047 52.4503 39.0581 51.5633C39.2271 50.8874 39.1426 50.2961 38.8891 49.7469C38.8047 49.7047 38.6779 49.7047 38.5935 49.6625C38.9736 50.465 39.0159 51.4788 38.4245 52.1546C37.8754 52.7882 36.9461 53.0839 36.1435 53.2529C35.2987 53.4218 34.3694 53.4641 33.5246 53.3796C31.7505 53.2106 30.1032 52.577 28.5825 51.6477C27.8222 51.1831 27.1041 50.6762 26.4282 50.0849C25.8791 49.6202 25.33 49.1133 24.8231 48.6064C24.7386 48.6487 24.6119 48.6909 24.4852 48.7332Z" fill="#C78E23"/>
<path d="M38.7622 46.959L37.4528 51.6476C37.4528 51.6476 36.439 53.295 31.4546 51.9855C26.7237 50.7183 27.1884 48.4374 27.1884 48.4374L28.2866 44.7202L38.7622 46.959Z" fill="#FFA672"/>
<path d="M38.0019 50.5917C36.8614 50.7184 35.6787 50.5072 34.5382 50.2537C33.1443 49.9158 31.7926 49.4934 30.6099 48.7331C29.4271 47.9728 28.4978 46.959 28.2022 45.8185C28.1177 45.4383 28.0754 44.9737 28.3289 44.678C28.5823 44.3823 29.0047 44.2979 29.4694 44.2134C30.2719 44.1289 31.1167 44.1711 31.9193 44.2979C34.4115 44.6358 36.7769 45.3961 39.1424 46.2409C39.6915 46.4521 40.3251 46.7056 40.6208 47.128C41.001 47.6771 41.0854 48.9021 40.7053 49.4512C40.2406 50.127 38.9312 50.5072 38.0019 50.5917Z" fill="#B22E2E"/>
<path d="M17.4731 51.8588C15.0232 54.8579 8.13799 72.1764 5.89926 90.7621C5.7303 92.2405 12.4043 93.0008 15.1499 92.9164C15.1499 92.9164 16.5861 84.9329 18.5291 75.3444C20.4722 65.7981 23.1755 63.137 23.1755 58.744C23.1755 54.3932 20.3877 48.3106 17.4731 51.8588Z" fill="#FFD996"/>
<path d="M16.4172 86.158C16.8818 84.1727 17.3042 82.1874 17.7266 80.2021C18.149 78.2168 18.5292 76.2315 18.9516 74.2462C19.374 72.2609 19.9231 70.3179 20.5567 68.417C21.1481 66.474 21.9506 64.6154 22.4998 62.6724C22.1618 63.6016 21.7817 64.5732 21.4015 65.5025C21.0213 66.4317 20.6834 67.4033 20.3455 68.3326C19.6697 70.2334 19.1205 72.2187 18.6981 74.204C18.4869 75.2177 18.318 76.1893 18.1068 77.203C17.9378 78.2168 17.7266 79.1883 17.5576 80.2021C17.093 82.1874 16.7551 84.1727 16.4172 86.158Z" fill="#C78E23"/>
<path d="M25.0763 48.3529C25.1608 48.3529 25.2453 48.3951 25.2875 48.4796C27.9909 52.8304 28.4978 58.4906 27.4418 63.5172C26.3435 68.6705 23.091 73.3169 18.6558 76.1048C18.1067 76.4427 17.3886 76.316 17.0929 75.7669C16.755 75.1332 17.1774 74.2884 17.5998 73.6548C18.8248 72.0075 21.9928 67.5722 23.091 62.1232C24.1893 56.632 22.2885 52.239 20.979 49.7046C20.8945 49.5779 20.9368 49.3667 21.0635 49.3244C22.1195 48.8175 24.0203 48.4796 25.0763 48.3529Z" fill="black"/>
<path d="M41.212 50.0425C42.8172 50.6761 44.2111 51.6898 45.1404 53.1683C51.0963 62.6301 49.9135 72.0919 49.6179 72.4721C49.2377 72.9367 49.0265 71.754 48.9843 71.5428C47.0834 62.3344 44.3801 57.3078 42.7749 54.8579C42.0568 53.7596 41.2543 52.7036 40.3672 51.7321C39.9026 51.2252 39.438 50.7606 38.9311 50.2959C38.7621 50.1692 38.3397 49.8313 38.3397 49.5778C38.3397 49.0709 40.4517 49.7468 40.7052 49.8313C40.8741 49.9157 41.0431 50.0002 41.212 50.0425Z" fill="black"/>
<path d="M46.4077 9.32292C50.0826 12.1108 51.73 17.2641 50.4205 21.6993C50.2093 22.4596 49.9136 23.1777 49.3645 23.7691C48.8576 24.3605 48.0973 24.7406 47.337 24.6984C45.943 24.5717 45.0982 23.1355 44.5069 21.8683C43.4931 19.714 42.5216 17.5175 41.9725 15.1521C41.5923 13.4202 41.0854 10.4634 42.0147 8.85827C42.9862 7.29538 45.3939 8.52035 46.4077 9.32292Z" fill="black"/>
<path d="M51.561 29.1759C51.561 30.781 51.5188 32.3017 51.3498 33.7801C51.3498 33.8223 51.3498 33.8223 51.3498 33.8646C51.3076 34.3292 51.2231 34.7516 51.1809 35.2163C50.5895 38.9757 49.2801 42.1859 46.7879 44.4247L46.7456 44.4669C46.3232 44.8471 45.8164 45.2272 45.3095 45.5651C43.1552 46.9591 40.2829 47.8461 36.5235 48.0573C36.3545 48.0573 36.1856 48.0573 36.0166 48.0573C35.8054 48.0573 35.6364 48.0573 35.4252 48.0573C35.0028 48.0573 34.5804 48.0573 34.1158 48.0151C28.7513 47.6349 23.9781 44.3824 21.0635 39.4403C21.0213 39.3981 21.0213 39.3558 20.9791 39.3136C20.7256 38.8912 20.5144 38.511 20.3032 38.0464C19.2472 35.8499 18.5291 33.3999 18.2334 30.6966C17.0507 19.5874 23.8936 9.32297 33.8201 8.68937C43.9155 8.05576 51.4343 16.0814 51.561 29.1759Z" fill="#FFA672"/>
<path d="M49.3224 10.1255C49.1534 11.0125 48.8155 11.7728 48.0974 12.3642C44.338 15.4477 39.6493 12.2797 39.6493 12.2797C39.6493 12.2797 38.2976 14.7719 34.4538 15.7857C30.6099 16.8417 27.104 15.0253 27.104 15.0253C27.104 15.0253 28.3712 18.3623 26.4281 22.1639C24.4851 25.9233 22.4153 27.1483 22.4153 27.1483C22.4153 27.1483 23.5135 29.3026 21.7394 30.4853C19.7119 31.837 13.7138 30.7387 12.4466 26.1768C11.8975 24.2337 11.3906 21.1924 11.6018 18.1089C11.813 15.5322 12.5733 12.8288 14.3052 10.7168C15.3189 9.44962 16.6284 8.39361 18.4025 7.59104C20.3455 6.704 22.5843 6.15487 24.9075 5.77471C26.5971 5.52127 28.3289 5.35231 30.0185 5.31007C35.8477 5.05662 40.8743 5.73247 40.8743 5.73247C40.8743 5.73247 38.1709 2.0998 39.6071 1.255C39.6493 1.21276 39.6493 1.21276 39.6916 1.21276C41.2545 0.452434 43.9156 3.70494 44.1268 3.95838C44.0846 3.78942 43.6199 2.69117 43.5354 1.71964C43.451 0.874835 43.6199 0.11451 44.507 0.0300293C44.5492 0.0300293 44.6337 0.0300293 44.7182 0.0300293C46.3233 0.241231 49.956 6.28159 49.3224 10.1255Z" fill="black"/>
<path opacity="0.7" d="M30.103 6.28159C29.8073 7.37984 28.5401 7.92896 27.3573 8.22465C27.1461 8.26689 26.9349 8.35137 26.8082 8.43585C26.5125 8.64705 26.5125 9.11169 26.597 9.44962C26.6815 9.78754 26.8505 10.1677 26.8082 10.5056C26.7237 11.2659 25.8367 11.6883 24.9919 11.7306C24.1893 11.7306 23.3868 11.4771 22.5842 11.3927C21.7816 11.3504 20.8523 11.6039 20.5567 12.2797C20.2187 13.04 20.8101 14.0116 20.3455 14.7297C19.9653 15.2788 19.1205 15.3633 18.4446 15.1098C17.811 14.8564 17.2619 14.434 16.6705 14.096C16.4171 13.9271 16.0792 13.8004 15.7835 13.8426C15.2344 13.9271 14.9809 14.5184 14.8542 15.0253C14.643 15.7857 14.4318 16.5037 14.1784 17.2641C13.9672 17.9399 13.6292 18.7425 12.9112 18.827C12.4465 18.8692 11.9819 18.6158 11.7707 18.2356C11.7284 18.1511 11.6862 18.1089 11.6862 18.0244C11.8974 15.4477 12.6577 12.7444 14.3896 10.6323C14.6853 10.6746 14.9387 10.7168 15.2344 10.8013C16.4593 11.1392 17.2619 11.1392 18.1067 10.041C18.4869 9.57633 18.7826 8.98497 19.2894 8.64705C20.6411 7.63328 22.9221 8.22464 24.1471 7.08416C24.5695 6.70399 24.7807 6.19711 25.0341 5.69023C26.7237 5.43679 28.4556 5.26783 30.1452 5.22559C30.1452 5.56351 30.1874 5.94367 30.103 6.28159Z" fill="#611B20"/>
<path d="M13.9671 26.8104C13.1645 26.9794 12.4042 27.4018 11.8129 28.2044C11.1792 29.0914 10.9258 30.2319 10.968 31.2879C10.968 33.6111 12.0663 35.8499 13.8404 37.4128C14.9386 38.3843 16.3748 39.2713 17.8532 39.398C19.5428 39.567 20.8945 38.511 21.2747 36.8636C21.4859 36.0611 21.4014 35.174 21.2747 34.3715C20.81 30.8655 18.3601 26.0079 13.9671 26.8104Z" fill="#FFA672"/>
<path d="M14.5163 30.1051C15.3188 30.1051 15.9947 30.612 16.5015 31.1611C17.642 32.4706 18.1489 34.2024 17.98 35.9343C17.9377 36.1877 17.5576 36.1877 17.5576 35.9343C17.642 34.5403 17.1774 33.1042 16.3326 32.0059C16.1636 31.7525 15.9524 31.499 15.699 31.2878C15.4455 31.5835 15.2766 31.9214 15.1921 32.2594C15.1499 32.4706 15.1499 32.6395 15.1499 32.893C15.1499 32.9352 15.1499 33.0197 15.1499 33.0619C15.1499 33.0197 15.1499 33.1042 15.1499 33.1042C15.1499 33.1464 15.1499 33.1464 15.1499 33.1886C15.1921 33.3154 15.2343 33.4421 15.1921 33.5688C15.1921 33.78 14.9387 33.9067 14.7697 33.7378C14.5585 33.5266 14.5162 33.1886 14.474 32.893C14.4318 32.6395 14.474 32.3438 14.5585 32.0904C14.6852 31.668 14.8964 31.2878 15.1921 30.9499C15.0654 30.8654 14.9387 30.8232 14.7697 30.7809C14.5163 30.6965 14.2206 30.7387 13.9671 30.8232C13.7137 30.9499 13.587 31.2034 13.3335 31.3301C13.2068 31.4146 12.9956 31.3301 12.9534 31.1611C12.9534 30.4853 13.9671 30.1051 14.5163 30.1051Z" fill="#C4311D"/>
<path d="M36.7346 34.7516C37.9596 34.3292 38.9311 35.1318 41.1276 35.3007C43.3241 35.4697 44.7603 34.9628 45.0137 35.3852C45.6473 36.399 43.4931 38.7644 40.4095 38.7644C37.2838 38.8067 35.4674 35.2162 36.7346 34.7516Z" fill="white"/>
<g opacity="0.2">
<path d="M36.8191 46.6211C36.6079 47.128 36.3545 47.5926 36.0165 48.015C35.8053 48.015 35.6364 48.015 35.4252 48.015C35.0028 48.015 34.5804 48.015 34.1157 47.9728C28.7512 47.5926 23.9781 44.3401 21.0635 39.398C21.0212 39.3558 21.0212 39.3135 20.979 39.2713C20.7256 38.8489 20.5143 38.4687 20.3031 38.0041C20.5988 37.4549 20.9368 36.9903 21.3592 36.5679C22.7953 35.174 24.9073 34.6248 26.8926 34.7516C28.8779 34.8783 30.7787 35.7231 32.4261 36.8213C34.0312 37.8774 35.4674 39.2713 36.3545 41.0031C37.2837 42.7772 37.5372 44.847 36.8191 46.6211Z" fill="#EC372F"/>
<path d="M51.3921 33.7378C51.3921 33.78 51.3921 33.78 51.3921 33.8223C51.3498 34.2869 51.2654 34.7093 51.2231 35.174C50.6318 38.9333 49.3223 42.1436 46.8301 44.3823L46.7879 44.4246C46.9569 42.6083 47.2525 40.7497 47.8439 39.0178C48.4775 36.9481 49.6602 35.005 51.3921 33.7378Z" fill="#EC372F"/>
</g>
<path d="M36.5657 29.6827C36.6079 30.6964 36.101 31.499 35.4674 31.5412C34.8338 31.5835 34.2847 30.7809 34.2424 29.7671C34.2002 28.7534 34.7071 27.9508 35.3407 27.9086C35.9743 27.9086 36.5234 28.6689 36.5657 29.6827Z" fill="black"/>
<path d="M47.3792 29.1336C47.4214 29.9784 46.999 30.6543 46.4921 30.6543C45.9852 30.6543 45.5206 30.0207 45.5206 29.1759C45.4783 28.331 45.9008 27.6552 46.4076 27.6552C46.9145 27.613 47.3792 28.2888 47.3792 29.1336Z" fill="black"/>
<path d="M33.5667 22.7976C34.4115 21.5304 35.552 20.2632 36.9459 19.7986C37.4528 19.6296 38.0019 19.6296 38.3821 20.0098C38.72 20.3054 38.8467 20.8123 38.7623 21.2347C38.5511 22.2907 37.5373 22.6709 36.6502 23.0088C36.0589 23.22 35.5098 23.4735 35.0029 23.7269C34.7072 23.8959 32.8064 25.1631 32.8909 24.1071C32.8909 23.9381 32.9753 23.8114 33.0598 23.6847C33.1865 23.389 33.3977 23.0933 33.5667 22.7976Z" fill="black"/>
<path d="M48.4353 22.0372C48.4775 22.1217 48.562 22.2484 48.5197 22.3751C48.4775 23.2622 46.8724 22.3751 46.6189 22.2906C46.1543 22.1217 45.6474 21.995 45.1405 21.8682C44.3379 21.6993 43.4509 21.4881 43.4087 20.601C43.3664 20.2209 43.5354 19.7985 43.8733 19.5028C44.2957 19.1226 44.8026 19.0804 45.225 19.1649C46.45 19.3761 47.3793 20.3476 48.0129 21.3191C48.1818 21.5725 48.3085 21.7838 48.4353 22.0372Z" fill="black"/>
<path d="M42.4371 30.7809C42.4371 30.3585 42.5216 29.9784 42.606 29.556C42.6905 29.1758 42.8595 28.7956 43.0284 28.4155C43.1129 28.2465 43.2396 28.0775 43.3241 27.9086C43.4508 27.7396 43.5776 27.5284 43.7888 27.4439C44 27.3595 44.1689 27.4862 44.1267 27.6974C44.0845 27.9086 43.9155 28.1198 43.831 28.2887C43.7465 28.4577 43.6198 28.6267 43.5353 28.8379C43.3664 29.218 43.2396 29.5982 43.1552 30.0206C43.0707 30.443 43.0284 30.9077 43.0284 31.3301C43.0284 31.499 43.0284 31.7102 43.2819 31.7102C43.4931 31.7102 43.7043 31.5835 43.8733 31.499C44.5491 31.2033 45.3939 31.3301 45.7741 32.0059C46.1542 32.6395 45.9008 33.4421 45.3094 33.8222C45.1827 33.9067 45.0137 33.6955 45.1405 33.5688C45.6896 33.0197 45.4784 32.0059 44.6758 31.9214C44.2957 31.8792 43.9577 32.1749 43.6198 32.2593C43.2396 32.3438 42.8172 32.3016 42.606 31.9214C42.3948 31.5835 42.4371 31.1189 42.4371 30.7809Z" fill="#C4311D"/>
</svg>
