<svg width="155" height="156" viewBox="0 0 155 156" fill="none" xmlns="http://www.w3.org/2000/svg">
<path d="M46.4696 123.348L46.2498 123.357L46.2668 124.162L111.357 122.595L111.335 122.204L46.4911 123.739L46.4696 123.348Z" fill="#C3C9CE"/>
<path d="M109.382 32.7265L108.722 32.7533L110.926 121.785L46.4696 123.348L46.4911 123.739L111.335 122.204L111.581 122.172L110.173 65.7854L109.749 48.438L109.382 32.7265Z" fill="#D1D7DC"/>
<path d="M48.4379 74.0909C48.4526 74.5791 48.0604 74.9656 47.5723 74.9801L46.1079 75.0234C46.4202 75.435 46.8847 75.7599 47.4472 75.7263C48.3491 75.7166 49.0592 74.9627 49.023 74.0833C49.0127 73.1814 48.2584 72.4708 47.3791 72.5065C46.8166 72.54 46.3567 72.8487 46.084 73.268L47.5483 73.2247C47.988 73.2069 48.4232 73.6028 48.4379 74.0909Z" fill="#D1D7DC"/>
<path d="M49.3153 109.762C49.33 110.25 48.9378 110.637 48.4496 110.651L46.9853 110.694C47.2976 111.106 47.7621 111.431 48.3246 111.397C49.2265 111.388 49.9365 110.634 49.9004 109.754C49.8901 108.852 49.1358 108.142 48.2565 108.178C47.694 108.211 47.2341 108.52 46.9614 108.939L48.4257 108.896C48.8654 108.878 49.3006 109.274 49.3153 109.762Z" fill="#D1D7DC"/>
<path d="M48.8766 91.9264C48.8913 92.4146 48.5217 92.827 48.011 92.8155L46.5466 92.8589C46.8589 93.2705 47.3234 93.5954 47.8859 93.5618C48.7878 93.5521 49.4979 92.7982 49.4617 91.9188C49.4514 91.0169 48.6971 90.3063 47.8179 90.342C47.2553 90.3755 46.7955 90.6842 46.5227 91.1035L47.987 91.0602C48.4267 91.0424 48.8619 91.4383 48.8766 91.9264Z" fill="#D1D7DC"/>
<path d="M49.5217 118.691C49.5364 119.179 49.1667 119.592 48.6561 119.58L47.1917 119.623C47.504 120.035 47.9685 120.36 48.531 120.326C49.4329 120.317 50.143 119.563 50.1068 118.683C50.0965 117.781 49.3423 117.071 48.463 117.107C47.9004 117.14 47.4405 117.449 47.1678 117.868L48.6322 117.825C49.0977 117.784 49.507 118.203 49.5217 118.691Z" fill="#D1D7DC"/>
<path d="M48.6443 83.02C48.659 83.5081 48.2893 83.9206 47.7787 83.9091L46.3143 83.9524C46.6266 84.364 47.0911 84.6889 47.6536 84.6554C48.5554 84.6456 49.2655 83.8917 49.2293 83.0124C49.2191 82.1104 48.4648 81.3998 47.5855 81.4355C47.023 81.4691 46.5631 81.7778 46.2904 82.197L47.7547 82.1537C48.2203 82.1134 48.6296 82.5318 48.6443 83.02Z" fill="#D1D7DC"/>
<path d="M49.083 100.855C49.0977 101.344 48.728 101.756 48.2173 101.745L46.753 101.788C47.0653 102.2 47.5298 102.524 48.0923 102.491C48.9941 102.481 49.7042 101.727 49.668 100.848C49.6578 99.9459 48.9035 99.2353 48.0242 99.271C47.4617 99.3046 47.0018 99.6133 46.729 100.033L48.1934 99.9892C48.659 99.9488 49.0683 100.367 49.083 100.855Z" fill="#D1D7DC"/>
<path d="M48.2056 65.1844C48.2203 65.6726 47.8506 66.0851 47.34 66.0736L45.8756 66.1169C46.1879 66.5285 46.6524 66.8534 47.2149 66.8199C48.1168 66.8101 48.8269 66.0562 48.7907 65.1768C48.7804 64.2749 48.0261 63.5643 47.1468 63.6C46.5843 63.6336 46.1244 63.9422 45.8517 64.3615L47.316 64.3182C47.7816 64.2778 48.1909 64.6963 48.2056 65.1844Z" fill="#D1D7DC"/>
<path d="M47.5345 38.4425C47.5492 38.9306 47.1795 39.3431 46.6689 39.3316L45.2045 39.3749C45.5168 39.7865 45.9813 40.1114 46.5439 40.0778C47.4457 40.0681 48.1558 39.3142 48.1196 38.4348C48.1093 37.5329 47.3551 36.8223 46.4758 36.858C45.9133 36.8915 45.4534 37.2003 45.1806 37.6195L46.645 37.5762C47.1105 37.5358 47.5457 37.9318 47.5345 38.4425Z" fill="#D1D7DC"/>
<path d="M47.9732 56.278C47.988 56.7661 47.6183 57.1786 47.1076 57.1671L45.6432 57.2104C45.9556 57.622 46.42 57.9469 46.9826 57.9134C47.8844 57.9036 48.5945 57.1497 48.5583 56.2703C48.548 55.3684 47.7938 54.6578 46.9145 54.6935C46.352 54.7271 45.8921 55.0358 45.6193 55.455L47.0837 55.4117C47.5492 55.3714 47.9844 55.7673 47.9732 56.278Z" fill="#D1D7DC"/>
<path d="M47.7668 47.349C47.7815 47.8371 47.4118 48.2496 46.9012 48.2381L45.4368 48.2814C45.7491 48.693 46.2136 49.0179 46.7762 48.9843C47.678 48.9746 48.3881 48.2207 48.3519 47.3413C48.3416 46.4394 47.5874 45.7288 46.7081 45.7645C46.1456 45.798 45.6857 46.1068 45.4129 46.526L46.8773 46.4827C47.3169 46.4649 47.7521 46.8608 47.7668 47.349Z" fill="#D1D7DC"/>
<path d="M45.7533 119.644L45.8361 123.352L45.7533 119.644Z" fill="#B91E22"/>
<path d="M45.6581 115.765C53.0148 115.746 60.5595 113.377 66.8527 110.092C77.6424 104.493 86.1804 95.2038 90.0511 83.687C91.7729 78.5469 92.6684 73.0321 93.0824 67.4348L52.023 68.424L51.8586 61.6901L93.4546 60.6898C93.4635 59.8623 93.5209 59.0382 93.5298 58.2107L51.8369 59.2041L51.4072 41.5885L93.0517 40.5916C92.7977 37.9433 92.3983 35.2847 91.8241 32.6869L108.779 32.2944L43.6887 33.8612L43.7715 37.5692L45.2359 37.5259C45.5345 37.0841 45.9944 36.7755 46.531 36.7644C47.4328 36.7547 48.1645 37.4394 48.1748 38.3413C48.1851 39.2432 47.5009 39.9745 46.5991 39.9843C46.0366 40.0178 45.5721 39.6929 45.2598 39.2813L43.8214 39.3021L43.954 44.7429L44.0072 46.4273L45.4456 46.4065C45.7443 45.9647 46.2042 45.656 46.7408 45.645C47.6426 45.6352 48.3743 46.3199 48.3846 47.2218C48.3948 48.1237 47.7107 48.8551 46.8089 48.8648C46.2463 48.8984 45.7819 48.5735 45.4695 48.1619L44.0311 48.1826L44.191 55.3303L45.6294 55.3096C45.9281 54.8678 46.388 54.5591 46.9246 54.5481C47.8265 54.5383 48.5582 55.223 48.5684 56.1249C48.5787 57.0268 47.8945 57.7582 46.9927 57.7679C46.4302 57.8015 45.9657 57.4766 45.6534 57.0649L44.2149 57.0857L44.2841 59.9403L44.3974 64.2594L45.8359 64.2386C46.1345 63.7968 46.5944 63.4881 47.131 63.4771C48.0329 63.4673 48.7646 64.152 48.7748 65.0539C48.7851 65.9558 48.1009 66.6872 47.1991 66.6969C46.6366 66.7305 46.1721 66.4056 45.8598 65.994L44.4213 66.0147L44.5813 73.1624L46.0197 73.1417C46.3184 72.6999 46.7783 72.3912 47.3149 72.3802C48.2167 72.3704 48.9484 73.0551 48.9587 73.957C48.969 74.8589 48.2848 75.5903 47.383 75.6C46.8204 75.6336 46.33 75.3312 46.0436 74.8971L44.6052 74.9178L44.7651 82.0655L46.2036 82.0448C46.5022 81.603 46.9621 81.2943 47.4987 81.2833C48.4005 81.2735 49.1323 81.9582 49.1425 82.8601C49.1528 83.762 48.4686 84.4934 47.5668 84.5031C47.0043 84.5367 46.5398 84.2118 46.2275 83.8001L44.789 83.8209L44.949 90.9686L46.3874 90.9478C46.6861 90.506 47.146 90.1974 47.6825 90.1863C48.5844 90.1766 49.3161 90.8613 49.3264 91.7632C49.3366 92.6651 48.6525 93.3965 47.7506 93.4062C47.1881 93.4398 46.7236 93.1149 46.4113 92.7032L44.9469 92.7465L45.1069 99.8942L46.5712 99.8509C46.844 99.4317 47.3298 99.1004 47.8664 99.0894C48.7682 99.0797 49.4999 99.7643 49.5102 100.666C49.5205 101.568 48.8363 102.3 47.9345 102.309C47.372 102.343 46.9075 102.018 46.5952 101.606L45.1567 101.627L45.3167 108.775L46.781 108.731C47.0797 108.29 47.5396 107.981 48.0762 107.97C48.978 107.96 49.7097 108.645 49.72 109.547C49.7303 110.449 49.0461 111.18 48.1442 111.19C47.5817 111.223 47.1173 110.898 46.8049 110.487L45.3406 110.53L45.5005 117.678L45.6581 115.765Z" fill="#B91E22"/>
<path d="M110.926 121.785L108.722 32.7533L108.701 32.3621L91.7463 32.7546C92.3205 35.3523 92.6974 37.985 92.9739 40.6593L101.366 40.4692L101.821 58.0623L93.478 58.2558C93.4691 59.0833 93.4602 59.9108 93.4028 60.7349L101.843 60.5482L102.007 67.2822L93.0531 67.5058C92.6165 73.0772 91.7436 78.6179 90.0218 83.758C86.1512 95.2748 77.6132 104.564 66.8234 110.163C60.5076 113.422 52.9855 115.817 45.6288 115.836L45.7001 117.96L47.1645 117.917C47.4631 117.475 47.923 117.166 48.4596 117.155C49.3615 117.145 50.0932 117.83 50.1034 118.732C50.1137 119.634 49.4295 120.365 48.5277 120.375C47.9652 120.408 47.5007 120.084 47.1884 119.672L45.724 119.715L45.8068 123.423L46.198 123.402L46.4663 123.396L110.926 121.785Z" fill="#A61D21"/>
<path d="M51.785 59.2492L93.478 58.2558C93.5091 55.3596 93.4885 52.5084 93.4385 49.7282C93.402 46.7541 93.2719 43.7248 92.9739 40.6593L51.3295 41.6561L51.785 59.2492Z" fill="#D1D7DC"/>
<path d="M93.4869 49.7316C93.511 52.5343 93.5317 55.3855 93.5265 58.2592L101.87 58.0657L101.414 40.4726L93.0224 40.6627C93.2979 43.7022 93.4505 46.7575 93.4869 49.7316Z" fill="#BCC2C7"/>
<path d="M51.8553 61.7385L52.0197 68.4725L93.0791 67.4833L102.033 67.2596L93.0791 67.4833C93.2603 65.2308 93.3671 62.9975 93.4254 60.7608L51.8553 61.7385Z" fill="#D1D7DC"/>
<path d="M93.105 67.4608L102.059 67.2371L101.895 60.5031L93.4546 60.6898C93.3929 62.975 93.2862 65.2083 93.105 67.4608Z" fill="#BCC2C7"/>
<path d="M39.9479 38.616C39.9626 39.1042 40.3752 39.4741 40.8374 39.4822L43.7402 39.4182L45.1786 39.3974L46.643 39.3541C47.1311 39.3397 47.5233 38.9531 47.5086 38.465C47.4939 37.9768 47.1072 37.5843 46.6191 37.5987L45.1547 37.642L43.6904 37.6853L40.7876 37.7494C40.3288 37.6928 39.9591 38.1053 39.9479 38.616Z" fill="#201B18"/>
<path d="M40.1802 47.5225C40.1949 48.0106 40.5816 48.4031 41.0697 48.3887L43.9725 48.3246L45.4109 48.3039L46.8753 48.2606C47.3634 48.2461 47.7557 47.8596 47.7409 47.3715C47.7262 46.8833 47.3395 46.4908 46.8514 46.5052L45.387 46.5485L43.9486 46.5693L41.0458 46.6334C40.5351 46.6219 40.1654 47.0343 40.1802 47.5225Z" fill="#201B18"/>
<path d="M40.3866 56.4515C40.4013 56.9397 40.7881 57.3322 41.2762 57.3177L44.179 57.2537L45.6174 57.2329L47.0818 57.1896C47.5699 57.1752 47.9621 56.7886 47.9474 56.3005C47.9327 55.8123 47.5459 55.4198 47.0578 55.4342L45.5935 55.4775L44.155 55.4983L41.2523 55.5624C40.7675 55.5283 40.3719 55.9633 40.3866 56.4515Z" fill="#201B18"/>
<path d="M45.8756 66.1169L47.3399 66.0735C47.8281 66.0591 48.2203 65.6726 48.2056 65.1844C48.1908 64.6963 47.8041 64.3038 47.316 64.3182L45.8517 64.3615L44.4132 64.3823L41.5104 64.4463C41.0223 64.4608 40.6301 64.8473 40.6448 65.3354C40.6595 65.8236 41.0463 66.2161 41.5344 66.2017L44.4372 66.1376L45.8756 66.1169Z" fill="#201B18"/>
<path d="M46.082 75.0459L47.5463 75.0026C48.0344 74.9881 48.4267 74.6016 48.412 74.1135C48.3972 73.6253 48.0105 73.2328 47.5224 73.2472L46.0581 73.2905L44.6196 73.3113L41.7168 73.3754C41.2287 73.3898 40.8365 73.7763 40.8512 74.2645C40.8659 74.7527 41.2526 75.1451 41.7408 75.1307L44.6435 75.0666L46.082 75.0459Z" fill="#201B18"/>
<path d="M46.3143 83.9524L47.7787 83.9091C48.2668 83.8946 48.659 83.5081 48.6443 83.02C48.6296 82.5318 48.2429 82.1393 47.7547 82.1537L46.2904 82.197L44.852 82.2178L41.9492 82.2819C41.4611 82.2963 41.0688 82.6828 41.0836 83.171C41.0983 83.6591 41.5109 84.0291 41.9731 84.0372L44.8759 83.9731L46.3143 83.9524Z" fill="#201B18"/>
<path d="M46.5466 92.8588L48.011 92.8155C48.4991 92.8011 48.8913 92.4146 48.8766 91.9264C48.8619 91.4382 48.4752 91.0457 47.9871 91.0602L46.5227 91.1035L45.0843 91.1242L42.1815 91.1883C41.6934 91.2027 41.3011 91.5893 41.3159 92.0774C41.3306 92.5656 41.7173 92.9581 42.2054 92.9437L45.1082 92.8796L46.5466 92.8588Z" fill="#201B18"/>
<path d="M46.753 101.788L48.2173 101.745C48.7054 101.73 49.0977 101.344 49.083 100.855C49.0683 100.367 48.6815 99.9748 48.1934 99.9892L46.729 100.033L45.2647 100.076L42.3619 100.14C41.8738 100.154 41.4816 100.541 41.4963 101.029C41.511 101.517 41.8977 101.91 42.3858 101.895L45.2886 101.831L46.753 101.788Z" fill="#201B18"/>
<path d="M46.9853 110.694L48.4496 110.651C48.9378 110.637 49.33 110.25 49.3153 109.762C49.3006 109.274 48.9139 108.881 48.4257 108.896L46.9614 108.939L45.497 108.982L42.5943 109.046C42.1061 109.061 41.7139 109.447 41.7286 109.935C41.7433 110.424 42.13 110.816 42.6182 110.802L45.5209 110.738L46.9853 110.694Z" fill="#201B18"/>
<path d="M47.1917 119.623L48.656 119.58C49.1442 119.566 49.5364 119.179 49.5217 118.691C49.507 118.203 49.1203 117.81 48.6321 117.825L47.1678 117.868L45.7034 117.911L42.8007 117.975C42.3126 117.99 41.9203 118.376 41.935 118.865C41.9497 119.353 42.3365 119.745 42.8246 119.731L45.7273 119.667L47.1917 119.623Z" fill="#201B18"/>
</svg>
